<?xml version="1.0" encoding="utf-8"?>
<!-- Generator: Adobe Illustrator 16.0.4, SVG Export Plug-In . SVG Version: 6.00 Build 0)  -->
<!DOCTYPE svg PUBLIC "-//W3C//DTD SVG 1.1//EN" "http://www.w3.org/Graphics/SVG/1.1/DTD/svg11.dtd">
<svg version="1.1" id="Layer_1" xmlns="http://www.w3.org/2000/svg" xmlns:xlink="http://www.w3.org/1999/xlink" x="0px" y="0px"
	 width="140px" height="125px" viewBox="0 0 140 125" enable-background="new 0 0 140 125" xml:space="preserve">
<g>
	<path fill="#FFFFFF" d="M35.166,120.396c-1.761,0-2.971-1.465-2.971-3.219v-0.03c0-1.756,1.239-3.187,2.971-3.187
		c1.021,0,1.828,0.437,2.619,1.153l1.429-1.656c-0.947-0.938-2.11-1.583-4.037-1.583c-3.148,0-5.343,2.394-5.343,5.303v0.028
		c0,2.94,2.241,5.271,5.258,5.271c1.976,0,3.149-0.705,4.2-1.833l-1.434-1.449C37.051,119.928,36.335,120.396,35.166,120.396z
		 M45.074,90.83c0-5.293-4.128-9.58-9.871-9.58c-5.75,0-9.926,4.335-9.926,9.633v0.056c0,5.292,4.121,9.581,9.872,9.581
		c5.748,0,9.925-4.341,9.925-9.637V90.83z M40.788,90.938c0,3.192-2.288,5.799-5.584,5.799c-3.301,0-5.644-2.659-5.644-5.854V90.83
		c0-3.192,2.292-5.803,5.589-5.803c3.301,0,5.639,2.661,5.639,5.855V90.938z M11.73,93.012h4.12v2.661
		c-1.037,0.746-2.365,1.117-3.853,1.117c-3.3,0-5.646-2.503-5.646-5.907V90.83c0-3.168,2.371-5.803,5.353-5.803
		c2.154,0,3.427,0.691,4.864,1.888l2.585-3.113c-1.945-1.646-3.965-2.552-7.317-2.552c-5.644,0-9.766,4.335-9.766,9.633v0.056
		c0,5.504,3.99,9.581,9.789,9.581c3.406,0,6.043-1.332,7.958-2.955v-8.093H11.73V93.012z M89.905,19.339
		c0.1,0.023,0.2,0.005,0.286-0.05v-0.007c0.2-0.124,0.24-0.361,0.1-0.591c-0.136-0.21-0.369-0.271-0.567-0.147l-0.006,0.003
		c-0.085,0.056-0.146,0.134-0.168,0.23c-0.006,0.025-0.007,0.051-0.007,0.081c0,0.085,0.029,0.178,0.084,0.264
		C89.698,19.24,89.795,19.314,89.905,19.339z M87.492,17.027l-0.007,0.004c-0.057,0.044-0.092,0.107-0.1,0.185
		c-0.013,0.114,0.036,0.244,0.139,0.363c0.091,0.128,0.206,0.204,0.319,0.22c0.077,0.01,0.146-0.008,0.203-0.055l0.006-0.008h0.004
		c0.057-0.046,0.094-0.107,0.103-0.185c0-0.013,0-0.023,0-0.037c0-0.104-0.046-0.224-0.132-0.33c-0.097-0.123-0.221-0.2-0.335-0.211
		C87.615,16.964,87.55,16.983,87.492,17.027z M88.587,17.119c0.078,0.009,0.149-0.01,0.214-0.058h0.002
		c0.133-0.104,0.129-0.314-0.008-0.483c-0.078-0.103-0.176-0.163-0.274-0.174c-0.069-0.008-0.132,0.012-0.186,0.053l-0.006,0.003
		l-0.002,0.005c-0.063,0.045-0.102,0.11-0.109,0.187c-0.002,0.011-0.002,0.026-0.002,0.038c0,0.09,0.038,0.185,0.105,0.268
		C88.391,17.048,88.487,17.106,88.587,17.119z M104.898,81.25c-5.747,0-9.927,4.335-9.927,9.633v0.056
		c0,5.292,4.126,9.581,9.872,9.581c5.747,0,9.925-4.341,9.925-9.637V90.83C114.769,85.537,110.646,81.25,104.898,81.25z
		 M110.485,90.938c0,3.192-2.29,5.799-5.587,5.799c-3.3,0-5.641-2.659-5.641-5.854V90.83c0-3.192,2.291-5.803,5.586-5.803
		c3.302,0,5.642,2.661,5.642,5.855V90.938z M103.666,118.141h4.828v-2.003h-4.828v-2.081h5.486v-2.001h-7.729v10.242h7.805v-2.004
		h-5.562V118.141z M66.923,55.71c0.062,0.006,0.645,0.062,0.71,0.068c-0.021-0.063-0.252-0.764-0.282-0.857
		C67.305,55.008,66.954,55.654,66.923,55.71z M132.948,81.57v11.466l-8.727-11.466h-3.777v18.623h4.043V88.353l9.017,11.841h3.488
		V81.57H132.948z M47.266,111.875c-3.158,0-5.46,2.394-5.46,5.303v0.028c0,2.912,2.265,5.271,5.427,5.271
		c3.168,0,5.468-2.386,5.468-5.299v-0.03C52.701,114.231,50.425,111.875,47.266,111.875z M50.346,117.206
		c0,1.752-1.266,3.19-3.08,3.19s-3.1-1.465-3.1-3.219v-0.03c0-1.756,1.261-3.187,3.066-3.187c1.821,0,3.114,1.457,3.114,3.217
		V117.206z M56.974,52.353c0.009-0.063,0.116-0.795,0.13-0.894c-0.078,0.056-0.686,0.477-0.738,0.512
		C56.42,52.006,56.918,52.32,56.974,52.353z M70.253,15.05c0.059,0.039,0.112,0.056,0.187,0.056
		c0.102,0.007,0.296-0.004,0.461-0.171c0.108-0.119,0.194-0.344,0.203-0.533c0.001-0.057,0-0.104-0.009-0.139
		c-0.007-0.021-0.072-0.202-0.277-0.222c-0.137-0.005-0.338,0.026-0.512,0.198c-0.111,0.112-0.189,0.283-0.203,0.454
		c0,0.01,0,0.021,0,0.034C70.103,14.826,70.126,14.976,70.253,15.05z M68.944,112.056h-2.255v10.242h7.365v-2.052h-5.11V112.056z
		 M58.419,112.056h-2.25v10.242h7.36v-2.052h-5.109V112.056z M62.056,100.193h4.787l-4.549-6.649
		c2.369-0.879,3.991-2.766,3.991-5.778v-0.048c0-1.754-0.559-3.219-1.596-4.259c-1.226-1.227-3.062-1.889-5.425-1.889h-8.515v18.623
		h4.099v-5.959h3.22L62.056,100.193z M54.847,85.269h4.069c1.996,0,3.222,0.905,3.222,2.663v0.053c0,1.573-1.149,2.635-3.142,2.635
		h-4.149V85.269z M79.452,118.141h4.834v-2.003h-4.834v-2.081h5.492v-2.001h-7.726v10.242h7.801v-2.004h-5.567V118.141z
		 M89.809,90.83c0-5.245-4.047-9.26-9.9-9.26h-7.263v18.623h7.263c5.854,0,9.9-4.065,9.9-9.311V90.83z M85.524,90.938
		c0,3.296-2.262,5.562-5.616,5.562h-3.165V85.269h3.165c3.354,0,5.616,2.316,5.616,5.614V90.938z M74.225,55.383
		c0.063-0.014,0.632-0.133,0.694-0.146c-0.036-0.053-0.466-0.659-0.521-0.738C74.38,54.596,74.235,55.319,74.225,55.383z
		 M93.348,118.35h2.269v1.461c-0.57,0.409-1.304,0.616-2.121,0.616c-1.818,0-3.106-1.376-3.106-3.249v-0.03
		c0-1.743,1.301-3.187,2.941-3.187c1.186,0,1.888,0.37,2.678,1.033l1.424-1.718c-1.072-0.904-2.185-1.401-4.03-1.401
		c-3.101,0-5.368,2.394-5.368,5.303v0.028c0,3.031,2.191,5.271,5.386,5.271c1.872,0,3.325-0.729,4.376-1.622v-4.453h-4.447V118.35z
		 M67.838,48.211V29.607H57.766c0.706,5.876,2.886,11.333,9.546,18.067C67.481,47.856,67.663,48.027,67.838,48.211z M52.365,32.503
		c0.024,0.411,0.359,0.577,0.681,0.559c0.102-0.006,0.337-0.047,0.328-0.301c-0.017-0.28-0.134-0.532-0.864-0.497
		c-0.042,0.002-0.091,0.032-0.104,0.04c-0.036,0.034-0.045,0.085-0.045,0.133c0,0.014,0.004,0.026,0.004,0.04V32.503z
		 M59.001,44.479c-0.142,0.024-0.289,0.112-0.391,0.232c-0.039,0.053-0.097,0.144-0.097,0.24c0,0.036,0.006,0.071,0.024,0.105
		c0.022,0.065,0.062,0.102,0.104,0.139c0.048,0.041,0.209,0.163,0.429,0.113c0.153-0.031,0.333-0.151,0.443-0.29
		c0.027-0.028,0.048-0.062,0.063-0.107c0.021-0.063,0.027-0.21-0.089-0.309C59.345,44.494,59.184,44.452,59.001,44.479z
		 M53.397,35.43c0.248-0.059,0.273-0.136,0.275-0.147c0,0,0.005-0.02,0.005-0.034c0-0.037-0.009-0.095-0.023-0.17
		c-0.035-0.148-0.141-0.228-0.225-0.27c-0.202-0.093-0.394-0.08-0.518-0.053c-0.128,0.026-0.212,0.075-0.258,0.146
		c-0.045,0.073-0.038,0.153-0.025,0.211c0.02,0.092,0.078,0.169,0.168,0.226C52.952,35.442,53.181,35.477,53.397,35.43z
		 M67.838,18.921H57.452c0,0.579-0.005,1.527-0.005,1.527c-0.003,0.631-0.003,1.252-0.003,1.857c0,1.305,0.013,2.561,0.06,3.784
		h10.335V18.921z M60.643,22.415l-0.688-0.363l-0.69,0.363l0.137-0.767l-0.556-0.544l0.764-0.108l0.345-0.698l0.345,0.698
		l0.766,0.108l-0.551,0.544L60.643,22.415z M63.244,24.53l-0.682-0.357l-0.688,0.357l0.134-0.758l-0.562-0.542l0.772-0.112
		l0.343-0.701l0.345,0.701l0.766,0.112l-0.554,0.542L63.244,24.53z M65.855,22.415l-0.691-0.363l-0.683,0.363l0.128-0.767
		l-0.557-0.544l0.773-0.108l0.338-0.698l0.347,0.698l0.769,0.108l-0.562,0.544L65.855,22.415z M81.617,22.306v-1.857
		c0,0-0.006-0.949-0.006-1.527H71.224v7.168h10.337C81.606,24.867,81.617,23.611,81.617,22.306z M74.507,22.415l-0.69-0.363
		l-0.688,0.363l0.133-0.767l-0.558-0.544l0.775-0.108l0.337-0.698l0.342,0.698l0.772,0.108l-0.555,0.544L74.507,22.415z
		 M77.112,24.53l-0.692-0.357l-0.685,0.357l0.128-0.758L75.31,23.23l0.767-0.112l0.344-0.701l0.345,0.701l0.764,0.112l-0.551,0.542
		L77.112,24.53z M79.709,22.415l-0.687-0.363l-0.681,0.363l0.13-0.767l-0.559-0.544l0.767-0.108l0.343-0.698l0.349,0.698
		l0.763,0.108l-0.558,0.544L79.709,22.415z M86.537,30.084L86.537,30.084c0.041-0.005,0.084-0.036,0.099-0.05
		c0.055-0.042,0.045-0.127,0.04-0.183v-0.012c-0.02-0.166-0.09-0.302-0.203-0.396c-0.131-0.107-0.309-0.154-0.505-0.134
		c-0.101,0.009-0.331,0.057-0.311,0.311c0.015,0.16,0.062,0.266,0.149,0.343C85.943,30.077,86.183,30.117,86.537,30.084z
		 M68.345,15.193c0.301-0.018,0.486-0.427,0.464-0.781c-0.013-0.281-0.095-0.318-0.107-0.323h-0.004v-0.002
		c-0.04-0.021-0.146-0.021-0.217-0.023c-0.144,0.015-0.266,0.091-0.334,0.207l-0.002,0.002c-0.107,0.164-0.162,0.363-0.147,0.548
		C68.01,15.076,68.125,15.198,68.345,15.193z M82.798,42.104c0.097,0.069,0.243,0.135,0.385,0.062
		c0.065-0.029,0.105-0.066,0.143-0.131c0.061-0.083,0.157-0.255,0.099-0.478c-0.046-0.159-0.182-0.344-0.336-0.456
		c-0.051-0.031-0.1-0.054-0.133-0.069c-0.049-0.012-0.217-0.033-0.336,0.13c-0.078,0.112-0.12,0.235-0.12,0.371
		c0,0.051,0.004,0.104,0.018,0.157C82.554,41.846,82.659,41.997,82.798,42.104z M81.298,29.607H71.224v18.6
		c0.177-0.18,0.353-0.351,0.529-0.532C78.413,40.941,80.596,35.484,81.298,29.607z M57.757,41.939c0-0.189-0.062-0.358-0.179-0.502
		c-0.109-0.141-0.315-0.223-0.458-0.239c-0.258-0.019-0.524,0.079-0.791,0.291c-0.245,0.195-0.407,0.484-0.438,0.771
		c-0.022,0.226,0.035,0.436,0.174,0.607c0.102,0.128,0.249,0.212,0.407,0.236c0.143,0.021,0.447,0.008,0.852-0.32
		c0.24-0.195,0.399-0.478,0.429-0.756C57.755,41.999,57.757,41.969,57.757,41.939z M57.5,42.35
		c-0.013,0.049-0.071,0.091-0.112,0.104c-0.171,0.049-0.308,0.103-0.447,0.181c-0.116,0.066-0.17,0.032-0.194,0.002
		c-0.034-0.052-0.01-0.113,0.007-0.153l0.002-0.004l0.004-0.006c0.065-0.09,0.065-0.093,0.02-0.14l-0.193-0.222
		c-0.071-0.083-0.099-0.086-0.181-0.097l-0.042-0.003c-0.056-0.005-0.114-0.013-0.142-0.053c0,0,0,0.003,0.001,0.005l-0.008-0.013
		c0.001,0.004,0.004,0.006,0.007,0.007c-0.016-0.015-0.026-0.035-0.026-0.058c0-0.005,0-0.01,0-0.01
		c0.01-0.047,0.046-0.079,0.08-0.09c0.188-0.06,0.339-0.125,0.471-0.205c0.033-0.013,0.129-0.062,0.19,0
		c0.016,0.022,0.022,0.042,0.022,0.062c0,0.042-0.029,0.077-0.041,0.092c-0.028,0.053-0.043,0.078-0.043,0.103
		c0,0.023,0.015,0.04,0.04,0.073l0.158,0.186c0.004,0.002,0.006,0.005,0.006,0.005c0.09,0.094,0.115,0.112,0.255,0.112
		c0.065,0,0.118,0.019,0.156,0.059c0.009,0.012,0.014,0.026,0.014,0.041L57.5,42.35z M54.332,13.279c0-0.008,0-0.018,0-0.018
		c0-0.083-0.03-0.154-0.078-0.217h-0.009l-0.006-0.007c-0.186-0.224-0.412-0.114-0.571,0.017c0,0-0.391,0.338-0.423,0.367
		c0.027,0.033,0.435,0.51,0.465,0.543c0.033-0.03,0.428-0.366,0.428-0.366C54.254,13.5,54.321,13.393,54.332,13.279z M69.29,8.814
		c0.427-0.005,0.749-0.342,0.742-0.787V8.02c-0.005-0.45-0.334-0.789-0.763-0.784c-0.201,0.001-0.385,0.078-0.519,0.216
		c-0.142,0.147-0.22,0.352-0.215,0.576C68.536,8.476,68.86,8.818,69.29,8.814z M69.535,52.58c11.432,0,20.731-9.302,20.731-20.733
		c0-11.434-9.3-20.732-20.731-20.732c-11.436,0-20.737,9.298-20.737,20.732C48.798,43.277,58.1,52.58,69.535,52.58z M56.356,43.373
		c-0.206-0.084-0.409-0.236-0.552-0.415c-0.229-0.286-0.333-0.637-0.296-0.991c0.037-0.338,0.202-0.641,0.464-0.85
		c0.255-0.209,0.596-0.314,0.916-0.282c0.363,0.037,0.721,0.227,0.936,0.491c0.205,0.253,0.317,0.553,0.317,0.861
		c0,0.042-0.004,0.089-0.009,0.135c-0.035,0.331-0.208,0.633-0.475,0.85C57.302,43.464,56.793,43.542,56.356,43.373z M57.566,44.245
		c0.108,0.103,0.292,0.222,0.476,0.246c0.03,0,0.06,0.022,0.072,0.055c0.011,0.035,0.004,0.068-0.017,0.086
		c-0.022,0.029-0.127,0.095-0.213,0.108c-0.211,0.022-0.445-0.067-0.625-0.239c-0.093-0.088-0.145-0.211-0.145-0.345
		c0-0.118,0.041-0.23,0.103-0.296c0.107-0.108,0.307-0.161,0.444-0.156c-0.01-0.04-0.019-0.086-0.019-0.136
		c0-0.085,0.019-0.169,0.07-0.219c0.113-0.125,0.316-0.188,0.507-0.155c0.183,0.036,0.358,0.125,0.484,0.24
		c0.105,0.101,0.122,0.188,0.122,0.229l0.003,0.006c0,0.037-0.011,0.07-0.033,0.088h0.003h-0.003
		c-0.034,0.04-0.102,0.059-0.153,0.059c-0.044,0.002-0.08-0.008-0.101-0.031c-0.239-0.215-0.503-0.291-0.616-0.172
		c-0.016,0.018-0.025,0.038-0.025,0.06c0,0.013,0.005,0.028,0.011,0.042c0.015,0.005,0.04,0.016,0.04,0.016l0.101,0.041
		c0.106,0.042,0.227,0.086,0.298,0.149c0.032,0.036,0.055,0.095,0.055,0.147c0,0.038-0.013,0.07-0.031,0.093
		c-0.055,0.057-0.127,0.092-0.21,0.094c-0.065,0.002-0.125-0.018-0.16-0.055c0,0-0.152-0.13-0.152-0.128l-0.05-0.038
		c-0.177-0.078-0.307-0.058-0.344-0.019c-0.01,0.01-0.014,0.021-0.014,0.033C57.443,44.1,57.49,44.171,57.566,44.245z
		 M58.991,45.719c-0.239,0.029-0.468-0.089-0.564-0.167c-0.044-0.032-0.181-0.164-0.203-0.479c-0.004-0.225,0.07-0.438,0.212-0.621
		c0.153-0.183,0.326-0.295,0.565-0.354c0.264-0.062,0.515,0.046,0.622,0.134c0.114,0.096,0.189,0.215,0.222,0.354
		c0.016,0.061,0.022,0.122,0.022,0.181c0,0.21-0.08,0.423-0.227,0.604C59.42,45.646,59.112,45.705,58.991,45.719z M61.289,46.097
		c-0.243,0.362-0.51,0.566-0.84,0.646c-0.23,0.058-0.451-0.015-0.521-0.062c-0.217-0.141-0.318-0.428-0.301-0.574
		c0.008-0.047,0.076-0.158,0.105-0.187l0.185-0.225c0.117-0.137,0.261-0.31,0.284-0.348c0.036-0.052,0.051-0.094,0.042-0.132
		c-0.008-0.035-0.034-0.065-0.08-0.095l-0.095-0.063l-0.021-0.014l0.017,0.008c-0.021-0.003-0.039-0.018-0.049-0.039
		c-0.019-0.046,0.018-0.102,0.036-0.123c0.096-0.113,0.421-0.149,0.6-0.033c0.113,0.076,0.134,0.224,0.103,0.345
		c-0.018,0.048-0.084,0.14-0.128,0.182c-0.16,0.151-0.448,0.456-0.562,0.622c-0.028,0.049-0.039,0.102-0.037,0.115
		c0.006,0.021,0.034,0.123,0.112,0.177c0.191,0.124,0.542,0.077,0.892-0.46c0.049-0.078,0.144-0.368,0.171-0.496v0.011
		c0-0.025,0.015-0.047,0.041-0.054c0.042-0.015,0.125,0.006,0.148,0.031c-0.007-0.002-0.007-0.006-0.012-0.009l0.014,0.012v-0.003
		c0.062,0.046,0.077,0.131,0.082,0.206c0,0.006,0,0.011,0,0.011C61.475,45.71,61.408,45.908,61.289,46.097z M61.815,44.843
		l-0.002,0.002L61.815,44.843c-0.025,0.048-0.067,0.083-0.11,0.091c-0.027,0.006-0.052-0.005-0.071-0.02l0.005,0.006l-0.012-0.01
		l0.007,0.004c-0.041-0.021-0.059-0.062-0.059-0.107c0-0.023,0.003-0.048,0.01-0.069c0.013-0.044,0.017-0.078,0.017-0.11
		c0-0.08-0.035-0.129-0.119-0.181c-0.09-0.062-0.192-0.052-0.316,0.03c-0.029,0.017-0.104,0.056-0.161,0.036l-0.009-0.004
		l-0.007-0.007c-0.021-0.022-0.067-0.083,0.008-0.184c0.2-0.246,0.478-0.311,0.711-0.165c0.113,0.071,0.208,0.198,0.208,0.368
		C61.918,44.614,61.887,44.723,61.815,44.843z M81.586,44.714l-0.282,0.249c-0.193,0.188-0.313,0.328-0.382,0.404
		c0,0-0.044,0.049-0.051,0.054c-0.066,0.059-0.162,0.091-0.218,0.041c-0.053-0.054-0.015-0.168,0.023-0.209l-0.006,0.009
		c0.138-0.24,0.119-0.259-0.02-0.419c-0.1-0.113-0.36-0.4-0.476-0.515c-0.069-0.078-0.173-0.182-0.257-0.239
		c-0.439-0.325-0.771-0.357-1.046-0.098c-0.095,0.095-0.148,0.228-0.189,0.323l-0.033,0.075c-0.015,0.029-0.042,0.051-0.071,0.055
		c-0.027,0.007-0.055-0.005-0.074-0.025c-0.061-0.061-0.051-0.18-0.041-0.227c0.02-0.209,0.132-0.432,0.297-0.59
		c0.267-0.262,0.685-0.281,1.079-0.061c-0.061-0.166-0.094-0.33-0.094-0.479c0-0.264,0.087-0.494,0.262-0.662
		c0.141-0.131,0.328-0.204,0.491-0.196c0.076,0,0.125,0.021,0.167,0.068c0,0-0.002-0.003-0.005-0.003l0.012,0.007l-0.007-0.003
		c0.013,0.01,0.021,0.023,0.021,0.05c0,0,0,0.013-0.003,0.021c-0.004,0.034-0.033,0.093-0.08,0.105
		c-0.148,0.034-0.233,0.096-0.329,0.191c-0.121,0.113-0.181,0.274-0.181,0.457c0,0.195,0.068,0.419,0.206,0.645
		c0.043,0.073,0.117,0.153,0.187,0.23l0.044,0.049l0.177,0.179l0.335,0.341c0.129,0.124,0.194,0.083,0.337,0.006l0.035-0.019
		c0.075-0.048,0.156-0.052,0.196-0.006c0.021,0.023,0.031,0.05,0.031,0.076C81.643,44.635,81.622,44.676,81.586,44.714z
		 M80.984,41.835c0.064,0.05,0.12,0.009,0.168-0.046c0.022-0.022,0.124-0.081,0.195-0.033c0.096,0.084,0.048,0.217,0.007,0.269
		c-0.093,0.118-0.302,0.162-0.475,0.033c-0.23-0.18-0.128-0.489-0.079-0.556c0.038-0.043,0.079-0.061,0.104-0.043
		c0.018,0.021,0.046,0.06,0.034,0.11C80.924,41.66,80.917,41.781,80.984,41.835z M81.264,40.98c-0.035-0.021-0.058-0.059-0.065-0.11
		c-0.017-0.08,0-0.176,0.034-0.23c0.016-0.023,0.078-0.063,0.153-0.058l0.002,0.002c0.136,0.018,0.501,0.106,0.636,0.138
		c0.042,0.015,0.092,0.058,0.106,0.109c0.008,0.031,0.004,0.063-0.014,0.084c-0.035,0.054-0.109,0.074-0.156,0.074
		c-0.202,0.023-0.385,0.035-0.539,0.029c-0.067,0.005-0.15-0.015-0.173-0.055L81.264,40.98z M82.936,43.245L82.936,43.245
		l-0.003,0.001l0,0v0.002v-0.002c-0.063,0.089-0.163,0.13-0.264,0.114c-0.14-0.024-0.306-0.167-0.306-0.167
		c-0.142-0.118-0.843-0.692-0.92-0.762c-0.04-0.039-0.04-0.094-0.04-0.094v-0.023l0.006-0.012c0.032-0.044,0.159-0.186,0.195-0.212
		c0.015-0.013,0.066-0.048,0.177,0.047c0.085,0.073,0.248,0.233,0.399,0.39c0.153,0.152,0.31,0.309,0.381,0.369
		c0.032,0.025,0.055,0.04,0.07,0.038c0.019-0.002,0.046-0.026,0.083-0.071c0.029-0.036,0.04-0.058,0.058-0.098l0.002-0.004
		l0.018-0.031h0.029c0.041-0.002,0.114,0.052,0.123,0.082c0.037,0.063,0.05,0.138,0.05,0.206
		C82.994,43.117,82.968,43.21,82.936,43.245L82.936,43.245z M85.351,40.98c-0.027,0.043-0.084,0.082-0.152,0.104l-0.004,0.002H85.19
		c-0.031,0.004-0.134,0.015-0.18-0.038l-0.006-0.005l-0.004-0.007c-0.021-0.03-0.039-0.063-0.021-0.135
		c0.059-0.229,0.015-0.455-0.027-0.479c-0.053-0.029-0.065-0.008-0.072,0.008l-0.059,0.117l-0.128,0.248
		c-0.054,0.088-0.174,0.167-0.246,0.19c-0.086,0.024-0.319,0.062-0.611-0.117c-0.319-0.176-0.487-0.499-0.517-0.74
		c-0.036-0.264-0.013-0.438,0.078-0.597c0.066-0.124,0.197-0.177,0.301-0.125l0.004,0.002l0.005,0.003
		c0.021,0.017,0.085,0.094,0.099,0.138c0.003,0.009,0.003,0.022,0.003,0.032c0,0.029-0.012,0.053-0.014,0.061
		c-0.075,0.143-0.113,0.31-0.113,0.464c0,0.215,0.074,0.41,0.25,0.507c0.095,0.059,0.175,0.078,0.243,0.059
		c0.071-0.019,0.136-0.078,0.196-0.182l0.074-0.136l0.09-0.168c0.043-0.068,0.127-0.103,0.189-0.103
		c0.091,0,0.183,0.029,0.276,0.084C85.291,40.328,85.475,40.752,85.351,40.98z M86.726,35.581L86.726,35.581
		c-0.052,0.223-0.295,0.285-0.412,0.309c0.132,0.123,0.22,0.308,0.22,0.458c0,0.027-0.002,0.051-0.008,0.074
		c-0.021,0.095-0.101,0.189-0.219,0.263c-0.202,0.125-0.465,0.165-0.711,0.105c-0.297-0.071-0.508-0.197-0.668-0.401
		c-0.086-0.101-0.154-0.284-0.134-0.353c0.021-0.096,0.178-0.19,0.231-0.188c0.049,0.006,0.116,0.059,0.139,0.094l0.004,0.008
		l0.001,0.004c0.06,0.161,0.259,0.486,0.603,0.562c0.281,0.067,0.353-0.109,0.367-0.16c0.034-0.145-0.091-0.339-0.206-0.365
		l-0.176-0.022c0,0-0.098-0.012-0.093-0.011c-0.06-0.014-0.109-0.048-0.14-0.095c-0.045-0.059-0.045-0.156-0.027-0.234
		c0.027-0.101,0.147-0.194,0.274-0.167c0.044,0.01,0.166,0.078,0.247,0.144c0.03,0.027,0.074,0.052,0.093,0.054
		c0.118,0.015,0.212-0.056,0.233-0.129c0.029-0.146-0.082-0.35-0.493-0.447c-0.198-0.051-0.461-0.013-0.67,0.088
		c-0.03,0.016-0.069,0.013-0.1-0.004c-0.025-0.012-0.037-0.033-0.044-0.058c0,0.006,0.004,0.014,0.004,0.014l-0.007-0.015
		l0.003,0.001c-0.019-0.047-0.007-0.119-0.007-0.119c0.048-0.182,0.493-0.373,0.94-0.264c0.63,0.151,0.767,0.542,0.767,0.76
		C86.738,35.524,86.733,35.553,86.726,35.581z M86.937,33.917c-0.08,0.065-0.213,0.087-0.393,0.063
		c-0.158-0.014-0.483-0.117-0.797-0.211c0,0-0.092-0.031-0.113-0.038c-0.012,0.067-0.021,0.141-0.035,0.237c0,0.008,0,0.018,0,0.028
		c0,0.085,0.025,0.195,0.139,0.292c0.035,0.027,0.067,0.07,0.067,0.111c0,0-0.002,0.009-0.002,0.015l0.002-0.006L85.8,34.42
		c0.003-0.003,0-0.003,0.003-0.005c-0.005,0.032-0.019,0.051-0.031,0.059c-0.033,0.025-0.073,0.025-0.112,0.019
		c-0.079-0.008-0.231-0.084-0.318-0.212c-0.084-0.114-0.126-0.313-0.116-0.421l0.074-0.453c0,0,0.065-0.416,0.065-0.417
		c0.006-0.034-0.011-0.13-0.04-0.179l0.011,0.013c-0.021-0.017-0.026-0.044-0.016-0.069c0.016-0.034,0.08-0.061,0.114-0.055
		l0.005,0.002l0.004,0.002c0.035,0.017,0.206,0.097,0.256,0.162l-0.005-0.004l0.011,0.013c0-0.004-0.006-0.004-0.006-0.004
		c0.04,0.033,0.051,0.133,0.051,0.173c0,0.007,0,0.016-0.002,0.018c0,0.057-0.025,0.189-0.044,0.292c0,0-0.02,0.107-0.022,0.125
		c0.003,0.002,0.005,0.004,0.005,0.004c0.186,0.071,0.563,0.145,0.741,0.164c0.011,0.002,0.046-0.006,0.081-0.033
		c0.021-0.017,0.061-0.053,0.064-0.102c0.006-0.062,0.01-0.108-0.001-0.155c-0.003-0.013-0.007-0.036,0.015-0.057
		c0.031-0.023,0.095-0.047,0.144-0.03c0.201,0.081,0.314,0.321,0.291,0.495C87.015,33.827,86.989,33.877,86.937,33.917z
		 M85.447,29.311c0.148-0.179,0.391-0.297,0.639-0.316c0.321-0.031,0.531,0.086,0.674,0.192l0.005,0.003
		c0.178,0.145,0.251,0.358,0.264,0.51c0.001,0.016,0.002,0.033,0.002,0.049c0,0.106-0.04,0.182-0.107,0.282
		c0.255-0.033,0.488-0.079,0.632-0.105l0.128-0.022c0.071-0.01,0.144-0.033,0.21-0.06c0.012-0.008,0.032-0.012,0.062,0.004
		c0,0,0.074,0.045,0.074,0.095v-0.008c0.004,0.023,0.021,0.141-0.002,0.236c-0.028,0.089-0.164,0.128-0.221,0.135
		c-0.01,0.001-1.03,0.066-1.497,0.114c-0.384,0.035-0.652-0.035-0.845-0.224c-0.104-0.11-0.166-0.288-0.176-0.404
		C85.273,29.62,85.328,29.455,85.447,29.311z M85.351,31.871l0.003-0.002L85.351,31.871c0.098-0.061,0.212-0.057,0.339-0.042
		c0,0,0.146,0.017,0.228,0.025c-0.243-0.124-0.418-0.242-0.573-0.406c-0.083-0.094-0.129-0.21-0.129-0.316l0,0
		c0.008-0.153,0.12-0.275,0.316-0.333c0.071-0.012,0.193-0.018,0.326-0.016l0.085,0.004c1.658,0.019,2.05,0.017,2.087,0.012
		l0.059,0.018c0.031,0.025,0.056,0.081,0.056,0.116c0,0.095-0.093,0.329-0.191,0.358c0.005-0.001,0.011-0.004,0.011-0.005
		l-0.011,0.005l0,0c-0.031,0.014-0.089,0.025-0.238-0.004c-0.142-0.026-1.69-0.199-1.852-0.204c-0.077,0-0.207,0.014-0.207,0.108
		c-0.002,0.017,0,0.161,0.239,0.296c0.265,0.154,0.53,0.259,1.177,0.46h0.006L87.145,32v0.025c0,0.063-0.065,0.217-0.108,0.233
		l0.016-0.01c-0.031,0.036-0.07,0.047-0.093,0.047h-0.005h-0.006c-0.058-0.014-0.53-0.109-0.715-0.132
		c-0.421-0.053-0.505-0.006-0.506-0.004c-0.047,0.03-0.063,0.085-0.063,0.122l0.008,0.077l0.01,0.066l-0.004,0.013
		c-0.019,0.04-0.054,0.082-0.097,0.074c-0.057,0-0.116-0.014-0.173-0.044c-0.192-0.099-0.207-0.29-0.207-0.349
		C85.204,32.057,85.237,31.934,85.351,31.871L85.351,31.871z M84.451,31.017h0.004l0,0c0.09,0,0.567,0.414,0.574,0.421
		c0.016,0.018,0.09,0.107,0.09,0.164c0,0.029-0.018,0.055-0.043,0.069c-0.045,0.027-0.102,0.027-0.163,0.002
		c0.002,0.005,0.005,0.005,0.005,0.005l-0.01-0.005h0.005c-0.064-0.013-0.371-0.162-0.526-0.243
		c-0.101-0.064-0.147-0.114-0.147-0.164C84.239,31.172,84.351,31.028,84.451,31.017z M83.397,37.874l0.343-0.871
		c0.078-0.199,0.088-0.299,0.078-0.397c0-0.034,0.021-0.062,0.057-0.08c0.026-0.011,0.071-0.02,0.103,0.005
		c0.127,0.086,0.286,0.195,0.4,0.237c0.063,0.026,0.142,0.11,0.114,0.191c-0.033,0.063-0.118,0.063-0.178,0.063l-0.094-0.007
		c-0.161-0.015-0.181-0.019-0.26,0.124c-0.043,0.097-0.213,0.539-0.286,0.762c0.202-0.067,0.759-0.314,1.01-0.434l0.006-0.002
		l0.008-0.002c0.075-0.013,0.129,0.006,0.142,0.049c0.12,0.325,0.367,0.869,0.469,1.083c0.072-0.078,0.163-0.314,0.315-0.7
		l0.024-0.067c0.05-0.126,0.08-0.211,0.08-0.287c0-0.089-0.036-0.165-0.119-0.278c-0.03-0.044-0.063-0.103-0.063-0.152
		c0-0.016,0.002-0.027,0.006-0.04c0.011-0.025,0.033-0.04,0.063-0.048c0.052-0.011,0.127,0.019,0.166,0.051l0.164,0.153l0.054,0.05
		c0.062,0.059,0.107,0.105,0.142,0.151l-0.008-0.008c0.026,0.022,0.042,0.069,0.042,0.116c0,0.022-0.008,0.043-0.014,0.065
		c-0.072,0.162-0.284,0.673-0.424,1.038l-0.096,0.243l-0.062,0.194c0,0-0.063,0.187-0.065,0.195
		c-0.01,0.017-0.024,0.051-0.062,0.064c-0.024,0.008-0.052,0.004-0.078-0.013H85.37l-0.071-0.096l-0.042-0.062l-0.004-0.011
		l-0.004-0.005c-0.115-0.346-0.449-1.097-0.514-1.228c-0.153,0.055-1.008,0.411-1.3,0.533c-0.033,0.015-0.11,0.031-0.162,0.015
		c-0.034-0.006-0.062-0.021-0.074-0.047c0,0-0.011-0.064-0.009-0.071C83.19,38.352,83.4,37.873,83.397,37.874z M83.448,40.941
		c0.308,0.221,0.396,0.548,0.423,0.676c0.049,0.264-0.074,0.526-0.144,0.627c-0.067,0.101-0.233,0.215-0.509,0.248
		c-0.232,0.024-0.479-0.045-0.687-0.186c-0.206-0.154-0.341-0.34-0.423-0.591c-0.02-0.07-0.028-0.139-0.028-0.209
		c0-0.195,0.07-0.372,0.135-0.464c0.094-0.139,0.222-0.229,0.376-0.267C82.876,40.692,83.183,40.75,83.448,40.941z M73.689,15.215
		c0.098-0.372,0.393-0.644,0.64-0.743c0.264-0.105,0.452-0.128,0.647-0.076c0.086,0.025,0.154,0.072,0.186,0.135
		c0.017,0.026,0.023,0.054,0.023,0.086c0,0.018-0.005,0.032-0.007,0.05v-0.001l-0.004,0.009l0.004-0.008
		c-0.009,0.046-0.071,0.127-0.112,0.156l0.002-0.003l-0.012,0.008l0.006-0.005c-0.022,0.02-0.058,0.024-0.098,0.012
		c-0.394-0.088-0.888,0.045-0.994,0.416c-0.032,0.119-0.029,0.209,0.012,0.278c0.04,0.066,0.117,0.117,0.238,0.148
		c0,0,0.367,0.097,0.363,0.097c0.087,0.018,0.151,0.105,0.17,0.162c0.024,0.095,0.02,0.204-0.015,0.317
		c-0.102,0.36-0.493,0.661-0.76,0.585c-0.058-0.016-0.114-0.063-0.158-0.131l-0.001-0.003v-0.003
		c-0.029-0.061-0.029-0.143-0.008-0.189l0.007-0.012l0.011-0.012c0.023-0.026,0.048-0.048,0.129-0.048
		c0.245,0.002,0.483-0.11,0.506-0.17c0-0.006,0-0.016,0-0.016c0-0.041-0.011-0.054-0.039-0.06l-0.153-0.034l-0.276-0.063
		c-0.104-0.025-0.228-0.128-0.265-0.2c-0.034-0.059-0.093-0.185-0.093-0.374C73.639,15.435,73.651,15.331,73.689,15.215z
		 M72.401,13.309c0.097-0.373,0.377-0.464,0.586-0.431c0.199,0.038,0.42,0.212,0.373,0.586h-0.002
		c-0.008,0.064-0.033,0.113-0.069,0.136c-0.021,0.012-0.043,0.017-0.067,0.01l0.002,0.002l-0.011-0.002c0,0,0.005,0,0.009,0
		c-0.075-0.006-0.113-0.082-0.113-0.153c-0.031-0.144-0.08-0.198-0.209-0.221c-0.118-0.017-0.209,0.03-0.283,0.147
		c-0.051,0.072-0.096,0.101-0.138,0.093h0.002h-0.009c0.004,0,0.005,0,0.005,0c-0.029-0.002-0.057-0.016-0.071-0.042
		c-0.012-0.017-0.02-0.038-0.02-0.062C72.386,13.354,72.391,13.331,72.401,13.309z M71.787,14.071
		c0.043-0.139,0.325-0.299,0.54-0.271c0.127,0.019,0.207,0.151,0.229,0.279c0.006,0.052-0.024,0.168-0.051,0.217V14.29
		c-0.083,0.202-0.225,0.598-0.258,0.808v0.004l-0.003,0.004c-0.006,0.008-0.006,0.023-0.006,0.036c0,0.031,0.009,0.061,0.014,0.074
		c0.021,0.027,0.08,0.096,0.175,0.109c0.096,0.017,0.197-0.008,0.282-0.07c0.117-0.079,0.271-0.271,0.348-0.71
		c0.02-0.093,0-0.386-0.032-0.512c-0.006-0.016-0.002-0.036,0.01-0.049c0.029-0.041,0.121-0.043,0.144-0.041
		c0.092,0.011,0.134,0.084,0.17,0.16c0.045,0.095,0.066,0.221,0.066,0.36c0,0.071-0.006,0.152-0.021,0.23
		c-0.09,0.55-0.332,0.79-0.509,0.925c-0.185,0.143-0.423,0.16-0.511,0.146c-0.231-0.041-0.438-0.244-0.485-0.402v0.003l-0.005-0.015
		l0.005,0.011c-0.032-0.055,0.004-0.209,0.008-0.224l0.026-0.086c0.061-0.195,0.168-0.556,0.183-0.617
		c0.009-0.063,0.003-0.114-0.02-0.143c-0.017-0.025-0.052-0.045-0.102-0.051l-0.131-0.023c-0.021,0-0.042-0.011-0.058-0.027
		C71.779,14.163,71.771,14.117,71.787,14.071z M70.069,13.913c0.189-0.219,0.483-0.285,0.637-0.28
		c0.155,0.013,0.297,0.074,0.413,0.179c0.205,0.183,0.315,0.448,0.315,0.752c0,0.023,0,0.047-0.002,0.068
		c-0.022,0.37-0.232,0.605-0.353,0.713c-0.199,0.184-0.495,0.22-0.606,0.21c-0.118-0.009-0.309-0.089-0.475-0.302
		c-0.147-0.197-0.219-0.441-0.2-0.683C69.816,14.303,69.902,14.094,70.069,13.913z M67.989,13.865
		c0.122-0.099,0.299-0.187,0.389-0.192c0.095-0.005,0.606-0.024,0.829-0.024c0.194-0.002,0.244-0.034,0.324-0.093l0.008-0.005
		l0.008-0.001c0.017-0.002,0.04,0,0.065,0.019c0.021,0.018,0.042,0.051,0.042,0.08l0,0v0.009c0,0.077-0.042,0.259-0.065,0.316
		l-0.002,0.004c-0.034,0.062-0.137,0.089-0.174,0.089c0,0-0.362,0-0.425,0c0.05,0.076,0.195,0.313,0.2,0.455c0,0.027,0,0.05,0,0.079
		c0,0.218-0.049,0.487-0.193,0.662c-0.143,0.168-0.36,0.292-0.542,0.304c-0.167,0.009-0.358-0.064-0.505-0.195
		c-0.122-0.108-0.271-0.307-0.286-0.63C67.64,14.407,67.763,14.073,67.989,13.865z M65.469,14.208
		c0.065-0.224,0.281-0.263,0.3-0.263c0.082-0.017,0.201,0.007,0.277,0.099l-0.002-0.003l0.004,0.003h-0.002
		c0.079,0.082,0.095,0.197,0.11,0.33c0.002,0.043,0.006,0.143,0.01,0.227c0.072-0.256,0.161-0.46,0.288-0.656
		c0.073-0.083,0.188-0.151,0.293-0.17c0.155-0.03,0.299,0.065,0.376,0.239c0.035,0.064,0.057,0.177,0.081,0.297
		c0,0,0.005,0.018,0.005,0.021c0.057,0.354,0.372,2.074,0.393,2.135l-0.005,0.059c-0.019,0.034-0.063,0.069-0.103,0.078
		c-0.089,0.021-0.345-0.025-0.393-0.122c-0.02-0.044-0.03-0.123-0.033-0.228c-0.007-0.13-0.124-1.686-0.153-1.861
		c-0.027-0.131-0.075-0.194-0.139-0.186c-0.139,0.04-0.216,0.181-0.25,0.294c-0.104,0.283-0.15,0.546-0.229,1.242l-0.034,0.067
		l-0.008,0.019l-0.025,0.004c-0.072,0.006-0.212-0.033-0.232-0.045l-0.006-0.005l-0.005-0.004c-0.055-0.056-0.055-0.08-0.055-0.08
		c0-0.174,0-0.573-0.006-0.739c-0.026-0.392-0.078-0.48-0.094-0.495c-0.028-0.033-0.073-0.044-0.13-0.04
		c-0.043,0.009-0.082,0.023-0.117,0.041l-0.011,0.005h-0.01c-0.032,0-0.094-0.03-0.107-0.086
		C65.446,14.324,65.45,14.271,65.469,14.208z M63.757,13.725c0.018-0.041,0.079-0.087,0.142-0.108l0.087-0.021
		c0.081-0.014,0.195-0.04,0.324-0.077c0.146-0.037,0.241-0.07,0.32-0.095l0.134-0.045c0.042-0.013,0.094-0.01,0.129,0.012
		c0.028,0.015,0.045,0.04,0.05,0.067c0.014,0.061-0.041,0.124-0.083,0.147c-0.205,0.118-0.198,0.144-0.156,0.333l0.113,0.438
		l0.121,0.447l0.133,0.472l0.069,0.246c0.051,0.156,0.088,0.175,0.34,0.169c0.125,0,0.162,0.046,0.169,0.088l0,0l0.003,0.019
		l-0.003-0.019l-0.003,0.069c-0.022,0.055-0.095,0.091-0.135,0.105h-0.004l-0.335,0.074l-0.138,0.033l-0.28,0.097l-0.164,0.057
		c-0.076,0.018-0.172-0.002-0.183-0.062c-0.025-0.059,0.027-0.137,0.087-0.174c0.198-0.137,0.193-0.167,0.188-0.217
		c-0.014-0.086-0.152-0.682-0.252-1.016l-0.153-0.556c-0.09-0.333-0.109-0.341-0.354-0.334c-0.083,0.005-0.149-0.03-0.17-0.093
		L63.757,13.725z M63.006,13.881c0.037-0.067,0.109-0.113,0.164-0.13c0.086-0.023,0.184-0.008,0.27,0.039
		c0.09,0.054,0.158,0.144,0.188,0.253c0.011,0.039,0.017,0.078,0.017,0.113c0,0.072-0.02,0.142-0.057,0.21
		c-0.074,0.13-0.203,0.215-0.272,0.233c-0.048,0.011-0.099,0.007-0.128-0.014l-0.029-0.046v0.004
		c0.003,0.004,0.003,0.008,0.003,0.008l-0.001-0.004c0,0,0-0.002-0.002-0.004V14.54l0,0c-0.002-0.008-0.006-0.019-0.006-0.034
		c0-0.034,0.012-0.073,0.059-0.12l0.013-0.013c0.046-0.049,0.104-0.111,0.104-0.169c0,0,0-0.012-0.001-0.016
		c-0.015-0.051-0.101-0.036-0.11-0.034l-0.006,0.002h-0.004c-0.117,0-0.195-0.048-0.21-0.128
		C62.979,13.979,62.985,13.927,63.006,13.881z M56.495,17.835h26.075c0,11.703,0.765,19.436-10.354,30.676
		c-0.826,0.839-1.719,1.698-2.681,2.581c-0.968-0.883-1.864-1.742-2.693-2.581C55.729,37.271,56.495,29.538,56.495,17.835z
		 M55.459,38.21c0.077-0.187,0.153-0.355,0.229-0.489c0.03-0.062,0.089-0.127,0.131-0.127L55.798,37.6
		c0.037-0.018,0.08-0.02,0.127-0.005c0.078,0.025,0.157,0.084,0.186,0.142c0.012,0.023,0.02,0.097-0.019,0.16l-0.001,0.002
		c-0.083,0.112-0.329,0.393-0.422,0.494c-0.035,0.027-0.095,0.054-0.147,0.042c-0.033-0.006-0.058-0.025-0.072-0.051
		C55.421,38.329,55.439,38.253,55.459,38.21z M51.948,31.552l0.026-0.243c0.015-0.107,0.03-0.219,0.033-0.311l0.009-0.194
		l0.003-0.116c0.004-0.036,0.019-0.09,0.06-0.123c0.02-0.019,0.047-0.025,0.077-0.021c0.068,0.013,0.09,0.054,0.123,0.121
		l0.001,0.007c0.013,0.025,0.025,0.063,0.04,0.071l0.017-0.002l0.181-0.102c0.18-0.099,0.453-0.248,0.526-0.306
		c0,0,0.002-0.002,0.002-0.007c-0.238-0.226-0.543-0.453-0.597-0.492c-0.045-0.027-0.046-0.027-0.108,0.057
		c-0.056,0.074-0.096,0.101-0.152,0.101c-0.032-0.002-0.058-0.019-0.08-0.04c-0.015-0.025-0.025-0.056-0.025-0.095
		c0,0,0-0.019,0-0.032l0.04-0.33l0.005-0.408v-0.002c0.03-0.134,0.09-0.158,0.134-0.154c0.062,0.009,0.104,0.086,0.116,0.139
		c0.036,0.186,0.078,0.364,0.204,0.479c0.26,0.259,0.484,0.464,0.699,0.64c0,0,0.008,0.005,0.042-0.007
		c0.091-0.029,0.595-0.33,0.768-0.439c0.191-0.122,0.229-0.23,0.28-0.386l0.006-0.021c0.034-0.102,0.084-0.153,0.147-0.145
		l-0.004-0.003l0.011,0.003c0,0-0.002,0-0.006,0l0.061,0.026c0.023,0.023,0.035,0.064,0.035,0.119v0.012l-0.026,0.194l-0.031,0.242
		l-0.013,0.362l-0.004,0.055c-0.01,0.076-0.064,0.151-0.136,0.144c-0.072-0.005-0.096-0.073-0.11-0.124v-0.007l-0.002-0.006
		c-0.003-0.031-0.015-0.045-0.023-0.053c-0.006-0.001-0.021,0-0.048,0.02l-0.149,0.079c-0.137,0.074-0.427,0.229-0.465,0.27l0,0
		c0.189,0.167,0.36,0.306,0.503,0.414c0.055,0.041,0.076,0.045,0.082,0.042c0.01-0.003,0.03-0.021,0.062-0.099
		c0.019-0.053,0.047-0.129,0.114-0.121c-0.004-0.002-0.007-0.002-0.007-0.002h0.009l-0.002,0.002c0.029,0,0.059,0.022,0.078,0.048
		c0.018,0.021,0.038,0.051,0.038,0.08v0.01l-0.012,0.082l-0.022,0.221l-0.009,0.307l-0.007,0.173
		c-0.004,0.042-0.011,0.09-0.045,0.113l-0.058,0.016l0.003,0.002h0.006h-0.005h-0.001h-0.005l0.002-0.002
		c-0.063-0.005-0.132-0.068-0.135-0.167c-0.03-0.203-0.106-0.344-0.263-0.494c-0.14-0.137-0.357-0.327-0.531-0.478l-0.008-0.005
		c-0.009-0.007-0.015-0.008-0.032,0c-0.084,0.033-0.749,0.422-0.871,0.51c-0.137,0.097-0.232,0.178-0.292,0.408
		c-0.044,0.128-0.105,0.149-0.151,0.146c-0.03-0.002-0.107-0.025-0.107-0.154C51.945,31.566,51.948,31.559,51.948,31.552z
		 M52.004,32.583c0-0.109,0.042-0.183,0.114-0.28c-0.278,0.021-0.54,0.062-0.671,0.084l-0.085,0.013
		c-0.09,0.008-0.164,0.028-0.212,0.057l-0.025,0.008l-0.018-0.005c-0.035-0.008-0.087-0.065-0.096-0.091l-0.004-0.008v-0.025
		c-0.002-0.048-0.004-0.143,0.022-0.222c0.033-0.074,0.152-0.119,0.216-0.119c0.026-0.003,0.224-0.01,0.567-0.021
		c0,0,0.938-0.032,0.937-0.032c0.398-0.026,0.656,0.053,0.837,0.251c0.104,0.116,0.156,0.297,0.158,0.411
		c0.008,0.17-0.052,0.334-0.176,0.47c-0.158,0.173-0.4,0.285-0.649,0.298c-0.32,0.019-0.519-0.104-0.667-0.227h-0.003
		c-0.2-0.173-0.235-0.417-0.241-0.513C52.004,32.616,52.004,32.597,52.004,32.583z M52.098,34.074
		c-0.003-0.017-0.003-0.032-0.003-0.049c0-0.093,0.037-0.167,0.104-0.213c0.103-0.081,0.295-0.108,0.329-0.107l0.656-0.091
		l0.518-0.07c0.033-0.009,0.073,0,0.103,0.023c0.019,0.019,0.031,0.039,0.029,0.053c0.006,0.041,0.021,0.231,0.021,0.269
		c0,0.075-0.089,0.096-0.158,0.105c-0.108,0.01-0.313,0.016-0.53,0.025c-0.225,0.006-0.461,0.015-0.56,0.026
		c-0.04,0.005-0.063,0.011-0.073,0.024c-0.012,0.016-0.016,0.054-0.005,0.116c0.007,0.042,0.015,0.064,0.036,0.101v0.004
		l0.002,0.005c0.006,0.02,0,0.043-0.019,0.059c-0.03,0.023-0.107,0.042-0.145,0.029c0.004,0,0.004,0.002,0.004,0.002l-0.005-0.002
		h0.001C52.224,34.333,52.108,34.157,52.098,34.074z M52.298,35.274c-0.036-0.148,0.006-0.336,0.105-0.491
		c0.081-0.125,0.239-0.291,0.529-0.354c0.313-0.063,0.628,0,0.844,0.174c0.123,0.099,0.215,0.255,0.235,0.333l0.011,0.058
		c0.029,0.153,0.102,0.515,0.126,0.689c0.027,0.172,0.066,0.209,0.126,0.278c0.015,0.016,0.02,0.034,0.013,0.053
		c-0.006,0.034-0.044,0.069-0.071,0.081l-0.005,0.002h-0.004c-0.058,0.01-0.237-0.009-0.3-0.025l0,0h-0.004c0.002,0,0.004,0,0.004,0
		c-0.067-0.013-0.116-0.107-0.118-0.143l-0.021-0.134c0,0-0.032-0.19-0.04-0.246c-0.083,0.075-0.251,0.218-0.381,0.246
		c-0.257,0.054-0.525,0.023-0.696-0.079C52.468,35.61,52.329,35.435,52.298,35.274z M52.873,37.503
		c-0.006-0.021-0.012-0.048-0.012-0.078c0-0.096,0.067-0.229,0.36-0.33c0.145-0.047,0.481-0.097,0.812-0.143
		c0,0,0.078-0.013,0.114-0.018c-0.012-0.035-0.037-0.115-0.037-0.115l-0.038-0.115c-0.012-0.042-0.06-0.171-0.266-0.225
		c-0.032-0.013-0.099-0.045-0.108-0.091c-0.006-0.01-0.007-0.019-0.007-0.031c0-0.063,0.076-0.089,0.105-0.098
		c0.087-0.033,0.252-0.018,0.376,0.054c0.122,0.073,0.25,0.222,0.287,0.329l0.11,0.384l0.138,0.464
		c0.013,0.038,0.064,0.113,0.116,0.141l0.005,0.002l0.003,0.003c0.017,0.016,0.023,0.039,0.017,0.062
		c-0.011,0.033-0.051,0.078-0.084,0.084l-0.005,0.002h-0.004c-0.055,0-0.24-0.011-0.299-0.035c-0.054-0.02-0.12-0.125-0.137-0.163
		l-0.072-0.266c0,0-0.025-0.094-0.034-0.133l-0.012-0.002c-0.187,0.012-0.558,0.102-0.745,0.161
		c-0.006,0.004-0.029,0.025-0.052,0.065c-0.011,0.025-0.032,0.076-0.015,0.125l0.006,0.016c0.019,0.048,0.034,0.089,0.06,0.124
		c0.016,0.012,0.019,0.034,0.014,0.055c-0.014,0.038-0.07,0.084-0.12,0.093C53.134,37.839,52.928,37.669,52.873,37.503z
		 M53.445,39.021c-0.045-0.104-0.058-0.293,0.042-0.52c0.094-0.198,0.263-0.361,0.471-0.459c0.228-0.091,0.431-0.109,0.661-0.057
		c0.261,0.067,0.439,0.282,0.49,0.406c0.061,0.13,0.074,0.266,0.036,0.418v0.001c-0.067,0.261-0.263,0.48-0.536,0.597
		c-0.31,0.141-0.595,0.072-0.734,0.02C53.654,39.348,53.492,39.133,53.445,39.021z M54.78,40.862
		c-0.049,0.079-0.12,0.145-0.21,0.196c-0.169,0.095-0.419,0.122-0.619,0.067c-0.123-0.038-0.215-0.099-0.264-0.189
		c-0.014-0.031-0.022-0.066-0.022-0.104c0-0.024,0.004-0.051,0.008-0.079c0.03-0.077,0.084-0.131,0.138-0.14l-0.007,0.003
		l0.01-0.003H53.81c0.041-0.012,0.073-0.005,0.13,0.047c0.165,0.175,0.393,0.246,0.438,0.22c0.01-0.007,0.026-0.02,0.029-0.035
		c0.003-0.004,0.004-0.014-0.003-0.028l-0.061-0.096l-0.159-0.246c-0.05-0.095-0.057-0.24-0.044-0.308
		c0.019-0.068,0.099-0.302,0.421-0.481c0.328-0.181,0.69-0.143,0.897-0.055c0.277,0.114,0.392,0.234,0.479,0.373
		c0.025,0.051,0.038,0.099,0.038,0.146c0,0.069-0.031,0.13-0.092,0.166c0.001-0.002,0.002-0.004,0.008-0.006l-0.015,0.011
		l0.007-0.004c-0.039,0.03-0.131,0.034-0.162,0.025h0.002h-0.013h0.011c-0.039-0.002-0.074-0.027-0.09-0.065l0.005,0.01
		c-0.21-0.321-0.608-0.549-0.911-0.377c-0.1,0.053-0.154,0.112-0.173,0.178c-0.021,0.069,0,0.153,0.059,0.256
		c0.031,0.061,0.13,0.229,0.176,0.298l0.002,0.005l0.002,0.003C54.822,40.715,54.812,40.816,54.78,40.862z M54.769,37.708
		L54.769,37.708l0.009,0.006C54.776,37.712,54.773,37.71,54.769,37.708z M85.847,15.212l-0.009,0.011
		c-0.053,0.047-0.08,0.112-0.08,0.187c-0.001,0.119,0.062,0.246,0.17,0.357c0.187,0.19,0.412,0.238,0.548,0.106l0.002-0.004
		c0.133-0.132,0.095-0.361-0.091-0.552C86.204,15.127,85.979,15.084,85.847,15.212z M87.145,15.121l0.009-0.006
		c0.048-0.046,0.076-0.111,0.076-0.185v-0.002c0-0.099-0.052-0.202-0.135-0.292c-0.092-0.091-0.198-0.143-0.298-0.143
		c-0.071-0.001-0.132,0.024-0.18,0.072l-0.007,0.006c0,0,0,0-0.002,0c-0.058,0.058-0.085,0.129-0.085,0.203
		c0,0.096,0.045,0.202,0.13,0.288C86.81,15.219,87.015,15.243,87.145,15.121z M58.472,10.712c0.199,0.402,0.636,0.566,1.02,0.384
		c0.271-0.132,0.419-0.384,0.419-0.663c0-0.118-0.027-0.239-0.08-0.358h-0.006l-0.006-0.013c-0.194-0.403-0.632-0.568-1.019-0.383
		c-0.181,0.09-0.312,0.23-0.374,0.413c-0.03,0.08-0.044,0.164-0.044,0.247c0,0.123,0.031,0.249,0.087,0.369L58.472,10.712z
		 M69.535,58.004c14.442,0,26.156-11.715,26.156-26.158C95.691,17.4,83.978,5.69,69.535,5.69c-14.448,0-26.166,11.709-26.166,26.156
		C43.369,46.29,55.087,58.004,69.535,58.004z M54.247,51.655c0,0,0.575-0.716,0.602-0.752c-0.037-0.029-0.781-0.623-0.814-0.65
		c-0.029,0.036-0.6,0.753-0.6,0.753l-0.351-0.282l1.459-1.823l0.348,0.285c0,0-0.56,0.704-0.591,0.741
		c0.038,0.027,0.774,0.62,0.811,0.647c0.029-0.036,0.592-0.742,0.592-0.742l0.353,0.28L54.6,51.936L54.247,51.655z M57.204,53.629
		l-0.405-0.25c0,0,0.094-0.561,0.099-0.59c-0.027-0.017-0.862-0.54-0.89-0.559c-0.024,0.02-0.493,0.343-0.493,0.343l-0.39-0.244
		l2.11-1.449l0.346,0.214L57.204,53.629z M59.462,54.727c0,0,0.609-1.304,0.671-1.435c-0.121,0.072-1.06,0.64-1.06,0.64
		l-0.029-0.028c0,0-0.16-1.058-0.179-1.198c-0.064,0.132-0.671,1.427-0.671,1.427l-0.401-0.186l0.993-2.11l0.417,0.196
		c0,0,0.161,1.176,0.17,1.245c0.062-0.035,1.069-0.668,1.069-0.668l0.413,0.195l-0.982,2.116L59.462,54.727z M61.103,55.267
		c-0.122,0.342-0.341,0.452-0.688,0.352l-0.018-0.007l0.026-0.21l0.023,0.002c0.179,0.025,0.285-0.028,0.33-0.156
		c-0.033-0.014-0.159-0.062-0.159-0.062l0.172-0.461l0.453,0.162L61.103,55.267z M65.317,56.474l-0.439-0.087
		c0,0,0.302-1.405,0.335-1.55c-0.102,0.099-0.885,0.858-0.885,0.858l-0.038-0.01c0,0-0.399-1.004-0.45-1.135
		c-0.032,0.141-0.332,1.542-0.332,1.542l-0.432-0.092l0.491-2.285l0.456,0.099c0,0,0.418,1.111,0.445,1.18
		c0.05-0.051,0.887-0.896,0.887-0.896l0.457,0.101L65.317,56.474z M67.947,56.768c0,0-0.177-0.545-0.187-0.576
		c-0.029-0.002-1.012-0.089-1.044-0.092c-0.013,0.025-0.278,0.53-0.278,0.53l-0.464-0.046l1.237-2.247l0.402,0.041l0.81,2.429
		L67.947,56.768z M70.695,56.114c0.006,0.188-0.055,0.352-0.174,0.474c-0.146,0.154-0.379,0.241-0.653,0.244
		c-0.366,0-0.696-0.12-0.976-0.358l-0.021-0.016l0.275-0.326l0.019,0.017c0.238,0.199,0.448,0.282,0.703,0.276
		c0.235,0,0.379-0.103,0.379-0.271c0-0.144-0.074-0.23-0.498-0.32c-0.506-0.118-0.784-0.264-0.788-0.702
		c0-0.405,0.327-0.693,0.795-0.701c0.321,0,0.599,0.092,0.848,0.282l0.019,0.014l-0.245,0.35l-0.019-0.017
		c-0.195-0.149-0.399-0.223-0.605-0.221c-0.122,0-0.223,0.036-0.284,0.099c-0.042,0.044-0.06,0.094-0.06,0.154
		c0.004,0.158,0.08,0.227,0.527,0.334c0.54,0.126,0.758,0.322,0.758,0.678V56.114z M72.253,56.684
		c-0.361,0.037-0.71-0.054-1.01-0.264l-0.016-0.015l0.234-0.352l0.019,0.013c0.258,0.179,0.474,0.247,0.733,0.217
		c0.231-0.028,0.367-0.141,0.354-0.302v-0.009c-0.016-0.141-0.1-0.217-0.536-0.272c-0.502-0.06-0.798-0.182-0.847-0.618v-0.007
		c-0.021-0.174,0.024-0.336,0.131-0.471c0.133-0.161,0.341-0.267,0.595-0.293c0.329-0.035,0.613,0.031,0.875,0.2l0.018,0.014
		l-0.206,0.362l-0.019-0.013c-0.229-0.132-0.435-0.182-0.633-0.164c-0.207,0.028-0.336,0.144-0.316,0.289
		c0.018,0.152,0.097,0.221,0.554,0.282c0.547,0.065,0.784,0.242,0.825,0.606v0.009C73.054,56.318,72.754,56.629,72.253,56.684z
		 M75.515,56.086c0,0-0.323-0.468-0.34-0.493c-0.033,0.007-1.001,0.214-1.03,0.218c-0.005,0.032-0.113,0.596-0.113,0.596
		l-0.454,0.096l0.516-2.515l0.39-0.086l1.497,2.085L75.515,56.086z M78.289,54.846c-0.135,0.271-0.319,0.542-0.772,0.685
		c-0.304,0.104-0.623,0.081-0.898-0.056c-0.285-0.142-0.499-0.393-0.604-0.709l-0.002-0.004c-0.213-0.653,0.116-1.31,0.766-1.526
		c0.356-0.114,0.647-0.095,0.978,0.058l0.019,0.011l-0.168,0.41l-0.023-0.01c-0.256-0.117-0.465-0.14-0.678-0.067
		c-0.396,0.128-0.589,0.547-0.448,0.965c0,0,0.002,0.007,0.004,0.012c0.14,0.425,0.54,0.65,0.937,0.521
		c0.255-0.088,0.39-0.25,0.519-0.482l0.011-0.02l0.374,0.191L78.289,54.846z M80.42,54.312c0,0-0.382-0.834-0.404-0.877
		c-0.041,0.021-0.901,0.416-0.942,0.435c0.021,0.044,0.402,0.871,0.402,0.871l-0.411,0.193l-0.977-2.121l0.406-0.194
		c0,0,0.382,0.825,0.403,0.867c0.041-0.018,0.902-0.412,0.943-0.433c-0.016-0.042-0.396-0.863-0.396-0.863l0.41-0.186l0.975,2.122
		L80.42,54.312z M82.438,53.253c-0.541,0.324-1.047,0.189-1.385-0.369l-0.69-1.147l0.383-0.233l0.681,1.134
		c0.212,0.346,0.499,0.436,0.802,0.252c0.142-0.085,0.231-0.194,0.265-0.323c0.036-0.141-0.002-0.307-0.109-0.484l-0.692-1.142
		l0.386-0.236l0.679,1.128C83.1,52.405,82.984,52.921,82.438,53.253z M84.634,51.761c-0.287,0.216-0.631,0.316-0.994,0.29
		l-0.026-0.003l0.026-0.428l0.023,0.003c0.302,0.022,0.53-0.039,0.737-0.194c0.107-0.08,0.176-0.175,0.188-0.263
		c0.012-0.062-0.003-0.121-0.047-0.176c-0.091-0.12-0.196-0.14-0.596,0.037c-0.475,0.208-0.778,0.253-1.042-0.095l-0.008-0.01
		c-0.085-0.116-0.131-0.246-0.131-0.383c0-0.029,0.002-0.059,0.007-0.086c0.027-0.208,0.152-0.407,0.355-0.558
		c0.258-0.2,0.536-0.288,0.85-0.275l0.021,0.002l0.013,0.417h-0.025c-0.251,0-0.459,0.061-0.624,0.181
		c-0.098,0.077-0.158,0.166-0.167,0.251c-0.003,0.01-0.003,0.017-0.003,0.026c0,0.044,0.016,0.09,0.047,0.125l0.006,0.006v0.012
		c0.095,0.114,0.203,0.122,0.618-0.053c0.5-0.223,0.79-0.195,1.007,0.091c0.002,0.002,0.012,0.008,0.012,0.008l0.001,0.002
		c0.097,0.125,0.143,0.263,0.143,0.401C85.025,51.326,84.892,51.565,84.634,51.761z M85.877,50.749l-1.605-1.695l1.265-1.201
		l0.283,0.299c0,0-0.906,0.856-0.941,0.89c0.027,0.031,0.345,0.364,0.377,0.396c0.034-0.033,0.831-0.789,0.831-0.789l0.284,0.293
		c0,0-0.803,0.758-0.839,0.79c0.031,0.032,0.359,0.38,0.391,0.411c0.034-0.031,0.948-0.901,0.948-0.901l0.283,0.291L85.877,50.749z
		 M88.067,48.584c0,0-1.392-1.244-1.427-1.273c-0.03,0.034-0.483,0.542-0.483,0.542l-0.312-0.286l1.266-1.418l0.315,0.28
		c0,0-0.452,0.509-0.483,0.545c0.035,0.029,1.427,1.275,1.427,1.275L88.067,48.584z M89.625,46.703c0,0-1.502-1.106-1.54-1.136
		c-0.028,0.036-0.434,0.587-0.434,0.587l-0.341-0.25l1.123-1.535l0.348,0.248c0,0-0.405,0.551-0.433,0.588
		c0.037,0.026,1.541,1.136,1.541,1.136L89.625,46.703z M93.359,30.95c0.576,0,1.039,0.465,1.039,1.042
		c0,0.572-0.463,1.038-1.039,1.038c-0.575,0-1.041-0.466-1.041-1.038C92.318,31.415,92.784,30.95,93.359,30.95z M91.129,44.51
		c-0.187,0.307-0.468,0.531-0.82,0.641l-0.021,0.006l-0.137-0.398l0.022-0.01c0.294-0.098,0.479-0.238,0.603-0.457
		c0.057-0.092,0.087-0.183,0.087-0.261c0-0.023-0.004-0.046-0.009-0.067c-0.016-0.054-0.048-0.103-0.097-0.132h-0.005l-0.007-0.005
		c-0.126-0.071-0.234-0.054-0.535,0.257c-0.354,0.368-0.634,0.539-1.006,0.309c-0.158-0.089-0.264-0.229-0.305-0.397
		c-0.051-0.201-0.009-0.43,0.12-0.642c0.174-0.286,0.396-0.475,0.685-0.577l0.022-0.011l0.168,0.388l-0.022,0.009
		c-0.231,0.096-0.405,0.23-0.509,0.399c-0.103,0.179-0.089,0.352,0.036,0.423l0.008,0.006c0.125,0.078,0.229,0.055,0.557-0.277
		c0.383-0.394,0.665-0.48,0.983-0.293C91.312,43.639,91.386,44.067,91.129,44.51z M89.461,18.178l0.006-0.007
		c0.183-0.114,0.398-0.151,0.603-0.105c0.222,0.05,0.42,0.198,0.554,0.411c0.147,0.236,0.191,0.444,0.137,0.69
		c-0.065,0.27-0.257,0.495-0.6,0.709l-0.01,0.005c-0.355,0.227-0.727,0.313-1.034,0.245c-0.236-0.054-0.433-0.198-0.57-0.418
		c-0.151-0.244-0.202-0.49-0.16-0.779l0.003-0.025l0.423,0.021l-0.004,0.025c-0.026,0.236,0,0.392,0.096,0.547
		c0.152,0.242,0.467,0.28,0.811,0.101c-0.177-0.038-0.337-0.15-0.439-0.322c-0.107-0.16-0.16-0.335-0.16-0.497
		c0-0.053,0.003-0.105,0.014-0.153C89.171,18.441,89.283,18.285,89.461,18.178z M88.076,16.105l0.002-0.011l0.009-0.006
		c0.295-0.221,0.721-0.118,1.015,0.246c0.284,0.367,0.283,0.817-0.004,1.047c-0.172,0.136-0.371,0.156-0.591,0.069
		c0.014,0.069,0.025,0.137,0.025,0.194c0,0.186-0.071,0.333-0.207,0.441v0.01l-0.011,0.008c-0.324,0.247-0.765,0.135-1.103-0.282
		c-0.183-0.231-0.271-0.486-0.246-0.716c0.021-0.164,0.098-0.305,0.224-0.408l0.01-0.008c0.201-0.156,0.425-0.168,0.68-0.041
		c-0.007-0.039-0.013-0.077-0.013-0.111C87.866,16.357,87.938,16.215,88.076,16.105z M86.332,14.24l0.004-0.014h0.006
		c0.109-0.105,0.251-0.163,0.411-0.158c0.213,0.004,0.437,0.112,0.614,0.298c0.178,0.181,0.281,0.407,0.281,0.619v0.004
		c0,0.163-0.06,0.303-0.17,0.409c0,0-0.006,0.007-0.01,0.007c-0.157,0.153-0.345,0.194-0.572,0.133
		c0.031,0.093,0.046,0.177,0.046,0.258c0,0.157-0.054,0.292-0.172,0.402c-0.295,0.287-0.747,0.223-1.118-0.162
		c-0.21-0.211-0.321-0.457-0.319-0.688c0-0.164,0.066-0.312,0.182-0.425l0.002-0.004c0.182-0.177,0.403-0.213,0.669-0.116
		c-0.018-0.059-0.026-0.118-0.026-0.175C86.159,14.479,86.22,14.348,86.332,14.24z M85.003,12.985l0.172-0.35l0.62,0.263
		l0.232,0.203l-1.535,1.781l-0.338-0.292c0,0,1.189-1.386,1.23-1.433C85.333,13.137,85.003,12.985,85.003,12.985z M83.532,11.162
		l-0.212,0.344c0,0-1.055-0.662-1.095-0.688c-0.024,0.035-0.269,0.427-0.293,0.462c0.04,0.025,0.972,0.608,0.972,0.608l-0.217,0.343
		c0,0-0.93-0.582-0.969-0.608c-0.022,0.036-0.279,0.44-0.304,0.478c0.044,0.024,1.111,0.699,1.111,0.699l-0.22,0.349l-1.492-0.942
		l1.249-1.97L83.532,11.162z M78.638,9.827V9.825l0.002-0.002l0.003-0.007c0.286-0.603,0.987-0.858,1.596-0.576
		c0.339,0.163,0.536,0.355,0.676,0.668l0.01,0.021l-0.401,0.189l-0.008-0.021c-0.095-0.205-0.21-0.361-0.465-0.482
		c-0.36-0.167-0.79,0.006-0.98,0.393v0.006l-0.002,0.005c-0.061,0.124-0.091,0.256-0.091,0.38c0,0.083,0.015,0.166,0.042,0.242
		c0.064,0.183,0.201,0.326,0.396,0.418c0.175,0.083,0.372,0.108,0.538,0.075c0.011-0.022,0.148-0.316,0.167-0.354
		c-0.042-0.021-0.528-0.248-0.528-0.248l0.174-0.359l0.92,0.438l-0.421,0.894l-0.008,0.004c-0.248,0.07-0.627,0.109-1.036-0.086
		c-0.313-0.146-0.538-0.379-0.642-0.671C78.472,10.46,78.492,10.135,78.638,9.827z M76.609,7.87l1.651,0.553L78.13,8.814
		c0,0-1.18-0.395-1.226-0.41c-0.013,0.042-0.156,0.476-0.168,0.516c0.043,0.016,1.085,0.364,1.085,0.364L77.69,9.667
		c0,0-1.041-0.346-1.086-0.36c-0.014,0.04-0.166,0.499-0.176,0.536c0.043,0.018,1.24,0.411,1.24,0.411l-0.131,0.393l-1.665-0.558
		L76.609,7.87z M74.089,7.268l0.432,0.102c0,0-0.396,1.828-0.404,1.872c0.045,0.011,1.174,0.255,1.174,0.255L75.203,9.9
		l-1.611-0.349L74.089,7.268z M71.516,6.927l0.456,0.05c0,0-0.217,1.857-0.219,1.905c0.044,0.005,1.19,0.132,1.19,0.132
		l-0.044,0.411l-1.637-0.18L71.516,6.927z M68.062,8.034c-0.002-0.328,0.118-0.633,0.341-0.859c0.223-0.229,0.536-0.357,0.874-0.359
		c0.334-0.002,0.642,0.116,0.867,0.335c0.229,0.223,0.355,0.526,0.357,0.858c0.002,0.329-0.122,0.635-0.348,0.863
		c-0.222,0.228-0.529,0.354-0.863,0.355c-0.337,0.002-0.647-0.116-0.874-0.341c-0.227-0.221-0.352-0.522-0.354-0.85V8.034z
		 M66.295,7.018c0.375-0.052,0.667,0.022,0.952,0.236l0.018,0.014l-0.242,0.369l-0.02-0.013c-0.23-0.162-0.433-0.221-0.656-0.188
		c-0.188,0.021-0.352,0.116-0.465,0.262c-0.127,0.165-0.181,0.383-0.152,0.608c0.064,0.448,0.42,0.746,0.827,0.688
		c0.284-0.04,0.442-0.177,0.595-0.374l0.014-0.019l0.331,0.253l-0.016,0.02c-0.234,0.322-0.496,0.482-0.876,0.537
		c-0.671,0.088-1.246-0.356-1.336-1.034h-0.004C65.174,7.689,65.62,7.106,66.295,7.018z M61.122,8.284c0,0,1.494,1.016,1.604,1.091
		c-0.041-0.125-0.474-1.458-0.474-1.458l0.422-0.145l0.726,2.219l-0.355,0.121c0,0-1.541-1.044-1.651-1.12
		c0.039,0.125,0.494,1.503,0.494,1.503l-0.428,0.132l-0.728-2.216L61.122,8.284z M57.988,9.992c0.105-0.302,0.334-0.547,0.637-0.692
		c0.617-0.305,1.313-0.071,1.618,0.541l0.002,0.003c0,0,0,0.017,0,0.021c0.083,0.176,0.124,0.356,0.124,0.531
		c0,0.444-0.253,0.86-0.701,1.078c-0.305,0.147-0.638,0.17-0.934,0.064c-0.295-0.103-0.533-0.32-0.673-0.608l-0.008-0.006
		l-0.007-0.008c-0.083-0.171-0.124-0.352-0.124-0.533C57.923,10.25,57.946,10.118,57.988,9.992z M55.664,11.036
		c0.597-0.393,1.299-0.271,1.676,0.292c0.173,0.264,0.231,0.569,0.173,0.866c-0.065,0.314-0.268,0.593-0.566,0.791l-0.728,0.484
		l-1.285-1.944L55.664,11.036z M53.429,12.718c0.216-0.19,0.448-0.278,0.667-0.259c0.181,0.017,0.349,0.107,0.479,0.262l0.004,0.005
		c0.12,0.143,0.181,0.296,0.181,0.462c0,0.138-0.042,0.278-0.125,0.419c0.058,0.016,1.047,0.266,1.047,0.266l-0.408,0.343
		c0,0-0.926-0.239-0.949-0.245c-0.011,0.008-0.32,0.273-0.354,0.301c0.032,0.034,0.518,0.611,0.518,0.611l-0.341,0.289l-1.511-1.776
		L53.429,12.718z M51.02,14.981c0.469-0.506,1.204-0.543,1.711-0.083c0.494,0.454,0.526,1.208,0.069,1.714
		c-0.232,0.251-0.537,0.398-0.854,0.411c-0.311,0.01-0.612-0.102-0.848-0.32l-0.008-0.004l-0.002-0.001
		c-0.241-0.217-0.38-0.515-0.397-0.83c0-0.017,0-0.039,0-0.055C50.689,15.509,50.805,15.219,51.02,14.981z M49.005,17.5
		c0.217-0.312,0.44-0.472,0.769-0.553l0.022-0.007l0.121,0.431l-0.025,0.005c-0.214,0.053-0.381,0.133-0.554,0.376
		c-0.082,0.115-0.122,0.248-0.122,0.383c0,0.239,0.125,0.483,0.354,0.646h0.008l0.007,0.004c0.189,0.133,0.4,0.186,0.601,0.152
		c0.189-0.034,0.354-0.143,0.474-0.318c0.107-0.151,0.168-0.328,0.168-0.488c0-0.012-0.002-0.023-0.002-0.036
		c-0.019-0.01-0.282-0.2-0.317-0.223c-0.026,0.037-0.336,0.478-0.336,0.478l-0.328-0.227l0.581-0.835l0.821,0.562l0.002,0.011
		c0.021,0.258-0.002,0.642-0.255,1.008c-0.396,0.575-1.102,0.704-1.679,0.313l-0.004-0.004c0,0-0.004-0.008-0.004-0.011
		c-0.265-0.18-0.444-0.45-0.5-0.762c-0.015-0.07-0.02-0.141-0.02-0.213C48.786,17.951,48.863,17.71,49.005,17.5z M69.535,10.391
		c11.847,0,21.454,9.605,21.454,21.455c0,11.854-9.607,21.454-21.454,21.454c-11.852,0-21.457-9.601-21.457-21.454
		C48.078,19.996,57.683,10.391,69.535,10.391z M45.743,33.03c-0.574,0-1.043-0.466-1.043-1.038c0-0.577,0.469-1.042,1.043-1.042
		c0.574,0,1.043,0.465,1.043,1.042C46.786,32.563,46.316,33.03,45.743,33.03z M48.312,45.23c0,0,0.995-1.195,1.079-1.296
		c-0.129,0.028-1.641,0.365-1.641,0.365l-0.2-0.327l1.584-1.919l0.252,0.419c0,0-1.038,1.193-1.125,1.298
		c0.134-0.031,1.691-0.394,1.691-0.394l0.187,0.324c0,0-1.031,1.211-1.119,1.317c0.132-0.032,1.67-0.404,1.67-0.404l0.252,0.408
		l-2.432,0.528L48.312,45.23z M50.487,48.135l-1.096-1.374l1.814-1.459l1.094,1.359l-0.315,0.252c0,0-0.779-0.968-0.809-1.005
		c-0.034,0.029-0.394,0.313-0.427,0.341c0.031,0.037,0.722,0.895,0.722,0.895l-0.318,0.249c0,0-0.692-0.85-0.721-0.887
		c-0.034,0.029-0.411,0.325-0.442,0.354c0.029,0.037,0.823,1.018,0.823,1.018L50.487,48.135z M52.644,47.049l0.289,0.289
		c0,0-0.234,1.79-0.251,1.922c0.093-0.092,1.088-1.084,1.088-1.084l0.313,0.319l-1.656,1.646l-0.262-0.265
		c0,0,0.239-1.851,0.257-1.983c-0.089,0.094-1.119,1.117-1.119,1.117l-0.311-0.318L52.644,47.049z M52.493,16.326
		c0.13-0.143,0.192-0.314,0.192-0.49c0-0.209-0.09-0.422-0.267-0.586l0,0h-0.002l-0.009-0.008c-0.16-0.147-0.37-0.225-0.581-0.214
		c-0.191,0.013-0.369,0.096-0.502,0.242c-0.14,0.154-0.207,0.344-0.199,0.537c0.014,0.207,0.11,0.397,0.274,0.547
		C51.735,16.653,52.203,16.642,52.493,16.326z M54.129,39.093c0.151,0.046,0.36,0.024,0.529-0.053
		c0.039-0.019,0.073-0.041,0.106-0.069c0.034-0.034,0.085-0.104,0.085-0.197c0-0.037-0.009-0.074-0.025-0.117
		c-0.073-0.161-0.2-0.271-0.376-0.333c-0.133-0.042-0.299-0.033-0.446,0.031c-0.067,0.027-0.226,0.105-0.229,0.272
		c-0.008,0.069,0.005,0.12,0.029,0.173C53.853,38.908,53.951,39.042,54.129,39.093z M56.719,12.638
		c0.189-0.122,0.312-0.292,0.352-0.484c0.009-0.046,0.015-0.09,0.015-0.135c0-0.146-0.049-0.292-0.137-0.429
		c-0.116-0.179-0.286-0.296-0.473-0.334c-0.192-0.041-0.396,0.004-0.585,0.128c0,0-0.317,0.208-0.352,0.235
		c0.023,0.037,0.802,1.217,0.827,1.256C56.404,12.852,56.719,12.638,56.719,12.638z M40.972,36.24l-0.007,0.004
		c0.466,0.439,0.76,1.062,0.76,1.763c0,0.343-0.07,0.676-0.205,0.975l0.008,0.006c-0.609,1.427-0.674,3.078-0.032,4.619
		c0.636,1.545,1.844,2.668,3.28,3.242l-0.005,0.007c0.599,0.229,1.107,0.691,1.372,1.333c0.13,0.319,0.19,0.653,0.183,0.982h0.015
		c-0.023,1.547,0.547,3.095,1.734,4.284c1.177,1.184,2.729,1.757,4.27,1.738v0.004c0.647-0.01,1.284,0.221,1.773,0.711
		c0.246,0.239,0.434,0.531,0.547,0.835l0.007-0.004c0.573,1.439,1.703,2.65,3.248,3.297c1.544,0.634,3.198,0.571,4.621-0.036
		l0.006,0.008c0.585-0.257,1.262-0.287,1.9-0.024c0.319,0.131,0.599,0.33,0.819,0.566l0.009-0.008
		c1.082,1.114,2.589,1.799,4.261,1.799c1.669,0,3.186-0.685,4.26-1.801l0.003,0.002c0.441-0.458,1.055-0.741,1.743-0.741
		c0.349,0,0.68,0.07,0.984,0.212l0.002-0.012c1.422,0.607,3.071,0.67,4.621,0.036c1.544-0.646,2.673-1.858,3.252-3.306
		c0.233-0.589,0.692-1.085,1.322-1.344c0.326-0.138,0.663-0.194,0.994-0.179l0.005-0.015c1.542,0.019,3.092-0.554,4.271-1.738
		c1.184-1.188,1.76-2.747,1.737-4.296h0.002c-0.008-0.634,0.227-1.269,0.706-1.75c0.255-0.25,0.55-0.435,0.856-0.556v-0.007
		c1.434-0.571,2.639-1.697,3.272-3.237c0.642-1.549,0.578-3.21-0.036-4.632l0.008-0.004c-0.254-0.582-0.278-1.258-0.022-1.886
		c0.142-0.335,0.345-0.615,0.586-0.844l-0.005-0.01c1.1-1.076,1.781-2.572,1.781-4.238c0-1.676-0.697-3.185-1.811-4.266l0.009-0.004
		c-0.456-0.438-0.744-1.056-0.744-1.738c0-0.362,0.084-0.701,0.227-1.005l-0.005-0.009c0.591-1.416,0.648-3.055,0.013-4.593
		c-0.638-1.542-1.854-2.667-3.297-3.241l0.006-0.011c-0.593-0.233-1.091-0.69-1.354-1.324c-0.146-0.334-0.197-0.676-0.186-1.021
		h-0.006c0.006-1.536-0.568-3.071-1.737-4.243c-1.184-1.188-2.734-1.76-4.281-1.738V8.786c-0.64,0.013-1.279-0.215-1.77-0.704
		c-0.253-0.25-0.439-0.552-0.558-0.869h-0.009c-0.58-1.424-1.7-2.62-3.231-3.255c-1.537-0.644-3.194-0.575-4.612,0.025l-0.006-0.008
		c-0.585,0.26-1.27,0.292-1.904,0.027c-0.335-0.136-0.618-0.341-0.848-0.587L73.763,3.42c-1.077-1.095-2.569-1.775-4.228-1.775
		c-1.672,0-3.168,0.687-4.25,1.792l-0.01-0.01c-0.436,0.468-1.059,0.761-1.753,0.761c-0.362,0-0.696-0.084-1.002-0.221l-0.005,0.013
		c-1.418-0.597-3.06-0.659-4.596-0.025c-1.535,0.639-2.658,1.848-3.24,3.272l-0.007-0.002C54.444,7.831,53.98,8.34,53.334,8.6
		c-0.327,0.139-0.669,0.198-1.002,0.186v0.013c-1.54-0.013-3.082,0.561-4.254,1.738c-1.182,1.172-1.759,2.722-1.738,4.256h-0.015
		c0.021,0.645-0.215,1.292-0.705,1.786c-0.251,0.255-0.539,0.436-0.856,0.549l0.011,0.015c-1.437,0.572-2.644,1.702-3.28,3.234
		c-0.639,1.538-0.582,3.186,0.024,4.603l-0.013,0.006c0.271,0.59,0.3,1.279,0.032,1.916c-0.13,0.331-0.332,0.603-0.567,0.827
		l0.006,0.014c-1.104,1.077-1.793,2.586-1.793,4.25C39.185,33.661,39.87,35.158,40.972,36.24z M69.535,4.966
		c14.845,0,26.883,12.035,26.883,26.88c0,14.848-12.038,26.883-26.883,26.883c-14.844,0-26.885-12.035-26.885-26.883
		C42.65,17.001,54.691,4.966,69.535,4.966z"/>
</g>
</svg>
