<svg version="1.2" xmlns="http://www.w3.org/2000/svg" viewBox="0 0 301 301" width="150" height="150">
	<title>apple-icon-svg</title>
	<style>
		.s0 { fill: #000000 } 
	</style>
	<g id="Layer">
		<path id="Layer" class="s0" d="m115.4 9.2c-0.4 3.5-0.8 6.5-0.9 6.8-0.1 0.3-0.5 3-0.9 6-0.5 3-1 6.2-1.1 7-0.2 0.8-0.6 3.7-0.9 6.5-0.7 5.1-1 7-2.6 16.5-0.5 3-1.1 7.5-1.4 10-0.4 2.5-0.8 5.4-1 6.5-0.2 1.1-0.7 4-1 6.5-0.3 2.5-0.8 5.6-1 7-0.2 1.4-0.7 4.5-1 7l-0.6 4.5 9.2-0.2c5.1-0.1 11.4-0.2 14.1-0.2 4.6-0.1 4.7-0.2 4.3-2.9-0.2-1.5-0.8-4.7-1.1-7.2-0.4-2.5-0.9-5.2-1-6-0.2-0.8-0.6-3.8-0.9-6.5-0.4-2.8-1.1-7.5-1.6-10.5-0.8-4.9-3.3-21.8-4.6-31-0.2-1.9-0.6-4.4-0.9-5.5-0.4-1.8-0.9-5.5-2-14-0.2-1.7-0.4-3.8-0.4-4.8-0.1-0.9-0.5-1.7-1-1.7-0.5 0-1.3 2.8-1.7 6.2z"/>
		<path id="Layer" fill-rule="evenodd" class="s0" d="m48.9 52h45.8l-0.9 6.2c-1.3 10.2-1.6 12-2.1 12.5-0.3 0.2-5.7 0.5-12 0.5h-11.4v98.6l11.6-6c6.4-3.3 15.7-8.2 20.6-10.8 5-2.6 10.8-5.7 12.9-6.9l4-2.1 7.1 3.9c3.9 2.2 15.4 8.2 25.5 13.4 10.2 5.3 21 10.9 24 12.6l5.5 3v32.6l4.8 0.7c2.7 0.3 7.9 1.9 11.5 3.3 8.6 3.5 15.5 3.5 23.9 0 3.5-1.4 7.2-2.6 8.3-2.8 1.1-0.2 2.2-0.5 2.4-0.8 1-0.9 1.6-6.8 1.8-16.5 0.2-8.1-0.1-9.9-1.3-9.8-0.7 0.1-9.4 2.9-19.1 6.2-9.8 3.4-17.9 5.8-18.1 5.4-0.5-1-0.2-19 0.3-19.5 0.3-0.2 8.9-3.2 19.3-6.7 17.7-6 18.7-6.5 18.8-8.9 0.4-14.7 0.1-40.3-0.5-40.8-0.4-0.4-1-0.3-1.4 0.2-0.4 0.6-6.8 6.4-14.2 13-7.4 6.6-13.7 12.2-14 12.5-4.6 4.6-19.1 17-19.9 17-1.6 0-17.1-8.1-17.1-9 0-0.4 3.7-4.1 8.2-8.1 4.6-4.1 10-9 12.1-10.9 5.4-4.8 7.3-6.5 15.8-14 4-3.6 8-7.2 8.9-8 0.9-0.8 5.2-4.7 9.5-8.5 4.4-3.9 9-8 10.3-9.1 2.4-2.1 2.7-5.4 2.3-20.6l-0.1-2.7-39.4 0.4-19.1 37.7c-10.4 20.7-19.2 37.9-19.5 38.1-0.3 0.3-0.4-9-0.3-20.6l0.1-21.2 7.9-15.5c4.3-8.5 8.1-16.2 8.5-17.2 0.6-1.4-0.7-1.6-13.3-1.5-7.6 0-14.3-0.3-14.8-0.9-0.5-0.5-1.2-3.8-1.5-7.4-0.4-3.6-1-7.5-1.3-8.8l-0.5-2.2h112.7l-0.1 76.7c-0.2 83.4-0.2 83.4-5.9 100.4-8.9 26-31.2 49.6-56.5 59.7-23.3 9.3-47.3 10.2-70.5 2.6-32.5-10.7-57.4-37.4-66.6-71.4-2.3-8.5-2.3-8.6-2.7-88.3zm73.6 116l-5-2.8-4.5 2.5c-4.1 2.2-30.8 16.4-35.5 18.8-1.8 1-2 2.1-2 13.3 0 6.8 0.2 12.7 0.5 13.2 0.8 1.2 11 3.8 13 3.3 1.2-0.3 1.5-2.5 1.5-13.1v-12.7h19l0.6 19.4 7.4-0.1 7.5-0.1v-19.3l9.3 0.2c5 0.1 9.5 0.2 9.8 0.3 0.4 0 0.7 5.6 0.8 12.3 0 7.5 0.5 12.4 1.1 12.8 1.4 0.9 10.8-0.6 12.4-1.9 1.4-1.2 1.4-25.7 0-27-0.5-0.5-7.6-4.3-15.9-8.6-8.2-4.3-17.2-9-20-10.5zm-15.9 61.5c-7.8 3.5-18.1 4.7-26.9 3.1-2.6-0.5-2.7-0.4-1.6 1.7 2 3.8 7.1 11.2 8.6 12.3 1.6 1.4 7.5 0.8 11.8-1.1 12.4-5.6 24.8-5.9 37-1 8.8 3.6 17.1 3.8 23 0.8 2.2-1.2 4.2-2.1 4.5-2.1 0.3 0 2.5-0.5 5-1.2 7-1.9 19.3-0.8 27 2.4 7.2 3 14.7 3.9 18.1 2.2 2.1-1 11.3-14.5 10.5-15.4-0.2-0.2-2.4 0.2-4.7 0.8-8.2 2.3-18.7 1.5-27.5-1.9-10.1-3.9-17.1-4.1-25.3-0.6-5.9 2.4-15.1 4.4-18.7 3.9-1.1-0.1-3.9-0.4-6.4-0.7-2.5-0.3-7-1.5-10-2.8-9.8-3.9-16.5-4.1-24.4-0.4zm12.4 28.7c-5.8-0.1-6.2 0-12.3 2.6l-3.8 1.6 3.8 2.3c13.1 8.2 27.7 12.4 42.8 12.4 14.8 0 24.1-2.2 37.4-8.8l9.4-4.7-5.4-2.4c-7.8-3.7-17.1-3.6-26.2 0.1-11.2 4.5-23.7 4.3-35.2-0.7-2.9-1.3-7.3-2.3-10.5-2.4z"/>
		<path id="Layer" class="s0" d="m94.9 107.7c-0.2 2.6 0.1 31.6 0.4 31.9 0.2 0.2 5.2-2.2 11.2-5.3l10.9-5.6 10.7 5.6c5.9 3.2 11 5.7 11.2 5.7 0.3 0 0.5-7.4 0.4-16.5v-16.5h-22.3c-12.3 0-22.4 0.3-22.5 0.7z"/>
	</g>
</svg>