<?xml version="1.0" standalone="no"?>
<!DOCTYPE svg PUBLIC "-//W3C//DTD SVG 20010904//EN"
 "http://www.w3.org/TR/2001/REC-SVG-20010904/DTD/svg10.dtd">
<svg version="1.0" xmlns="http://www.w3.org/2000/svg"
 width="301.000000pt" height="301.000000pt" viewBox="0 0 301.000000 301.000000"
 preserveAspectRatio="xMidYMid meet">
<metadata>
Created by potrace 1.14, written by Peter Selinger 2001-2017
</metadata>
<g transform="translate(0.000000,301.000000) scale(0.100000,-0.100000)"
fill="#000000" stroke="none">
<path d="M1154 2918 c-4 -35 -8 -65 -9 -68 -1 -3 -5 -30 -9 -60 -5 -30 -10
-62 -11 -70 -2 -8 -6 -37 -9 -65 -7 -51 -10 -70 -26 -165 -5 -30 -11 -75 -14
-100 -4 -25 -8 -54 -10 -65 -2 -11 -7 -40 -10 -65 -3 -25 -8 -56 -10 -70 -2
-14 -7 -45 -10 -70 l-6 -45 92 2 c51 1 114 2 141 2 46 1 47 2 43 29 -2 15 -8
47 -11 72 -4 25 -9 52 -10 60 -2 8 -6 38 -9 65 -4 28 -11 75 -16 105 -8 49
-33 218 -46 310 -2 19 -6 44 -9 55 -4 18 -9 55 -20 140 -2 17 -4 38 -4 48 -1
9 -5 17 -10 17 -5 0 -13 -28 -17 -62z"/>
<path d="M492 1693 c4 -797 4 -798 27 -883 92 -340 341 -607 666 -714 232 -76
472 -67 705 26 253 101 476 337 565 597 57 170 57 170 59 1004 l1 767 -564 0
-563 0 5 -22 c3 -13 9 -52 13 -88 3 -36 10 -69 15 -74 5 -6 72 -9 148 -9 126
1 139 -1 133 -15 -4 -10 -42 -87 -85 -172 l-79 -155 -1 -212 c-1 -116 0 -209
3 -206 3 2 91 174 195 381 l191 377 197 2 197 2 1 -27 c4 -152 1 -185 -23
-206 -13 -11 -59 -52 -103 -91 -43 -38 -86 -77 -95 -85 -9 -8 -49 -44 -89 -80
-85 -75 -104 -92 -158 -140 -21 -19 -75 -68 -121 -109 -45 -40 -82 -77 -82
-81 0 -9 155 -90 171 -90 8 0 153 124 199 170 3 3 66 59 140 125 74 66 138
124 142 130 4 5 10 6 14 2 6 -5 9 -261 5 -408 -1 -24 -11 -29 -188 -89 -104
-35 -190 -65 -193 -67 -5 -5 -8 -185 -3 -195 2 -4 83 20 181 54 97 33 184 61
191 62 12 1 15 -17 13 -98 -2 -97 -8 -156 -18 -165 -2 -3 -13 -6 -24 -8 -11
-2 -48 -14 -83 -28 -84 -35 -153 -35 -239 0 -36 14 -88 30 -115 33 l-48 7 0
163 0 163 -55 30 c-30 17 -138 73 -240 126 -101 52 -216 112 -255 134 l-71 39
-40 -21 c-21 -12 -79 -43 -129 -69 -49 -26 -142 -75 -206 -108 l-116 -60 0
493 0 493 114 0 c63 0 117 3 120 5 5 5 8 23 21 125 l9 62 -229 0 -229 0 3
-797z m933 -468 c83 -43 154 -81 159 -86 14 -13 14 -258 0 -270 -16 -13 -110
-28 -124 -19 -6 4 -11 53 -11 128 -1 67 -4 123 -8 123 -3 1 -48 2 -98 3 l-93
2 0 -96 0 -97 -75 -1 -74 -1 -3 97 -3 97 -95 0 -95 0 0 -127 c0 -106 -3 -128
-15 -131 -20 -5 -122 21 -130 33 -3 5 -5 64 -5 132 0 112 2 123 20 133 47 24
314 166 355 188 l45 25 50 -28 c28 -15 118 -62 200 -105z m-115 -514 c30 -13
75 -25 100 -28 25 -3 53 -6 64 -7 36 -5 128 15 187 39 82 35 152 33 253 -6 88
-34 193 -42 275 -19 23 6 45 10 47 8 8 -9 -84 -144 -105 -154 -34 -17 -109 -8
-181 22 -77 32 -200 43 -270 24 -25 -7 -47 -12 -50 -12 -3 0 -23 -9 -45 -21
-59 -30 -142 -28 -230 8 -122 49 -246 46 -370 -10 -43 -19 -102 -25 -118 -11
-15 11 -66 85 -86 123 -11 21 -10 22 16 17 88 -16 191 -4 269 31 79 37 146 35
244 -4z m-15 -307 c115 -50 240 -52 352 -7 91 37 184 38 262 1 l54 -24 -94
-47 c-133 -66 -226 -88 -374 -88 -151 0 -297 42 -428 124 l-38 23 38 16 c61
26 65 27 123 26 32 -1 76 -11 105 -24z"/>
<path d="M949 1933 c-2 -26 1 -316 4 -319 2 -2 52 22 112 53 l109 56 107 -56
c59 -32 110 -57 112 -57 3 0 5 74 4 165 l0 165 -223 0 c-123 0 -224 -3 -225
-7z"/>
</g>
</svg>
