<?xml version="1.0" standalone="no"?>
<!DOCTYPE svg PUBLIC "-//W3C//DTD SVG 20010904//EN"
 "http://www.w3.org/TR/2001/REC-SVG-20010904/DTD/svg10.dtd">
<svg version="1.0" xmlns="http://www.w3.org/2000/svg" viewBox="0 0 192.000000 192.000000"
 preserveAspectRatio="xMidYMid meet">
<metadata>
Created by potrace 1.15, written by Peter Selinger 2001-2017
</metadata>
<g transform="translate(0.000000,192.000000) scale(0.100000,-0.100000)"
fill="#000000" stroke="none">
<path d="M825 1635 c-358 -79 -595 -410 -546 -761 23 -164 82 -285 196 -399
360 -361 967 -220 1139 264 28 80 31 96 31 221 0 125 -3 141 -31 221 -116 327
-462 526 -789 454z m270 -127 c128 -27 256 -117 335 -234 68 -102 95 -191 95
-314 0 -123 -27 -212 -96 -315 -108 -161 -275 -248 -475 -247 -152 0 -279 55
-389 166 -116 116 -165 235 -165 396 0 161 49 280 165 396 144 146 322 197
530 152z"/>
<path d="M884 1500 c-158 -24 -295 -113 -384 -250 -58 -91 -75 -156 -75 -290
0 -134 17 -199 77 -291 127 -198 364 -294 588 -240 237 58 420 288 420 531 0
231 -163 451 -385 519 -74 23 -174 32 -241 21z m426 -259 c0 -209 -34 -380
-97 -490 -60 -103 -220 -291 -247 -291 -19 0 -168 158 -215 228 -96 143 -121
233 -128 465 l-5 177 346 0 346 0 0 -89z"/>
<path d="M644 1287 c-3 -8 -4 -49 -2 -93 l3 -79 135 0 135 0 3 93 3 92 -136 0
c-104 0 -137 -3 -141 -13z"/>
<path d="M1010 1205 l0 -95 135 0 135 0 0 95 0 95 -135 0 -135 0 0 -95z"/>
<path d="M657 1013 c-10 -18 25 -144 62 -218 38 -77 163 -244 189 -253 10 -3
12 46 10 235 l-3 238 -127 3 c-69 1 -128 -1 -131 -5z"/>
<path d="M1010 778 l1 -243 50 54 c55 59 114 143 148 209 21 41 61 179 61 209
0 10 -28 13 -130 13 l-130 0 0 -242z"/>
</g>
</svg>
