<svg width="102" height="109.00000000000001" xmlns="http://www.w3.org/2000/svg">
 <defs>
  <clipPath id="clip-path">
   <rect class="cls-1" x="6.04" y="39.23" width="88.78" height="50.75" id="svg_1" fill="none"/>
  </clipPath>
 </defs>
 <title>Artboard 7 copy 3</title>
 <g>
  <title>background</title>
  <rect x="-1" y="-1" width="104" height="111" id="canvas_background" fill="none"/>
 </g>
 <g>
  <title>Layer 1</title>
  <path class="cls-3" d="m10.957896,90l0,-4.4c0,-1.73 1.06,-13.15 14.07,-13.15s14.49,11.33 14.49,13.14l0,4.41" id="svg_3" clip-path="url(#clip-path)" fill="#014983"/>
  <path class="cls-3" d="m66.129299,90l0,-4.4c0,-1.73 1.07,-13.15 14.08,-13.15s14.45,11.33 14.45,13.14l0,4.41" id="svg_4" clip-path="url(#clip-path)" fill="#014983"/>
  <path class="cls-3" d="m38.077896,90l0,-8.34c0,-1.73 1.07,-13.14 14.07,-13.14s14.46,11.34 14.46,13.14l0,8.34" id="svg_5" clip-path="url(#clip-path)" fill="#014983"/>
  <path class="cls-3" d="m55.099299,62.76q-0.33,0.09 -0.66,0.15l-0.41,0.09a9.32,9.32 0 0 1 -1.4,0.1l-0.17,0a8.76,8.76 0 0 1 -1,-0.08a9.27,9.27 0 0 1 -7,-5.11l0,0a2.79,2.79 0 0 1 -0.15,-0.3l-0.15,-0.37c-0.11,-0.3 -0.19,-0.56 -0.19,-0.56l0,0a8.15,8.15 0 0 1 -0.33,-1.4a0.07,0.07 0 0 1 0,0a11.38,11.38 0 0 1 -0.1,-1.31l0,-0.08a10.24,10.24 0 0 1 0.11,-1.35a9.26,9.26 0 0 1 6.58,-7.54q0.33,-0.09 0.66,-0.15l0.4,-0.08a9.57,9.57 0 0 1 1.41,-0.11l0.14,0a8.76,8.76 0 0 1 1,0.09a9.25,9.25 0 0 1 7,5.11l0,0a3,3 0 0 1 0.15,0.31c0,0.12 0.1,0.24 0.14,0.36l0.2,0.56l0,0a8.38,8.38 0 0 1 0.33,1.4l0,0.05a11.55,11.55 0 0 1 0.1,1.31l0,0.08a8.79,8.79 0 0 1 -0.12,1.35a9.24,9.24 0 0 1 -6.64,7.49" id="svg_6" clip-path="url(#clip-path)" fill="#014983"/>
  <path class="cls-3" d="m82.839299,66.68a6.37,6.37 0 0 1 -0.66,0.16l-0.4,0.08a9.57,9.57 0 0 1 -1.41,0.11l-0.17,0c-0.35,0 -0.69,0 -1,-0.09a9.25,9.25 0 0 1 -7,-5.11l0,0a1.8,1.8 0 0 1 -0.14,-0.31c-0.06,-0.12 -0.1,-0.24 -0.15,-0.37c-0.11,-0.29 -0.2,-0.55 -0.2,-0.55l0,0a8.62,8.62 0 0 1 -0.33,-1.4a0.07,0.07 0 0 0 0,0a9.72,9.72 0 0 1 -0.09,-1.31s0,-0.06 0,-0.08a10.11,10.11 0 0 1 0.12,-1.35a9.24,9.24 0 0 1 6.64,-7.49l0.66,-0.16l0.41,-0.08a9.55,9.55 0 0 1 1.41,-0.1l0.16,0c0.35,0 0.69,0 1,0.09a9.24,9.24 0 0 1 7,5.11l0,0a2.79,2.79 0 0 1 0.15,0.3l0.15,0.37c0.11,0.29 0.19,0.56 0.19,0.56l0,0a9.77,9.77 0 0 1 0.32,1.4a0.11,0.11 0 0 1 0,0.05a9.77,9.77 0 0 1 0.1,1.32l0,0.07a8.81,8.81 0 0 1 -0.11,1.36a9.25,9.25 0 0 1 -6.65,7.42" id="svg_7" clip-path="url(#clip-path)" fill="#014983"/>
  <path class="cls-3" d="m23.26,66.68c0.22,0.06 0.44,0.12 0.66,0.16l0.41,0.08a9.57,9.57 0 0 0 1.41,0.11l0.17,0c0.34,0 0.68,0 1,-0.09a9.21,9.21 0 0 0 7,-5.11l0,0l0.14,-0.31l0.15,-0.37c0.11,-0.29 0.19,-0.55 0.19,-0.55l0,0a9.77,9.77 0 0 0 0.32,-1.4a0.11,0.11 0 0 0 0,0a9.75,9.75 0 0 0 0.1,-1.31l0,-0.08a8.68,8.68 0 0 0 -0.11,-1.35a9.23,9.23 0 0 0 -6.65,-7.49l-0.66,-0.16l-0.4,-0.08a9.55,9.55 0 0 0 -1.41,-0.1l-0.17,0c-0.34,0 -0.69,0 -1,0.09a9.27,9.27 0 0 0 -7,5.11l0,0a2.79,2.79 0 0 0 -0.15,0.3c-0.05,0.12 -0.09,0.24 -0.14,0.37c-0.11,0.29 -0.2,0.56 -0.2,0.56l0,0a8.62,8.62 0 0 0 -0.33,1.4a0.07,0.07 0 0 1 0,0.05a9.76,9.76 0 0 0 -0.09,1.32s0,0 0,0.07a10.26,10.26 0 0 0 0.12,1.36a9.24,9.24 0 0 0 6.64,7.48" id="svg_8" clip-path="url(#clip-path)" fill="#014983"/>
  <path class="cls-4" d="m63.16,87.69415a1.47,1.47 0 0 1 -1.47,-1.47l0,-8.32c0,-0.12 -0.35,-11.67 -13,-11.67c-12.46,0 -12.6,11.19 -12.6,11.67l0,8.32a1.47,1.47 0 0 1 -2.94,0l0,-8.32c0,-0.15 0.18,-14.62 15.54,-14.62c13,0 15.92,10.83 15.92,14.62l0,8.32a1.47,1.47 0 0 1 -1.47,1.47" id="svg_9" clip-path="url(#clip-path)" fill="#cbcfd8"/>
  <path class="cls-4" d="m42,53.36a7.92,7.92 0 0 0 6.75,4.34l0.16,0a5.08,5.08 0 0 0 1.17,-0.08l0.17,0l0.17,0l0.56,-0.13a7.79,7.79 0 0 0 5.58,-6.3a7.47,7.47 0 0 0 0.06,-1.19a8.49,8.49 0 0 0 -0.08,-1.17a0.17,0.17 0 0 1 0,-0.07a10.16,10.16 0 0 0 -0.27,-1.15l0,0c0,-0.07 -0.09,-0.26 -0.17,-0.47l-0.1,-0.32a1.48,1.48 0 0 0 -0.09,-0.18l-0.06,-0.13a7.76,7.76 0 0 0 -5.88,-4.25a8.09,8.09 0 0 0 -0.86,-0.07l-0.16,0a7.59,7.59 0 0 0 -1.17,0.09l-0.17,0l-0.17,0l-0.56,0.13a7.75,7.75 0 0 0 -5.57,6.29a6.6,6.6 0 0 0 -0.1,1.14a8.49,8.49 0 0 0 0.08,1.17a0.13,0.13 0 0 1 0,0.06a9.85,9.85 0 0 0 0.27,1.16l0,0l0.17,0.48l0.11,0.29a0.87,0.87 0 0 0 0.09,0.17l0,0a0.34,0.34 0 0 1 0.06,0.12m9.37,5.48l0,0zm-2.48,1.81l-0.18,0a11.77,11.77 0 0 1 -1.21,-0.1a10.65,10.65 0 0 1 -8.15,-5.92a3.21,3.21 0 0 1 -0.18,-0.37c0,-0.11 -0.09,-0.22 -0.14,-0.34a0.69,0.69 0 0 0 0,-0.1c-0.11,-0.29 -0.19,-0.55 -0.21,-0.6l0,0a9.91,9.91 0 0 1 -0.38,-1.61s0,-0.08 0,-0.11a9.66,9.66 0 0 1 -0.19,-1.43a9.88,9.88 0 0 1 0.13,-1.66a10.71,10.71 0 0 1 7.7,-8.68q0.39,-0.1 0.78,-0.18l0.1,0l0.36,-0.07a10.78,10.78 0 0 1 1.63,-0.12s0.15,0 0.18,0a9.67,9.67 0 0 1 1.21,0.11a10.68,10.68 0 0 1 8.16,5.92l0,0c0,0.1 0.11,0.22 0.16,0.35l0.15,0.35l0.24,0.67l0,0.05a10.55,10.55 0 0 1 0.38,1.62s0,0.08 0,0.11a10.89,10.89 0 0 1 0.1,1.47a9.92,9.92 0 0 1 -0.13,1.67a10.68,10.68 0 0 1 -7.7,8.67l0,0l-0.76,0.18l-0.11,0l-0.36,0.07a11,11 0 0 1 -1.63,0.12" id="svg_10" clip-path="url(#clip-path)" fill="#cbcfd8"/>
  <path class="cls-4" d="m90.9,87.53a1.47,1.47 0 0 1 -1.48,-1.47l0,-4.4c0,-0.11 -0.35,-11.67 -13,-11.67a13.06,13.06 0 0 0 -8.11,2.38a1.47,1.47 0 1 1 -1.76,-2.37a15.89,15.89 0 0 1 9.89,-3c13,0 15.93,10.82 15.93,14.61l0,4.4a1.47,1.47 0 0 1 -1.47,1.47" id="svg_11" clip-path="url(#clip-path)" fill="#cbcfd8"/>
  <path class="cls-4" d="m69.69,57.26a7.76,7.76 0 0 0 5.91,4.29a6,6 0 0 0 0.85,0.07l0.18,0a7.43,7.43 0 0 0 1.15,-0.09l0.17,0l0.17,0l0.56,-0.13a7.75,7.75 0 0 0 5.58,-6.29a9.6,9.6 0 0 0 0.1,-1.14a10.31,10.31 0 0 0 -0.09,-1.17s0,-0.08 0,-0.11a7.61,7.61 0 0 0 -0.27,-1.14l0,0s-0.08,-0.25 -0.18,-0.51l-0.11,-0.29a0.91,0.91 0 0 0 -0.08,-0.17s-0.05,-0.09 -0.07,-0.14a7.73,7.73 0 0 0 -5.88,-4.24a8.08,8.08 0 0 0 -0.86,-0.08l-0.16,0a7.36,7.36 0 0 0 -1.16,0.09l-0.18,0l-0.17,0l-0.56,0.13a7.75,7.75 0 0 0 -5.59,6.35a6.57,6.57 0 0 0 -0.1,1.13a7.13,7.13 0 0 0 0.1,1.18a7.26,7.26 0 0 0 0.27,1.2l0,0a5,5 0 0 0 0.17,0.49l0.12,0.29l0.07,0.17a0.47,0.47 0 0 1 0,0.1m9.38,5.5l0,0zm-2.48,1.81l-0.18,0a9.67,9.67 0 0 1 -1.21,-0.11a10.68,10.68 0 0 1 -8.14,-5.91c-0.05,-0.11 -0.12,-0.24 -0.17,-0.38a2.37,2.37 0 0 1 -0.13,-0.32a0.69,0.69 0 0 1 0,-0.1c-0.12,-0.32 -0.22,-0.6 -0.22,-0.62l0,0a10.28,10.28 0 0 1 -0.38,-1.62s0,-0.09 0,-0.11a10.28,10.28 0 0 1 0,-3.13a10.71,10.71 0 0 1 7.7,-8.68c0.26,-0.07 0.52,-0.14 0.78,-0.19l0.11,0l0.35,-0.07a10.78,10.78 0 0 1 1.63,-0.12l0.19,0a11.83,11.83 0 0 1 1.2,0.1a10.66,10.66 0 0 1 8.16,5.93c0.06,0.11 0.12,0.23 0.18,0.37l0.14,0.34c0.13,0.34 0.21,0.6 0.24,0.68s0,0 0,0a10.15,10.15 0 0 1 0.38,1.63a0.43,0.43 0 0 1 0,0.11a11.4,11.4 0 0 1 0.11,1.47a11.27,11.27 0 0 1 -0.13,1.66a10.72,10.72 0 0 1 -7.71,8.68l0,0c-0.26,0.07 -0.51,0.13 -0.77,0.18l-0.11,0l-0.35,0.07a11,11 0 0 1 -1.64,0.12" id="svg_12" clip-path="url(#clip-path)" fill="#cbcfd8"/>
  <path class="cls-4" d="m7.51,87.53a1.47,1.47 0 0 1 -1.51,-1.47l0,-4.4c0,-3.79 3,-14.61 16,-14.61a15.89,15.89 0 0 1 9.89,3a1.47,1.47 0 0 1 -1.78,2.34a13.06,13.06 0 0 0 -8.11,-2.39c-12.66,0 -13,11.55 -13,11.66l0,4.4a1.47,1.47 0 0 1 -1.47,1.47" id="svg_13" clip-path="url(#clip-path)" fill="#cbcfd8"/>
  <path class="cls-4" d="m19.73,61.34l0.55,0.13l0.17,0l0.18,0a7.62,7.62 0 0 0 1.18,0.09l0.19,0a6.36,6.36 0 0 0 0.86,-0.07a7.77,7.77 0 0 0 5.88,-4.26l0.06,-0.12l0.08,-0.17l0.09,-0.22l0,-0.09c0.09,-0.24 0.17,-0.47 0.17,-0.48l0,0a7.1,7.1 0 0 0 0.27,-1.15a9.38,9.38 0 0 0 0.08,-1.14s0,-0.09 0,-0.1a9.34,9.34 0 0 0 -0.1,-1.1a7.76,7.76 0 0 0 -5.58,-6.3l-0.55,-0.13l-0.18,0l-0.17,0a7.66,7.66 0 0 0 -1.19,-0.09l-0.14,0a8.6,8.6 0 0 0 -0.86,0.08a7.69,7.69 0 0 0 -5.88,4.26l-0.06,0.11l-0.08,0.17c0,0.09 -0.06,0.16 -0.1,0.24l-0.19,0.56l0,0a8,8 0 0 0 -0.27,1.15a9.49,9.49 0 0 0 -0.09,1.14l0,0.15a7.48,7.48 0 0 0 0.1,1.09a7.74,7.74 0 0 0 5.58,6.3m2.1,3.23a11,11 0 0 1 -1.65,-0.12l-0.35,-0.07l-0.12,0l-0.71,-0.25l0,0a10.7,10.7 0 0 1 -7.71,-8.68a10.83,10.83 0 0 1 -0.13,-1.57l0,-0.13a9.72,9.72 0 0 1 0.12,-1.48a10.59,10.59 0 0 1 0.37,-1.66l0,0s0,0 0,0l0.21,-0.58c0.07,-0.21 0.12,-0.33 0.17,-0.45l0.18,-0.36a10.67,10.67 0 0 1 8.14,-5.92c0.48,-0.06 0.85,-0.09 1.21,-0.1l0.17,0a11,11 0 0 1 1.66,0.12l0.35,0.07l0.12,0a7.57,7.57 0 0 1 0.76,0.18a10.71,10.71 0 0 1 7.71,8.68a10.59,10.59 0 0 1 0.13,1.56l0,0.14a9.82,9.82 0 0 1 -0.12,1.48a10.47,10.47 0 0 1 -0.38,1.65s0,0 0,0.06l0,0c0,0.1 -0.11,0.33 -0.21,0.59a1,1 0 0 0 0,0.1c0,0.11 -0.09,0.23 -0.14,0.34a3.17,3.17 0 0 1 -0.17,0.37a10.67,10.67 0 0 1 -8.15,5.91a8,8 0 0 1 -1.2,0.1l-0.18,0l-0.08,0.02z" id="svg_14" clip-path="url(#clip-path)" fill="#cbcfd8"/>
 </g>
</svg>
