<svg width="102" height="109"
  xmlns="http://www.w3.org/2000/svg">
  <defs>
    <clipPath id="intellectual-maturity-none">
      <rect fill="none" id="svg_1" height="67.98" width="79.29" y="21.58" x="11.13" class="cls-1"/>
    </clipPath>
  </defs>
  <title>Artboard 7 copy</title>
  <g>
    <title>background</title>
    <rect fill="none" id="canvas_background" height="402" width="582" y="-1" x="-1"/>
  </g>
  <g>
    <title>Layer 1</title>
    <path fill="#014983" clip-path="url(#clip-path)" id="svg_3" d="m81.45,61.75a6.49,6.49 0 0 0 -4,-6a6.5,6.5 0 0 0 -5.72,-5.06a6.48,6.48 0 0 0 -9.56,-3.18a7.69,7.69 0 0 0 -11.05,0.68a7.92,7.92 0 0 0 -12.12,3.49a6.72,6.72 0 0 0 -8.39,5.84a6.49,6.49 0 0 0 -2.71,11.41a7.45,7.45 0 0 0 12.24,5.64a8,8 0 0 0 7.65,5.59c2.45,0 2.87,-0.22 4.34,-2l13.18,11.4l4.27,-3.78l-4.3,-3.72a8,8 0 0 0 2.61,0.44a8.14,8.14 0 0 0 8.11,-8.15a7.26,7.26 0 0 0 -0.06,-0.93a6.49,6.49 0 0 0 5.51,-6.42a6.56,6.56 0 0 0 -0.56,-2.63a6.64,6.64 0 0 0 0.56,-2.64" class="cls-3"/>
    <path fill="#cbcfd8" clip-path="url(#clip-path)" id="svg_4" d="m37.43,71.79a1.26,1.26 0 0 1 -0.67,-0.19a1.28,1.28 0 0 1 -0.42,-1.75a9.77,9.77 0 0 1 13.42,-3.23a1.27,1.27 0 1 1 -1.33,2.17a7.22,7.22 0 0 0 -9.91,2.39a1.28,1.28 0 0 1 -1.09,0.61" class="cls-4"/>
    <path fill="#cbcfd8" clip-path="url(#clip-path)" id="svg_5" d="m48.59,73.37a1.27,1.27 0 0 1 0.83,0.31l12.32,10.64l2.35,-2.08l-3.2,-2.76a1.28,1.28 0 0 1 1.24,-2.18a6.69,6.69 0 0 0 2.2,0.37a6.83,6.83 0 0 0 6.82,-7.67a1.28,1.28 0 0 1 1.07,-1.4a5.19,5.19 0 0 0 4.4,-5.15a5.13,5.13 0 0 0 -0.45,-2.11a1.26,1.26 0 0 1 0,-1a5.13,5.13 0 0 0 0.45,-2.11a5.22,5.22 0 0 0 -3.21,-4.82a1.26,1.26 0 0 1 -0.76,-0.9a5.19,5.19 0 0 0 -4.6,-4.06a1.29,1.29 0 0 1 -1.05,-0.85a5.21,5.21 0 0 0 -7.7,-2.6a1.27,1.27 0 0 1 -1.54,-0.13a6.42,6.42 0 0 0 -9.23,0.57a1.27,1.27 0 0 1 -1.72,0.19a6.65,6.65 0 0 0 -10.17,2.92a1.27,1.27 0 0 1 -1.5,0.77a5.42,5.42 0 0 0 -6.81,4.73a1.27,1.27 0 0 1 -1,1.12a5.23,5.23 0 0 0 -4.13,5.1a5.17,5.17 0 0 0 2,4.07a1.29,1.29 0 0 1 0.47,1a6.17,6.17 0 0 0 10.1,4.66a1.29,1.29 0 0 1 1.23,-0.21a1.27,1.27 0 0 1 0.86,0.84a6.72,6.72 0 0 0 6.43,4.7c2.1,0 2.15,-0.06 3.37,-1.51a1.29,1.29 0 0 1 0.88,-0.44l0.1,0m13.11,13.9a1.26,1.26 0 0 1 -0.83,-0.31l-12.23,-10.55c-1.22,1.21 -2.16,1.46 -4.45,1.46a9.25,9.25 0 0 1 -8.24,-4.94a8.72,8.72 0 0 1 -12.92,-7a7.76,7.76 0 0 1 2.83,-13a8,8 0 0 1 8.77,-6.26a9.19,9.19 0 0 1 12.71,-3.68a9,9 0 0 1 11.37,-0.57a7.7,7.7 0 0 1 3.34,-0.76a7.8,7.8 0 0 1 6.95,4.33a7.71,7.71 0 0 1 5.95,5.3a7.76,7.76 0 0 1 3.74,9.53a7.87,7.87 0 0 1 0.46,2.63a7.72,7.72 0 0 1 -5.42,7.4a9.43,9.43 0 0 1 -8.19,9.28l1.3,1.12a1.26,1.26 0 0 1 0.44,1a1.28,1.28 0 0 1 -0.43,1l-4.3,3.74a1.25,1.25 0 0 1 -0.85,0.32" class="cls-4"/>
    <path fill="#cbcfd8" clip-path="url(#clip-path)" id="svg_6" d="m63.245844,71.534156a8.31,8.31 0 0 1 -8.3,-8.3a1.28,1.28 0 0 1 2.55,0a5.76,5.76 0 0 0 5.75,5.75a1.28,1.28 0 0 1 0,2.55" class="cls-4"/>
    <path fill="#cbcfd8" clip-path="url(#clip-path)" id="svg_7" d="m42.48,56.42a8.31,8.31 0 0 1 -8.3,-8.3a1.28,1.28 0 0 1 2.55,0a5.76,5.76 0 0 0 5.75,5.75a1.28,1.28 0 0 1 0,2.55" class="cls-4"/>
    <path fill="#cbcfd8" clip-path="url(#clip-path)" id="svg_8" d="m65.31,63.92a1.27,1.27 0 0 1 -1.31,-1.27a11,11 0 0 1 11,-10.96a1.28,1.28 0 1 1 0,2.55a8.42,8.42 0 0 0 -8.41,8.41a1.27,1.27 0 0 1 -1.27,1.27" class="cls-4"/>
    <path fill="#cbcfd8" clip-path="url(#clip-path)" id="svg_9" d="m72.24,71.4l-17.67,0a1.27,1.27 0 1 1 0,-2.54l17.67,0a1.27,1.27 0 1 1 0,2.54" class="cls-4"/>
    <path fill="#cbcfd8" clip-path="url(#clip-path)" id="svg_10" d="m39,61.06a1.28,1.28 0 0 1 -1.28,-1.28l0,-5.58a1.28,1.28 0 1 1 2.55,0l0,5.58a1.27,1.27 0 0 1 -1.27,1.28" class="cls-4"/>
    <path fill="#cbcfd8" clip-path="url(#clip-path)" id="svg_11" d="m44.89,67.55a1.32,1.32 0 0 1 -0.69,-0.2a1.28,1.28 0 0 1 -0.39,-1.76l3,-4.71a1.27,1.27 0 0 1 2.19,1.37l-3,4.75a1.26,1.26 0 0 1 -1.07,0.59" class="cls-4"/>
    <path fill="#cbcfd8" clip-path="url(#clip-path)" id="svg_12" d="m24.39,66.81a1.3,1.3 0 0 1 -1.11,-0.63a1.28,1.28 0 0 1 0.47,-1.74l5.84,-3.44a1.27,1.27 0 0 1 1.28,2.2l-5.87,3.44a1.23,1.23 0 0 1 -0.64,0.17" class="cls-4"/>
    <path fill="#cbcfd8" clip-path="url(#clip-path)" id="svg_13" d="m67.59,56.53l-0.12,0l-4.89,-0.46a1.28,1.28 0 0 1 0.24,-2.54l4.89,0.46a1.28,1.28 0 0 1 -0.12,2.55" class="cls-4"/>
    <path fill="#cbcfd8" clip-path="url(#clip-path)" id="svg_14" d="m70.26,63.76a1.25,1.25 0 0 1 -0.78,-0.27l-3.88,-3a1.28,1.28 0 0 1 1.57,-2l3.87,3a1.27,1.27 0 0 1 0.23,1.79a1.3,1.3 0 0 1 -1,0.49" class="cls-4"/>
    <path fill="#cbcfd8" clip-path="url(#clip-path)" id="svg_15" d="m57.67,53.85a1.27,1.27 0 0 1 -1.24,-1l-1.06,-4.79a1.27,1.27 0 1 1 2.48,-0.55l1.07,4.79a1.27,1.27 0 0 1 -1,1.52a1.33,1.33 0 0 1 -0.28,0" class="cls-4"/>
    <path fill="#cbcfd8" clip-path="url(#clip-path)" id="svg_16" d="m52.07,52.91a1.28,1.28 0 0 1 -1,-2.09l6.31,-7.58a1.28,1.28 0 1 1 2,1.64l-6.32,7.57a1.27,1.27 0 0 1 -1,0.46" class="cls-4"/>
    <path fill="#cbcfd8" clip-path="url(#clip-path)" id="svg_17" d="m50.78,36.78a1.28,1.28 0 0 1 -1.28,-1.28l0,-12.64a1.28,1.28 0 1 1 2.55,0l0,12.64a1.27,1.27 0 0 1 -1.27,1.28" class="cls-4"/>
    <path fill="#cbcfd8" clip-path="url(#clip-path)" id="svg_18" d="m81.45,54a1.28,1.28 0 0 1 -0.4,-2.49l7.7,-2.5a1.27,1.27 0 1 1 0.79,2.42l-7.7,2.5a1.07,1.07 0 0 1 -0.39,0.07" class="cls-4"/>
    <path fill="#cbcfd8" clip-path="url(#clip-path)" id="svg_19" d="m75.72,45.8a1.29,1.29 0 0 1 -1,-0.53a1.28,1.28 0 0 1 0.28,-1.78l3.54,-2.57a1.27,1.27 0 0 1 1.46,2.08l-3.54,2.57a1.23,1.23 0 0 1 -0.75,0.25" class="cls-4"/>
    <path fill="#cbcfd8" clip-path="url(#clip-path)" id="svg_20" d="m68.9,39a1.24,1.24 0 0 1 -0.75,-0.24a1.28,1.28 0 0 1 -0.28,-1.76l6.47,-8.9a1.27,1.27 0 0 1 2.06,1.5l-6.47,8.9a1.28,1.28 0 0 1 -1,0.52" class="cls-4"/>
    <path fill="#cbcfd8" clip-path="url(#clip-path)" id="svg_21" d="m59.6,36.78a1.39,1.39 0 0 1 -0.4,-0.06a1.29,1.29 0 0 1 -0.82,-1.61l1.47,-4.51a1.27,1.27 0 1 1 2.42,0.79l-1.46,4.51a1.28,1.28 0 0 1 -1.21,0.88" class="cls-4"/>
    <path fill="#cbcfd8" clip-path="url(#clip-path)" id="svg_22" d="m19.39,53.72a1.39,1.39 0 0 1 -0.4,-0.06l-7,-2.27a1.27,1.27 0 1 1 0.81,-2.39l7,2.27a1.26,1.26 0 0 1 0.82,1.6a1.28,1.28 0 0 1 -1.21,0.88" class="cls-4"/>
    <path fill="#cbcfd8" clip-path="url(#clip-path)" id="svg_23" d="m25.83,45.8a1.25,1.25 0 0 1 -0.75,-0.25l-3.91,-2.84a1.27,1.27 0 0 1 1.5,-2.06l3.91,2.84a1.28,1.28 0 0 1 0.28,1.78a1.29,1.29 0 0 1 -1,0.53" class="cls-4"/>
    <path fill="#cbcfd8" clip-path="url(#clip-path)" id="svg_24" d="m33.72,40.44a1.27,1.27 0 0 1 -1,-0.52l-7.57,-10.37a1.27,1.27 0 0 1 2.06,-1.5l7.54,10.37a1.28,1.28 0 0 1 -0.28,1.78a1.31,1.31 0 0 1 -0.75,0.24" class="cls-4"/>
    <path fill="#cbcfd8" clip-path="url(#clip-path)" id="svg_25" d="m42,36.78a1.28,1.28 0 0 1 -1.22,-0.88l-1.64,-4.9a1.28,1.28 0 0 1 2.43,-0.78l1.6,4.93a1.28,1.28 0 0 1 -0.82,1.61a1.32,1.32 0 0 1 -0.39,0.06" class="cls-4"/>
  </g>
</svg>
