<svg width="101.99999999999999" height="109" xmlns="http://www.w3.org/2000/svg">
 <defs>
  <clipPath id="clip-path">
   <rect class="cls-1" x="29.75" y="20.4" width="43.42" height="69.28" id="svg_1" fill="none"/>
  </clipPath>
 </defs>
 <title>Artboard 7</title>
 <g>
  <title>background</title>
  <rect x="-1" y="-1" width="18.40463" height="19.530437" id="canvas_background" fill="none"/>
 </g>
 <g>
  <title>Layer 1</title>
  <polygon class="cls-2" points="34.01234357059002,29.184961766004562 34.01234357059002,85.82496497035027 40.26234357059002,85.82496497035027 40.26234357059002,97.0649628341198 46.74234311282635,94.41496130824089 53.21234433352947,97.0649628341198 53.21234433352947,85.82496497035027 73.64234463870525,85.82496497035027 73.64234463870525,29.184961766004562 34.01234357059002,29.184961766004562 " id="svg_2" fill="#b53228"/>
  <path class="cls-4" d="m33.183054,80.402831l34.36,0l0,-50.31l-34.36,0l0,50.31zm35.76,2.79l-37.16,0a1.39,1.39 0 0 1 -1.39,-1.39l0,-53.1a1.4,1.4 0 0 1 1.39,-1.4l37.16,0a1.4,1.4 0 0 1 1.39,1.4l0,53.1a1.39,1.39 0 0 1 -1.39,1.39" id="svg_4" clip-path="url(#clip-path)" fill="#ffffff"/>
  <path class="cls-4" d="m58.173054,51.912831a1.39,1.39 0 0 0 -1.39,-1.39l-5,0l0,-7.71a1.4,1.4 0 0 0 -2.79,0l0,7.73l-5,0a1.4,1.4 0 1 0 0,2.79l5,0l0,13a1.4,1.4 0 0 0 2.79,0l0,-13l5,0a1.4,1.4 0 0 0 1.39,-1.42" id="svg_5" clip-path="url(#clip-path)" fill="#ffffff"/>
 </g>
</svg>