<svg width="102" height="109" xmlns="http://www.w3.org/2000/svg">
 <defs>
  <clipPath id="clip-path">
   <rect fill="none" id="svg_1" height="75.99" width="57.85" y="16.93" x="18.53" class="cls-1"/>
  </clipPath>
 </defs>
 <title>Artboard 7 copy 2</title>
 <g>
  <title>background</title>
  <rect fill="none" id="canvas_background" height="19.53394" width="18.407907" y="-1" x="-1"/>
 </g>
 <g>
  <title>Layer 1</title>
  <path fill="#00aeef" clip-path="url(#clip-path)" id="svg_3" d="m76.38,52a22.18,22.18 0 1 1 -22.18,-22.16a22.18,22.18 0 0 1 22.18,22.16" class="cls-3"/>
  <path fill="#ffffff" clip-path="url(#clip-path)" id="svg_4" d="m49.27,25a23.73,23.73 0 1 0 23.73,23.74a23.72,23.72 0 0 0 -23.73,-23.74m0,3a20.69,20.69 0 1 1 -20.69,20.74a20.71,20.71 0 0 1 20.69,-20.69" class="cls-4"/>
  <path fill="#ffffff" clip-path="url(#clip-path)" id="svg_5" d="m49.31,79.46a30.72,30.72 0 0 1 -12.31,-58.9l1.21,2.79a27.69,27.69 0 1 0 22.1,50.78l1.21,2.79a30.7,30.7 0 0 1 -12.21,2.54" class="cls-4"/>
  <path fill="#ffffff" clip-path="url(#clip-path)" id="svg_6" d="m62.44,80.55a1.53,1.53 0 0 1 -1.4,-0.92l-2.45,-5.63a1.52,1.52 0 1 1 2.79,-1.21l2.45,5.64a1.52,1.52 0 0 1 -0.79,2a1.41,1.41 0 0 1 -0.6,0.13" class="cls-4"/>
  <path fill="#ffffff" clip-path="url(#clip-path)" id="svg_7" d="m38.55,25.61a1.52,1.52 0 0 1 -1.39,-0.91l-2.45,-5.64a1.52,1.52 0 1 1 2.78,-1.21l2.51,5.63a1.52,1.52 0 0 1 -0.79,2a1.49,1.49 0 0 1 -0.61,0.13" class="cls-4"/>
  <path fill="#ffffff" clip-path="url(#clip-path)" id="svg_8" d="m49.27,88.06a1.52,1.52 0 0 1 -1.52,-1.52l0,-8.54a1.52,1.52 0 1 1 3,0l0,8.59a1.52,1.52 0 0 1 -1.52,1.52" class="cls-4"/>
  <path fill="#ffffff" clip-path="url(#clip-path)" id="svg_9" d="m57.74,92.93l-17,0a1.52,1.52 0 1 1 0,-3l17,0a1.52,1.52 0 0 1 0,3" class="cls-4"/>
 </g>
</svg>
