<?xml version="1.0" encoding="UTF-8"?>
<svg id="Layer_2" data-name="Layer 2" xmlns="http://www.w3.org/2000/svg" viewBox="0 0 250.12 283.31">
  <defs>
    <style>
      .cls-1 {
        fill: #354551;
      }

      .cls-1, .cls-2, .cls-3, .cls-4, .cls-5, .cls-6 {
        stroke-width: 0px;
      }

      .cls-2 {
        fill: #2a3b48;
      }

      .cls-3 {
        fill: #41505b;
      }

      .cls-4 {
        fill: #081f2d;
      }

      .cls-5 {
        fill: #fff;
      }

      .cls-6 {
        fill: #00aeef;
      }
    </style>
  </defs>
  <g id="Layer_1-2" data-name="Layer 1">
    <g>
      <path class="cls-5" d="m246.61,81.47c-3.82-2.53-9.69-2.17-14.93.92-7.88,4.64-15.36,6.83-25.03,7.32-6.62.33-13.29-.33-19.65-1.56.12-.18.25-.37.38-.58,1.42-2.13,4.07-6.1,4.66-10.48.37-2.75,5.25-4.45,6.93-4.83l3.01-.67c.59.51,1.19,1.32,1.5,1.92l1.98,3.78,1.92-3.81c3.95-7.86,2.4-13.48.9-18.91-1.14-4.15-2.32-8.43-1.12-14.16l.02-.1c.5-3.06,1.95-4.86,4.44-5.5,2.79-.72,5.86.21,5.88.22l.32.1h.33s.03,0,.05,0c3.28,0,4.85-1.34,5.59-2.46.49-.75.73-1.56.8-2.34,1.52.11,2.67-.34,3.41-.82,1.29-.83,2.04-2.1,2.46-3.19.1.01.2.02.29.04l3.77.51-1.45-3.52s-.04-.09-.06-.13c2.03.3,3.41-.3,4.25-.93,1.24-.93,1.83-2.28,2.11-3.41l5.72-.57-4.77-3.95-.15-.12c-20.34-14.01-40.94,10.68-57.48,30.52-1.46,1.75-2.89,3.47-4.3,5.14-16.33,19.3-37.19,14.83-38.07,14.63l-3.45-.8c-1.58-2.2-2.95-4.35-3.76-6.04.88.32,1.69.7,2.19,1.11l2.79,2.3.75-3.55c.04-.21,1.13-5.07,6.09-5.45l.25-.02c4.65-.25,6.06,2.94,6.2,3.28l1.15,3.12,2.41-2.29c.82-.78,1.92-2.02,2.3-3.37,1.43-.81,2.84-1.48,3.29-1.54l1.12-.06v.03s4.63-6.61,4.63-6.61c3.43-4.89,5.31-7.71,5.11-9.79l4.87-6.93-.04-.75c-.05-1.1-.91-2.47-3.18-2.68-.91-.08-3.04-.7-4.02-1.36-1.45-.97-7.71-3.13-12.45-3.78.41-2.03.09-2.73-.08-3.08l-.47-1.02-1.1-.21c-3.83-.73-11.29-5.32-17.29-9-4-2.46-7.46-4.58-9.51-5.38l-.32-.1c-2.82-.62-7.88-.75-15.03-.39-3.1.16-5.37.35-5.46.36l-5.21.44,4.28,3.66c-5.69,2.08-16.53,7.01-24.93,16.64-1.14,1.3-1.99,2.65-2.82,3.96-1.6,2.52-3.11,4.9-6.65,7l-3.86,2.29,4.18,1.63c3.46,1.35,5.77,1.82,7.61,1.9-1.65,2.44-2.59,4.47-3.44,6.34-1.9,4.14-3.4,7.41-12.7,13.68l-3.51,2.37,3.96,1.5c4.46,1.68,8.68,2.44,12.54,2.24,1.07-.05,2.11-.18,3.13-.38.06,3.17-.6,5.81-4.27,12.65l-1.46,2.71,3.04.48c3.99.63,8.04-.27,10.97-1.65-.03,3.8-.35,9.35-1.68,12.5l-1.6,3.77,4.02-.76c1.42-.27,3.52-.67,5.68-1.41l.17.89c5.3,27.53-4.48,46.38-9.18,55.43-2.03,3.92-7.05,7.43-13.1,9.18-6.49,1.87-12.79,1.43-17.31-1.22-4.42-2.59-7.53-10.14-6.95-16.85.24-2.71,1.31-7.5,5.86-9.19,12.23-4.54,14.87-13.04,14.98-13.4l1.17-3.96-1.12.36c3.32-5.37,2.87-11.59,1.79-14.96l-1.78-5.54-2.32,5.34c-.76,1.75-3.38,3.04-5.46,3.36-.15.02-.3.05-.45.09,2.48-6.39,5.14-16.78,1.72-26.8-1.69-6.93-5.4-12.18-11-15.61-11.87-7.25-28.16-3.77-29.98-3.35C3.35,58.01,1.66,75.28,1.64,75.46l-.59,6.82,1.85-2.17c-.44,2.9.23,5.94,1.99,9.06,4,7.07,2.05,10.46,1.76,10.89l-6.66,7.21,9.18-3.79c.15-.06,15.3-6.98,16.05-22.19.13-1.26-.04-2.73-.23-4.43-.38-3.33-.86-7.47,1.31-9.68,1.81-1.84,5.46-2.49,10.84-1.94,6.21.64,10.71,3.59,13.36,8.79,4.29,8.42,2.89,21.87-3.41,32.72-6.32,10.88-13.62,32.7-7.87,48.19,2.56,6.9,7.36,11.61,14.27,14.01,9.65,3.35,17.25,2.43,22.19.87-4.46,12.5,2.64,21.75,5.5,24.12.86,1.02,2.33,2.09,4.16,3.42,3.9,2.84,9.25,6.73,10.36,11.33.01.06.03.11.04.17l-1.04,1.07s-3.33,3.35-13.68,7.47c-5.26,2.09-8.72,6.36-10.02,12.35-.95,4.35-.4,8.09-.38,8.25l.55,3.66,1.06-.81c-.1.37-.19.73-.25,1.07-.55,3.29-.3,8.44-.29,8.66l.2,3.91,6.85-4.7c1.42,4.91,4.36,12.58,5.63,15.16.78,1.58.72,2.96.64,4.55-.11,2.43-.25,5.45,2.98,8.69,3.12,3.13,8.13,1.89,10.59,1,2.43,2.01,4.84,2.83,7.18,2.46,1.41-.22,2.54-.85,3.4-1.54l2.25,3.19,1.64-3.26c.58-1.14.91-2.18,1.08-3.12.13.16.26.33.39.5l.11.14c1.91,2.45,4.03,3.03,5.47,3.08,1.66.07,3.13-.52,4.27-1.2l1.88,3.7,1.86-4.24c1.51-3.44,1.49-6.76-.04-9.61-1.81-3.36-5.58-5.69-10.62-6.55-8.39-1.44-15.35-6.23-16.41-7.55-6.72-8.33-4.66-22.52-4.45-23.79.81-2.84,2.05-3.13,6.55-3.78,4.59-.66,11.53-1.65,20.23-7.96,4.72-3.18,12.27-12.4,12.59-12.8l.58-.71-.1-.91c-.04-.35-.73-6.35-4.18-13.65,3.96,1.9,10.51.19,14.51-2.04,6.26-3.48,14.32-5.14,17.09-4.25.33.11.67.2,1.01.28l-.06.14c-.25.62-6.04,15.35-6.88,18.76l-.09.36c-1.08,4.31-1.31,8.74,7.58,15.57,1.58,1.59,4.22,4.45,4.89,5.7,1.6,3.02,4.62,3.35,4.96,3.38l2.31.18c1.27,1.11,2.84,1.84,4.77,1.84,3.89.02,6.43-.28,7.41-.86l2.29-1.35-1.77-1.99c-.61-.68-1.2-1.41-1.73-2.11,2.32.51,4.93,1.06,6.22,1.29,1.65.28,3.58,2.47,3.85,3.14.02.06,2.45,5.95,7.16,6.79,1.42.25,3.45.1,5.67-1.69,2.02,1.36,4.98,2.36,7.95.92l1.82,2.1,1.56-2.58c.05-.09.25-.42.43-.95,1.68,1.79,3.38,2.17,4.65,2.08,1.29-.08,2.45-.66,3.33-1.42l2.82,1.56.53-3.03c.67-3.8-.83-11.68-11.28-14.28-4.76-1.19-9.32-1.91-13.74-2.62-3.68-.59-7.16-1.14-10.1-1.87-.86-.25-1.74-.5-2.52-.71-.94-.3-1.76-.6-2.51-.93l-.4-.17c-5.13-2.26-15.81-6.96-14.56-9.9.26-.62.9-1.7,1.64-2.96.88-1.49,1.98-3.35,3.04-5.44,11.11-18.26,11.51-33.01,1.26-46.4l-.54-.7-.87-.13c-14.67-2.22-31.83,1.97-43.64,5.87-.27.09-.56.19-.85.29-2.23.77-4.87,1.68-7.83,1.01,3.35-3.33,7.22-6,11.54-7.94,20.17-9.08,21.72-26.42,21.78-27.15l.18-2.35c2.6-1.41,4.84-3.21,6.33-5.04,1.8,1.61,2.49,3.62,2.49,3.64l.87,2.73c-.71,1.61-1.43,2.64-2.63,3.02l-3.05.96,2,2.5c.92,1.15,2.27,1.71,4.13,1.71.17,0,.33,0,.51-.01,4.86-.25,14.04-3.09,17.94-7.6,3.7-4.3,16.11-12.92,25.67-13.4,2.02-.11,3.79.17,5.27.82,2.59,1.13,4.75,1.64,6.58,1.55,2.34-.12,3.71-1.2,4.44-2.09.92-1.12,1.3-2.45,1.45-3.57,2.3-.44,3.59-1.58,4.29-2.53.86-1.18,1.16-2.49,1.22-3.59l5.37-.74-3.44-3.12c.88-.38,1.57-.93,2.1-1.56l2.84,2.52.54-4.09c.42-3.17-.83-5.98-3.43-7.7Z"/>
      <g>
        <g>
          <path class="cls-4" d="m222.93,221.23c-8.73-2.18-17.23-2.85-23.94-4.51-13.49-3.95-29.51-5.49-22.99-18.3,4.31-8.47,18.68-31.33,6.71-46.4-11.97-3.59-20.09-2.77-28.69.36-7.88,4.16-18.53,7.79-28.04,4.67l-10.3,7.56s2.31,5.44,7.38,11.98c3.98,5.12,6.98,9.04,8.96,11.86,2.03,2.88,9.14,1.75,13.85-.87,6.33-3.52,15.14-5.62,18.84-4.42,1.12.36,2.35.51,3.57.47,0,0,4.88.04,7.51-3.14,0,0-.08.16-.22.42-.71,1.26-3.24,4.96-8.54,5.56,0,0-5.98,15.18-6.79,18.49-.8,3.25-2.13,6.92,6.81,13.77,0,0,4.29,4.28,5.37,6.33,1.09,2.05,3.2,2.23,3.2,2.23,0,0-1.9-4.25.11-6.18,0,0,1.55,8.35,6.89,8.36,5.34,0,6.28-.74,6.28-.74,0,0-4.46-4.83-4.12-6.53,0,0,7.96,1.84,10.51,2.28,2.55.43,5.07,3.11,5.55,4.35.49,1.24,4.84,9.58,10.69,2.97,0,0,4.3,4.56,8.47.97l1.21,1.62s3.08-5.63-6.62-8.79c0,0,5.71-.99,8.96,5.02,3.25,6.01,6.88,2.88,7.38,1.59,0,0,1.88.89,1.9,1.31.02.42,1.34-9.48-9.89-12.27Z"/>
          <path class="cls-3" d="m151.22,155.98c8.6-3.13,19.44-7.78,31.81-2.89,5.35,10.39,3.1,29.04-7.14,43.9-6.94,10.07,3.15,17.33,23.09,19.74-1.92-.48-3.71-1.03-5.3-1.73-7.8-3.43-18.23-7.92-16.1-12.94.67-1.57,2.79-4.68,4.79-8.61,10.86-17.81,10.97-31.57,1.44-44.03-14.7-2.22-31.92,2.25-42.65,5.79-3.19,1.05-8.06,3.22-13.66-.22l-5.41,4.21s9.82,4.71,29.13-3.21Z"/>
        </g>
        <g>
          <path class="cls-2" d="m93.53,196.08c-15.71-13.97-12.29-25.49-1-42,11.93-17.43,18.68-46.88,18.17-57.03-2.66,1.59-5.7,2.6-8.7,2.53,1.82-2.33,3.17-6.24.08-11.04-1.03,2.21-2.99,3.1-5.02,3.95,5.44,28.27-4.7,47.85-9.39,56.89-4.83,9.31-22.66,15.19-33.48,8.85-9.1-5.33-12.09-25.77-.74-29.99,11.35-4.21,13.91-12.66,13.91-12.66-.85,1.21-5.63,1.84-5.63,1.84,11.12-6.28,7.37-18.7,7.37-18.7-.24,3-4.84,4.53-7.29,4.92-2.45.38-5.57,3.01-5.57,3.01,0,0,9.57-16.34,4.4-31.29-6.09-25.3-38.52-17.42-38.52-17.42-16.86,1.85-18.12,18.07-18.12,18.07,1.71-3.46,7.14-3.83,7.14-3.83-1.07.55-9.81,5.95-4.26,15.79,5.56,9.83.52,14.1.52,14.1,0,0,.42-.15,1.12-.45,3.84-4.14,8.74-12.21,8.84-26.55,1.21-13.47,6.15-15.9,20.78-14.35,16.04,1.7,25.79,21,12.47,46.77-8.75,16.94-13.63,47.05,4.66,54.04,16.36,6.25,28.41-2.2,28.41-2.2-1.03,2.3-2.34,4.41-3.82,6.34.33-.21.5-.33.5-.33-8.38,13.82-.57,24.66,2.5,27,2.07,2.73,13.24,8.06,15.1,15.8.85,3.51,2.48,5.54,4.02,6.73-4.95-5.6-.08-11.33-8.47-18.78Z"/>
          <path class="cls-4" d="m55.29,161.51c-18.26-7.05-11.42-36.93-2.66-53.87,13.32-25.77,5.82-47.44-16.13-48.49-14.7-.7-17.92,2.43-19.12,15.9-.1,14.33-5,22.41-8.84,26.55,3.49-1.55,14-7.3,14.62-20.62.6-5.23-6.04-20.14,14.34-18.06,20.38,2.09,21.85,27.21,11.63,44.82-9.57,16.49-17.84,51.05,5.22,59.06,14.36,4.98,23.89-.13,26.03-1.48,1.48-1.93,5.67-10.18,6.43-14.51,0,0-12.06,18.21-31.52,10.7Z"/>
        </g>
        <path class="cls-2" d="m240.96,17c-21.51-16.84-43.24,13.54-60.7,34.18-17.45,20.63-40.25,15.36-40.25,15.36.97,1.05,2.44,2.77,3.61,4.3,4.41,2.49,9.1,4.89,13.78,7.06,7.41,1.95,12.23.03,22.96,2.8,3.91-5.1,4.79-7.32,6.72-8.78,4.21-3.19,7.73-3.86,7.73-3.86-2.61-2.25.44-12.75.44-12.75.09,1.81.63,6.38,4.43,7.19,2.99.63,4.68,4.22,4.68,4.22,2.08-14.41-6.13-17.5-1.78-26.86,2.48-5.34,6.06-6.95,8.71-7.34,3.47-.9,7.1.25,7.1.25,6.24.02,3.8-5.53,3.8-5.53l1.61.49c4.62,1.47,5.25-3.9,5.25-3.9.68-.03,3.12,1.09,3.12,1.09-2.85-6.89-9.14-3.4-10.6-3.21-1.47.19.59-1.73.59-1.73,5.04-3.66,10.25.61,10.25.61,5.43,1.77,5.25-3.9,5.25-3.9l3.31.29Z"/>
        <path class="cls-4" d="m233.01,84.15c-8.93,5.26-17.06,7.17-26.04,7.62-30.7,1.56-61.8-17.44-61.8-17.44,1.88,3.03,1.19,9.11,1.19,9.11-1.35-4.11-3.56-8.58-7.01-13.35,0,0-9.67-11.26-9.06-15.58,0,0,4.5.76,6.58,2.48,0,0,1.32-6.69,8.07-7.19.1,0,.2-.01.31-.02,6.51-.33,8.37,4.71,8.37,4.71,0,0,2.21-2.09,1.66-3.06,0,0,3.63-2.2,5.07-2.28.1,0,.19,0,.27.02,0,0,1.12-1.42,2.56-3.38-.85.52-1.91.89-2.91.94-1.01.05-1.96-.22-2.58-1-1.66-2.08-8.3-.25-10.43-1.47-1.27-.73.92-3.29,4.37-4.79,1.37-.59,2.93-1.02,4.56-1.1,1.17-.06,2.38.06,3.56.42,4.55,1.4,5.21,3.41,5.11,4.65,2.49-3.55,5.03-7.64,4.45-8.77-1.1-2.1-2.4-5.01-2.4-5.01,0,0,4.33.61,4.54,1.43l2.77-3.94s-.02-.5-1.18-.6c-1.16-.1-3.68-.81-5.05-1.73-1.37-.92-9.95-3.79-14.07-3.58h0s1.15-3.37.78-4.17c-6.84-1.31-22.3-12.6-27.2-14.5-3.31-.73-9.8-.58-14.46-.34-3.1.16-5.39.35-5.39.35l3.28,2.81s-16.32,4.15-27.7,17.21c-3.15,3.62-4.09,7.91-10.01,11.41,6.54,2.55,8.34,1.68,11.62,1.34-9.36,10.69-3.69,13.64-19.73,24.45,4.56,1.72,8.42,2.27,11.66,2.11,1.99-.1,3.74-.47,5.28-1,.41,5.4.31,7.76-4.38,16.5,5.74.91,11.49-1.79,12.73-3.61.03.07.68,11.75-1.76,17.49,4.05-.77,11.54-2.32,12.32-7.92,0,0,7.52,4.54,5.6,12.45,0,0,10.43-4.68,9.98-12.32,6.26,2.43,10.2,5.58,14.09,8.88-.48-29.03-47.5-37.73-13.26-59.58-31.51,23.48,18.11,27.55,17.44,62.37,7.81,9.12,8.19,22.81,20.95,22.37,6.72-.23,13.48-4.99,15.27-8.65,3.9,2.03,5.32,6.43,5.32,6.43,1.38-4.02,5.36-4.47,6.35-4.52-5.6,1.53-4.1,10.88-9.69,12.64.46.57,1.2.96,2.82.88,4.39-.22,13.03-2.95,16.4-6.84,3.79-4.4,16.79-13.64,27.23-14.17,2.25-.11,4.37.18,6.27,1.01,2.43,1.06,4.24,1.43,5.59,1.36,4.58-.23,3.84-5.48,3.84-5.48.2,0,.4,0,.59-.01,6.25-.32,4.8-5.59,4.8-5.59l3.05-.38c-1.46-1.89-3.75-2.36-5.97-2.24-3.3.17-6.43,1.63-6.43,1.63,1.12-2.95,3.27-3.77,5.11-3.86,1.76-.09,3.23.49,3.23.49,1.18.38,2.15.5,2.96.46,3.39-.17,3.82-3.3,3.82-3.3l2.13,1.82c.84-6.34-7.51-9.69-15.47-5ZM137.84,17.11c3.08-1.02,7.57,1.82,11.34,5.58-3.1-1.48-11.17-1.95-11.17-1.95,0,0,2.24-1.03,3.99-1.3-1.89-1.32-4.16-2.32-4.16-2.32Z"/>
        <path class="cls-4" d="m120.07,146.14c-3.13.21-6.61.32-8.99-1.72,6.55-1.9,12.55-5.62,17.17-10.64-4.36.11-8.74-.74-12.74-2.47,6.04-2.31,12.54-5,15.75-10.61-2.38.5-5-.44-6.54-2.32,5.93-1.51,12.22-3.25,16.43-7.64-4.76-9.16-6.71-11.61-13.25-16.66-1.75-1.35-5.74-4.62-9.4-6.2-.95,3.34-3.99,6.86-7.82,9.16.51,10.15-6.24,39.6-18.17,57.03-11.29,16.51-14.71,28.03,1,42,8.38,7.45,3.52,13.18,8.47,18.78,1.85,1.43,3.55,1.62,3.55,1.62-7.54,1.18-9.11-5.1-9.11-5.1,0,0-3.34,3.57-14.46,8-11.13,4.43-8.93,18.61-8.93,18.61.23-2.17,5.11-4.34,5.11-4.34,0,0-3.35,5.5-3.88,8.6-.52,3.09-.26,8.18-.26,8.18,1.02-.05,6.25-4.29,6.25-4.29-.18.91,3.81,12.93,6.21,17.81,2.4,4.87-1.25,8.19,3.21,12.67,3.04,3.05,9.49,0,9.49,0,6.8,6.58,10.33-.07,10.33-.07l1.85,2.97c4.23-8.39-6.64-10.11-6.64-10.11,5.98-.76,7.8,1.66,11.81,6.78,4,5.13,8.85,0,8.85,0l1.05,2.78c2.87-6.55-1.25-12.75-9.18-14.11-8.96-1.54-16.35-6.58-17.76-8.34-7.74-9.6-4.89-25.66-4.89-25.66,2.49-9.09,11.4-1.26,27.71-13.09,4.51-3.03,12.21-12.22,12.21-12.22,0,0-1.33-11.53-9.46-21.86-8.54-10.85-9.37-19.1-9.37-19.1q3.26,1.86,3.49,2.49c-8.44-9.02-3.03-17.81.91-20.96Z"/>
        <path class="cls-2" d="m142.05,112.48c-.31-.6-.6-1.17-.89-1.73-4.21,4.39-10.5,6.12-16.43,7.64,1.54,1.89,4.16,2.82,6.54,2.32-3.22,5.61-9.72,8.3-15.75,10.61,4,1.73,8.38,2.59,12.74,2.47-4.62,5.01-10.62,8.74-17.17,10.64,2.38,2.04,5.86,1.93,8.99,1.72-3.93,3.14-7.49,9.15-6.33,14.03.8,3.37,5.48,10.92,5.48,10.92,0,0,4.61-18.26,23.21-26.63,19.23-8.65,20.5-25.33,20.5-25.33,0,0-14.08,6.62-20.88-6.66Z"/>
        <path class="cls-6" d="m78.05,33.18c1.81-1.23,3.35-2.31,4.76-3.7,1.43-1.28,2.79-2.7,4.17-4.08,2.77-2.78,5.65-5.64,8.96-8.2,3.29-2.55,7.03-4.8,11.14-6.2,4.1-1.38,8.58-1.91,12.75-.89-3.86,1.92-7.21,3.73-10.37,5.85-3.17,2.09-6.15,4.39-9.25,6.77-3.09,2.37-6.27,4.85-9.89,7-1.83,1.05-3.73,2.05-5.83,2.71-2.03.73-4.35,1-6.45.73Z"/>
        <path class="cls-6" d="m71.92,59.16c2.39-.95,4.08-2.44,5.46-4.19,1.38-1.76,2.52-3.72,3.6-5.76,2.18-4.08,4.17-8.44,6.6-12.74,2.43-4.28,5.22-8.6,9.09-12.21,1.94-1.78,4.17-3.38,6.67-4.39,2.49-1.01,5.24-1.42,7.74-.89-4.73,1.96-7.7,5.26-10.29,8.94-2.58,3.7-4.74,7.84-7.11,12-2.37,4.16-4.86,8.47-8.18,12.42-1.68,1.95-3.59,3.84-5.9,5.26-2.3,1.4-5.18,2.18-7.67,1.58Z"/>
        <path class="cls-6" d="m82.88,75.05c1.7-3.81,2.52-7.28,3.1-10.92.59-3.62.95-7.36,1.68-11.26.74-3.87,1.8-8.05,4.29-11.81,1.24-1.85,2.87-3.54,4.8-4.67,1.93-1.13,4.05-1.73,6.15-1.72-1.55,1.42-2.86,2.79-3.85,4.28-.99,1.48-1.67,3.02-2.21,4.64-1.07,3.23-1.58,6.81-2.31,10.58-.71,3.76-1.59,7.76-3.32,11.61-.88,1.91-1.97,3.78-3.36,5.4-1.39,1.62-3.05,3.02-4.97,3.87Z"/>
        <path class="cls-6" d="m126.36,86.14c-1.85-2.25-3.68-4.2-5.67-6.02-1.97-1.84-4.06-3.61-6.06-5.63-2-2.01-3.89-4.32-5.27-6.93-1.38-2.61-2.24-5.48-2.33-8.39,1.68,2.39,3.22,4.61,4.95,6.65,1.71,2.05,3.57,3.92,5.5,5.87,1.92,1.95,3.92,4,5.6,6.4,1.67,2.39,2.97,5.16,3.29,8.06Z"/>
        <path class="cls-6" d="m92.41,87.52c.87-1.88,1.61-3.62,2.09-5.36.49-1.73.75-3.41.83-5.1.19-3.36-.27-6.83-.67-10.55-.41-3.71-.8-7.68-.39-11.8.41-4.07,1.74-8.4,4.69-11.36-.19,4.12.19,7.62.82,11.22.6,3.59,1.41,7.23,1.85,11.18.42,3.91.5,8.25-.92,12.45-.71,2.08-1.8,4.05-3.23,5.66-1.43,1.61-3.15,2.88-5.06,3.66Z"/>
        <path class="cls-6" d="m11.15,98.28c1.17-2.79,2.2-5.36,2.79-8.01.62-2.64.84-5.3.93-8.08.11-2.77.08-5.69.6-8.72.12-.75.28-1.5.53-2.25.13-.37.2-.74.37-1.11l.49-1.07.26-.52.33-.49c.22-.32.43-.65.67-.95.49-.6,1.09-1.1,1.64-1.58-1.1,2.83-1.24,5.47-1.15,8.22.09,2.75.38,5.62.26,8.62-.1,2.99-.65,6.13-1.97,8.96-1.31,2.82-3.31,5.26-5.76,6.98Z"/>
        <path class="cls-6" d="m12.77,91.46c-.11-1.53-.12-2.86-.28-4.14-.14-1.28-.39-2.5-.6-3.86-.21-1.35-.35-2.92-.01-4.46.33-1.53,1.09-2.94,2.23-3.94,0,1.53-.03,2.85.12,4.1.13,1.25.41,2.46.62,3.85.21,1.38.31,2.95-.02,4.46-.32,1.51-1.01,2.91-2.07,4Z"/>
        <path class="cls-6" d="m7.35,71.51c.47-2.48,1.81-4.8,3.59-6.67,1.8-1.88,4.03-3.31,6.39-4.31,2.37-1,4.87-1.59,7.37-1.82,2.51-.22,5.03-.13,7.48.46-2.42.67-4.77,1.21-7.05,1.86-2.28.64-4.5,1.37-6.63,2.26-2.12.9-4.14,1.97-6,3.31-1.88,1.34-3.55,2.97-5.15,4.91Z"/>
        <path class="cls-6" d="m98.95,33.6c.84-1.9,1.84-3.54,3.01-5.11,1.18-1.55,2.53-3,4.11-4.26,1.58-1.25,3.43-2.33,5.57-2.83.52-.15,1.08-.2,1.63-.22.54-.07,1.12.04,1.65.11.54.07,1.07.31,1.55.5.48.25.91.58,1.3.9-2.1.13-3.6.8-5.03,1.66-1.43.86-2.79,1.92-4.19,3.03-1.41,1.11-2.85,2.26-4.4,3.37-1.56,1.09-3.23,2.17-5.2,2.86Z"/>
        <path class="cls-6" d="m112.15,4.17c1.97-.62,3.96-.91,5.98-1,2.02-.08,4.08.08,6.1.56,4.03.94,7.88,3.31,10.03,6.83-1.89-.82-3.63-1.64-5.39-2.29-1.76-.66-3.52-1.19-5.33-1.62-1.81-.43-3.67-.77-5.57-1.13-1.9-.37-3.85-.72-5.82-1.34Z"/>
        <path class="cls-6" d="m104.09,19.37c.8-1.29,1.96-2.32,3.21-3.16,1.26-.84,2.64-1.49,4.09-1.93,1.45-.44,2.99-.67,4.53-.6,1.52.07,3.14.49,4.28,1.51-1.49-.25-2.85-.15-4.21.05-1.36.21-2.69.56-4.02.95-1.32.4-2.64.86-3.94,1.39-1.31.53-2.59,1.12-3.94,1.78Z"/>
        <path class="cls-2" d="m117.51,32.68c-31.51,23.48,18.11,27.55,17.44,62.37,4.88,5.7,6.86,13.19,10.77,17.89.22-18.62-10.99-38.5-17.28-42.59,2.08.49,6.82,1.88,10.64,6.04-4.32-10.7-18-25.04-23.85-26.77,1.45-.39,5.11.89,7.4,2.83,2.05-6.21-12.8-13.95-5.27-19.67"/>
        <path class="cls-1" d="m120.96,32.05c.02.55,0,1.06,0,1.54.09.5.09.96.2,1.4.24.89.51,1.68.97,2.46.83,1.56,2.01,3.12,3.02,4.97,1.01,1.83,1.81,4.01,1.87,6.26.07,2.24-.55,4.41-1.71,6.18-.26-2.14-.47-4.02-1.01-5.76-.51-1.75-1.31-3.33-2.23-5.01-.89-1.68-1.98-3.49-2.53-5.71-.29-1.09-.31-2.31-.09-3.43.15-.55.36-1.09.57-1.58.3-.47.61-.92.95-1.32Z"/>
        <path class="cls-1" d="m134.26,73.88c2.37,1.63,4.37,3.8,6.08,6.12,1.72,2.33,3.13,4.88,4.3,7.53,1.13,2.67,2.03,5.44,2.54,8.3.52,2.85.69,5.78.28,8.63-.42-2.84-1.02-5.58-1.8-8.27-.79-2.68-1.73-5.31-2.85-7.86-1.09-2.57-2.37-5.05-3.77-7.47-1.42-2.41-2.98-4.74-4.78-6.98Z"/>
        <path class="cls-1" d="m123.23,35.48c.59,1.63,1.49,2.64,2.46,3.69.98,1.03,2.07,2.04,3.13,3.19,1.05,1.15,2.12,2.42,2.89,4.04.37.81.66,1.72.66,2.68,0,.95-.28,1.9-.9,2.53-.24-1.75-1.11-2.67-2.07-3.7-.97-1.01-2.09-2.01-3.16-3.17-1.06-1.16-2.12-2.47-2.86-4.07-.36-.8-.63-1.68-.7-2.59-.05-.91.08-1.84.54-2.59Z"/>
        <path class="cls-1" d="m133.1,24.89c1.16-.85,2.42-1.48,3.75-1.98,1.33-.49,2.73-.84,4.17-.96,2.88-.25,5.93.45,8.16,2.25-1.43-.13-2.77-.29-4.09-.35-1.32-.06-2.61-.01-3.91.09-1.3.11-2.61.28-3.95.47-1.34.19-2.7.4-4.13.47Z"/>
        <path class="cls-1" d="m104.9,56.98c-1.2-1.37-2.31-2.87-3.11-4.57-.79-1.69-1.42-3.56-1.48-5.54-.11-1.97.31-4.01,1.14-5.82.83-1.82,2.03-3.4,3.37-4.78,2.7-2.74,5.89-4.69,9.07-6.42,1.58-.88,3.19-1.67,4.73-2.55.78-.42,1.52-.89,2.21-1.41.69-.52,1.35-1.12,1.64-2,.05.94-.48,1.85-1.05,2.58-.58.76-1.26,1.41-1.95,2.03-1.4,1.21-2.87,2.29-4.34,3.34-2.91,2.11-5.81,4.12-8.17,6.53-2.38,2.39-4.07,5.24-4.32,8.53-.25,3.29.88,6.72,2.25,10.09Z"/>
        <path class="cls-1" d="m152.76,24.89c1.11-.2,2.26-.15,3.38.02,1.12.17,2.21.48,3.28.86,1.06.41,2.08.89,3.03,1.52.94.62,1.85,1.38,2.42,2.37-.88-.71-1.83-1.21-2.8-1.69-.98-.47-1.98-.89-3-1.26-2.04-.76-4.1-1.4-6.3-1.82Z"/>
        <path class="cls-1" d="m141.16,41.47c1.89-1.16,3.64-2.33,5.31-3.65,1.69-1.29,3.2-2.84,5.43-3.87,1.1-.52,2.4-.7,3.61-.62,1.21.15,2.34.47,3.37.96,2.09.92,3.83,2.29,5.46,3.76-2.07-.77-4.01-1.73-6.01-2.3-1.99-.59-3.93-.82-5.63.03-.88.35-1.73.95-2.61,1.54-.9.58-1.78,1.24-2.75,1.78-1.91,1.14-4.01,1.99-6.18,2.37Z"/>
        <path class="cls-4" d="m10.5,73.88c-1.23,1.78-2.39,3.57-2.67,5.46-.33,1.87.35,3.75,1.11,5.69.74,1.95,1.6,4.01,1.95,6.21.38,2.19.27,4.47-.39,6.54-.17-2.18-.51-4.21-1.13-6.17-.62-1.96-1.49-3.83-2.3-5.85-.38-1.01-.74-2.09-.95-3.23-.1-.57-.1-1.18-.12-1.76.09-.59.07-1.21.31-1.76.71-2.31,2.41-3.94,4.19-5.12Z"/>
        <path class="cls-3" d="m43.85,137.91c.07,4.4.67,8.77,2.34,12.7,1.63,3.92,4.45,7.27,8.12,9.22,3.66,1.98,8,2.5,12.24,2.07,2.13-.22,4.25-.65,6.34-1.25,2.09-.6,4.14-1.37,6.2-2.17-3.71,2.38-7.86,4.22-12.33,4.97-2.22.4-4.52.46-6.81.2-2.28-.29-4.53-.96-6.59-2.05-2.03-1.12-3.86-2.63-5.32-4.42-1.46-1.8-2.57-3.85-3.3-6-1.49-4.31-1.64-8.92-.89-13.26Z"/>
        <path class="cls-3" d="m54.91,102.79c1.35-4.58,2.56-9.17,3.03-13.84.5-4.64.35-9.37-1-13.75-1.27-4.4-3.9-8.35-7.51-11.18-1.82-1.39-3.86-2.53-6.05-3.34-2.19-.81-4.51-1.29-6.89-1.53,2.38-.21,4.82,0,7.18.59,2.35.62,4.63,1.63,6.67,3.02,2.05,1.38,3.81,3.18,5.27,5.19,1.45,2.02,2.51,4.31,3.23,6.67.7,2.37,1.07,4.82,1.16,7.27.07,2.45-.12,4.89-.54,7.27-.79,4.79-2.45,9.35-4.57,13.62Z"/>
        <path class="cls-6" d="m45.64,133.91c-.04-1.11.14-2.21.45-3.3.35-1.07.85-2.12,1.5-3.07,1.3-1.92,3.15-3.42,5.09-4.51,1.95-1.11,4-1.85,5.99-2.51.99-.34,1.99-.62,2.91-1.01.95-.37,1.82-.82,2.59-1.62-.08.55-.33,1.09-.65,1.57-.33.48-.73.9-1.15,1.29-.86.75-1.79,1.37-2.73,1.92-1.88,1.09-3.74,1.98-5.48,2.98-1.74.99-3.36,2.06-4.77,3.42-1.44,1.33-2.61,2.98-3.76,4.87Z"/>
        <path class="cls-6" d="m49.43,120.86c.06-2.22.82-4.38,1.92-6.32,1.11-1.94,2.58-3.67,4.27-5.12,1.68-1.46,3.59-2.64,5.62-3.52,2.03-.85,4.2-1.44,6.41-1.43-1.85,1.2-3.6,2.3-5.27,3.5-1.68,1.18-3.27,2.41-4.8,3.72-1.52,1.31-2.96,2.7-4.31,4.21-1.36,1.51-2.59,3.14-3.83,4.96Z"/>
        <path class="cls-1" d="m94.77,189.78c-1.69-2.01-2.95-4.34-3.93-6.77-.96-2.45-1.61-5.04-1.83-7.72-.21-2.66.02-5.48,1.13-8.05.14-.32.28-.64.43-.95.19-.3.37-.6.57-.89.35-.6.87-1.09,1.35-1.59.23-.26.51-.46.8-.65.28-.19.56-.39.85-.57.6-.32,1.25-.53,1.85-.73-1.99,1.75-3.11,3.88-3.62,6.14-.53,2.26-.55,4.66-.37,7.06.19,2.41.59,4.83,1.09,7.27.48,2.45,1.1,4.89,1.67,7.45Z"/>
        <path class="cls-1" d="m108.83,210.23c1.2.86,2.32,1.67,3.48,2.33,1.16.66,2.36,1.18,3.59,1.49,1.23.31,2.49.43,3.78.27,1.29-.16,2.58-.56,3.96-1.1-.86,1.2-2.13,2.13-3.6,2.62-1.47.5-3.12.54-4.63.15-1.52-.38-2.89-1.17-4.01-2.17-1.12-1-2.02-2.22-2.56-3.59Z"/>
        <path class="cls-1" d="m86.59,227.2c.77,1.14,1.52,2.15,2.53,2.82.49.34,1.04.58,1.64.72.6.14,1.24.16,1.93.14-.57.4-1.28.61-2.02.59-.74,0-1.47-.26-2.08-.67-1.22-.84-1.94-2.23-2-3.6Z"/>
        <path class="cls-1" d="m120.13,211.23c-3.26-1.16-6.27-2.98-8.97-5.18-2.72-2.19-5.12-4.79-7.09-7.71-1.96-2.92-3.52-6.17-4.26-9.66-.76-3.45-.68-7.24.87-10.37-.31,3.45.3,6.67,1.38,9.73,1.11,3.05,2.67,5.92,4.5,8.63,1.83,2.71,3.92,5.25,6.19,7.67,2.28,2.41,4.75,4.66,7.39,6.89Z"/>
        <path class="cls-1" d="m97.19,267.93c-3.17-1.07-5.85-3.65-7.49-6.67-1.7-3.02-2.55-6.38-3.09-9.65-.54-3.29-.75-6.56-1.03-9.75-.16-1.59-.32-3.18-.66-4.71-.31-1.54-.86-3.01-1.91-4.31,1.5.77,2.58,2.29,3.3,3.82.72,1.56,1.21,3.19,1.58,4.81.76,3.25,1.15,6.49,1.68,9.65.51,3.16,1.13,6.24,2.24,9.13,1.12,2.88,2.84,5.51,5.38,7.68Z"/>
        <path class="cls-1" d="m205.1,227.53c-2.14-2.32-4.91-3.43-7.72-4.48-2.83-.99-5.76-1.83-8.7-2.76-2.94-.94-5.91-1.94-8.76-3.41-1.42-.73-2.8-1.59-4.04-2.66-1.2-1.09-2.28-2.44-2.68-3.98,2,2.45,4.83,3.47,7.64,4.49,2.85.96,5.79,1.76,8.74,2.71,2.94.94,5.92,1.98,8.74,3.49,1.41.74,2.78,1.63,4,2.7,1.19,1.09,2.27,2.4,2.77,3.91Z"/>
        <path class="cls-1" d="m149.89,79.71c6.01,2.61,12.02,5.02,18.15,7.06l4.61,1.46,4.66,1.29c3.12.78,6.24,1.56,9.41,2.11,1.57.36,3.16.56,4.75.82,1.58.29,3.18.42,4.78.6,1.59.22,3.19.31,4.79.41,1.6.13,3.2.12,4.8.16,1.61.08,3.2-.11,4.8-.13.81,0,1.59-.14,2.39-.21.79-.1,1.6-.15,2.39-.28,3.17-.51,6.28-1.31,9.29-2.65-2.67,1.92-5.79,3.16-8.98,4.09-.8.23-1.62.36-2.43.54-.81.16-1.62.38-2.45.47l-2.47.31c-.82.12-1.65.17-2.48.21-1.65.09-3.31.21-4.97.13-1.66-.02-3.31-.05-4.96-.21-1.65-.12-3.3-.27-4.93-.53-1.63-.24-3.28-.43-4.89-.78-6.48-1.26-12.85-3.09-18.93-5.63-6.09-2.5-11.94-5.56-17.34-9.25Z"/>
        <path class="cls-4" d="m200.61,39.06c-5.29,10.57,1.16,11.38,4.07,24.09,0,0-2.93-2.6-5.6-4.09-2.09-1.16-3.53-5.48-3.62-7.29,0,0-5.38,10.99-2.77,13.24,0,0-5.82-1.31-10.04,1.89-1.92,1.46-4.15,4.6-5.39,10.27-10.73-2.77-15.84,1.07-23.25-.88,10.34,4.81,23.99,10.13,30.92,11.23.75-1.41,4.47-5.93,5.13-10.84.66-4.91,8.63-6.68,8.63-6.68-2.61-2.25-1.71-6.84-1.71-6.84.09,1.81,2.98,5.18,5.06,5.76,2.07.58,3.58,3.45,3.58,3.45,6.5-12.93-3.33-18.67-.4-32.56.76-4.65,3.36-6.58,6.06-7.27-3.02-2.71-8.04,1.25-10.67,6.52Z"/>
        <path class="cls-1" d="m132.03,181.25c1.56-.73,3.05-1.27,4.32-1.99,1.28-.69,2.27-1.54,3.4-2.62,1.12-1.05,2.4-2.2,3.87-3.06,1.47-.86,3.08-1.46,4.79-1.67-1.13,1.32-2.27,2.4-3.33,3.53-1.08,1.11-2.06,2.25-3.29,3.4-.61.57-1.31,1.13-2.09,1.61-.8.45-1.65.84-2.53,1.02-1.76.4-3.5.28-5.13-.22Z"/>
        <path class="cls-1" d="m154.01,178.31c2.26-.76,4.49-1.31,6.65-1.97,2.16-.64,4.24-1.34,6.22-2.22,1.98-.88,3.84-1.94,5.56-3.26,1.74-1.31,3.29-2.9,4.88-4.69-.46,2.35-1.64,4.56-3.27,6.41-1.63,1.85-3.72,3.3-5.96,4.28-2.24,1-4.62,1.56-6.99,1.79-2.38.21-4.75.14-7.09-.34Z"/>
        <path class="cls-1" d="m173.77,155.98c.69.68,1.29,1.24,1.93,1.72.63.48,1.27.88,1.92,1.17.65.28,1.29.47,1.96.44.68-.01,1.42-.29,2.27-.77-.15.95-.84,1.86-1.88,2.29-1.04.42-2.22.29-3.17-.14-.96-.43-1.73-1.13-2.27-1.95-.53-.83-.86-1.79-.76-2.76Z"/>
        <path class="cls-6" d="m205.76,69.32c-.55-3.21-1.59-6-2.79-8.82-1.18-2.82-2.54-5.71-3.33-8.98-.82-3.24-.88-6.91.22-10.16,1.08-3.26,3.05-6.01,5.44-8.18-1.01,3.11-2.02,5.99-2.38,8.88-.39,2.89-.09,5.67.6,8.53.68,2.85,1.74,5.8,2.44,8.98.69,3.16.93,6.67-.2,9.75Z"/>
        <path class="cls-6" d="m201.43,65.49c-.35-1.43-.45-2.7-.77-3.87-.28-1.17-.63-2.23-1.09-3.3-.45-1.07-1.04-2.17-1.53-3.53-.22-.68-.43-1.43-.4-2.22,0-.78.27-1.55.7-2.12.35,1.45,1.01,2.26,1.78,3.24.77.97,1.63,2.09,2.2,3.46.59,1.35.83,2.91.68,4.37-.13,1.47-.72,2.83-1.58,3.98Z"/>
        <path class="cls-6" d="m53.46,119.55c-.01-1.56.34-3.05.96-4.47.63-1.41,1.59-2.75,2.86-3.77,1.26-1.03,2.78-1.71,4.31-2.02,1.53-.3,3.08-.29,4.59.13-1.34.82-2.62,1.43-3.8,2.09-1.18.65-2.24,1.34-3.21,2.12-.98.78-1.86,1.7-2.77,2.71-.92,1.01-1.82,2.12-2.95,3.21Z"/>
        <path class="cls-6" d="m119.39,164.61c-.92-1.9-1.13-4.11-.92-6.22.23-2.12.88-4.19,1.85-6.09.97-1.89,2.27-3.62,3.84-5.05,1.57-1.41,3.45-2.59,5.53-2.98-1.47,1.49-2.67,2.98-3.77,4.55-1.1,1.56-2.07,3.18-2.93,4.85-.86,1.67-1.61,3.4-2.22,5.2-.62,1.81-1.07,3.67-1.38,5.74Z"/>
        <path class="cls-6" d="m121.2,161.77c-.4-2.38-.06-4.94.95-7.25,1.01-2.32,2.69-4.34,4.62-5.91,1.94-1.58,4.12-2.73,6.35-3.62,2.24-.88,4.51-1.49,6.87-1.99-1.82,1.62-3.88,2.84-5.81,4.09-1.95,1.23-3.83,2.46-5.53,3.84-1.7,1.38-3.22,2.91-4.45,4.71-1.26,1.79-2.16,3.84-3.01,6.12Z"/>
        <path class="cls-6" d="m177.81,122.57c3.14-2.07,5.48-4.64,7.86-7.35,2.37-2.7,4.79-5.54,7.76-7.99,2.94-2.44,6.46-4.42,10.23-5.36,3.77-.95,7.65-.97,11.31-.21-3.65.91-7.1,1.78-10.28,3.19-3.19,1.37-6.03,3.26-8.72,5.48-2.69,2.21-5.23,4.77-8.12,7.16-.73.59-1.45,1.18-2.25,1.72-.39.27-.77.55-1.17.8l-1.25.71c-.82.48-1.74.83-2.61,1.18-.89.33-1.85.49-2.75.68Z"/>
        <path class="cls-6" d="m179.45,117.03c1.15-.92,2.26-1.54,3.19-2.33.95-.75,1.76-1.51,2.54-2.38.78-.86,1.53-1.86,2.55-2.87.53-.49,1.11-.99,1.85-1.3.71-.33,1.52-.41,2.22-.26-1.17.93-1.62,1.87-2.19,2.99-.55,1.11-1.21,2.36-2.21,3.45-.98,1.1-2.29,1.98-3.68,2.45-1.39.5-2.87.54-4.27.25Z"/>
        <path class="cls-6" d="m73.73,235.24c-.39-1.95-.12-4.04.63-5.94.76-1.91,2-3.61,3.46-5,1.45-1.4,3.11-2.51,4.82-3.41,1.73-.9,3.49-1.6,5.4-2.17-1.2,1.6-2.67,2.88-4.07,4.12-1.41,1.23-2.8,2.4-4.08,3.63-1.28,1.23-2.45,2.51-3.46,3.94-1.03,1.44-1.86,3.03-2.71,4.84Z"/>
        <path class="cls-6" d="m172.73,223.23c-1.02-1.6-1.87-3.06-2.91-4.35-1.02-1.3-2.18-2.4-3.44-3.64-.62-.64-1.27-1.27-1.87-2.08-.6-.77-1.11-1.73-1.4-2.74-.53-2.09,0-4.1.97-5.68.23,1.88.5,3.55,1.23,4.83.73,1.26,1.92,2.28,3.19,3.55,1.27,1.25,2.56,2.77,3.34,4.55.79,1.77,1.09,3.7.89,5.56Z"/>
        <path class="cls-6" d="m173.21,217.74c-1.09-.82-1.89-1.69-2.75-2.41-.83-.75-1.61-1.36-2.51-1.98-.43-.32-.96-.66-1.49-1.14-.55-.47-1.1-1.22-1.33-1.99-.41-1.58,0-2.88.64-4.05.57,1.22.95,2.4,1.5,3.05.3.31.53.51.95.75.42.26.92.54,1.47.93,1.08.75,2.06,1.83,2.66,3.02.62,1.19.9,2.48.87,3.82Z"/>
        <path class="cls-6" d="m78.31,231.83c-.35-1.12-.29-2.26,0-3.34.31-1.08.91-2.11,1.7-2.93.79-.83,1.76-1.44,2.77-1.83,1.02-.38,2.07-.58,3.24-.5-.59,1.02-1.3,1.77-1.96,2.48l-1.89,1.93c-.6.62-1.17,1.24-1.77,1.93-.62.69-1.24,1.45-2.09,2.26Z"/>
        <path class="cls-6" d="m75.29,248.7c-.18-1.28-.19-2.51-.14-3.75.06-1.23.2-2.47.48-3.7.28-1.23.69-2.46,1.36-3.6.67-1.12,1.63-2.16,2.84-2.64-.65,1.12-1.08,2.17-1.41,3.28-.33,1.1-.58,2.24-.85,3.4-.26,1.16-.53,2.34-.88,3.52-.36,1.18-.77,2.36-1.4,3.49Z"/>
      </g>
    </g>
  </g>
</svg>