<svg xmlns="http://www.w3.org/2000/svg" viewBox="0 0 474.12 117.69">
  <title>gordon-logo-horiz-black</title>
  <path d="M295.5,98.16h5.68v3.65a9,9,0,0,1-5.31,1.54c-4.54,0-7.77-3.45-7.77-8.12v-.08c0-4.36,3.26-8,7.36-8a9.34,9.34,0,0,1,6.69,2.59l3.57-4.3A14.16,14.16,0,0,0,295.64,82a13.17,13.17,0,0,0-13.43,13.27v.07c0,7.57,5.48,13.18,13.48,13.18a16.6,16.6,0,0,0,10.94-4.06V93.29H295.5v4.87Zm-34.75-.52h12.09v-5H260.75v-5.2h13.73v-5H255.16V108h19.51v-5H260.75V97.63ZM208.14,82.42h-5.64V108h18.41V102.9H208.14V82.42Zm26.32,0h-5.64V108h18.42V102.9H234.46V82.42ZM187.95,95.3a7.68,7.68,0,0,1-7.7,8,7.79,7.79,0,0,1-7.76-8v-.08a7.66,7.66,0,0,1,7.68-8,7.79,7.79,0,0,1,7.78,8.05v.07ZM180.25,82a13.28,13.28,0,0,0-13.67,13.27v.07c0,7.28,5.68,13.18,13.58,13.18a13.25,13.25,0,0,0,13.67-13.25v-.08c0-7.29-5.69-13.19-13.59-13.19ZM321.31,97.63h12.07v-5H321.31v-5.2H335v-5H315.7V108h19.52v-5H321.32V97.63h0ZM150,103.28c-4.4,0-7.43-3.66-7.43-8v-.08c0-4.39,3.1-8,7.43-8a9.5,9.5,0,0,1,6.55,2.88l3.57-4.14A13.18,13.18,0,0,0,150,82a13,13,0,0,0-13.36,13.27v.07a12.94,12.94,0,0,0,13.15,13.18,13.08,13.08,0,0,0,10.51-4.58l-3.59-3.63c-2,1.83-3.81,3-6.74,3"/>
  <path d="M345.38,29.6c0,8.25-5.66,13.91-14,13.91h-7.92V15.42h7.92c8.39,0,14,5.79,14,14v.14Zm10.72-.27c0-13.11-10.13-23.16-24.77-23.16H313.17V52.75h18.16c14.64,0,24.77-10.18,24.77-23.29v-.14ZM268.64,15.42h10.18c5,0,8.06,2.26,8.06,6.66v.13c0,3.93-2.87,6.59-7.85,6.59H268.64V15.42Zm18,37.33h12L287.27,36.11c5.93-2.19,10-6.92,10-14.45v-.12a14.66,14.66,0,0,0-4-10.66c-3.07-3.07-7.66-4.73-13.57-4.73H258.4V52.75h10.24V37.84h8.06l10,14.91ZM464,6.16V34.85L442.17,6.16h-9.45V52.75h10.11V23.13l22.55,29.62h8.73V6.16ZM407.81,29.6c0,8-5.72,14.51-14,14.51s-14.11-6.65-14.11-14.64v-.14c0-8,5.73-14.52,14-14.52s14.11,6.66,14.11,14.65v.14Zm-14-24.23C379.46,5.36,369,16.21,369,29.46v.14c0,13.24,10.32,24,24.69,24s24.83-10.85,24.83-24.1v-.13c0-13.23-10.32-24-24.69-24Zm-233,29.41h10.31v6.66a16.33,16.33,0,0,1-9.64,2.79c-8.25,0-14.11-6.26-14.11-14.77v-.13c0-7.92,5.93-14.52,13.38-14.52,5.4,0,8.58,1.73,12.17,4.73l6.47-7.78c-4.86-4.11-9.92-6.38-18.3-6.38-14.12,0-24.43,10.84-24.43,24.09v.14c0,13.77,10,24,24.48,24A30.23,30.23,0,0,0,181,46.17V25.93H160.81v8.85h0Zm72.68-5.18c0,8-5.72,14.51-14,14.51S205.4,37.45,205.4,29.46v-.14c0-8,5.73-14.52,14-14.52s14.1,6.66,14.1,14.65v.14Zm10.72-.27c0-13.24-10.32-24-24.69-24s-24.84,10.84-24.84,24.09v.14c0,13.24,10.32,24,24.7,24S244.2,42.7,244.2,29.46v-.13"/>
  <path d="M58.78,6.44A52.13,52.13,0,1,1,6.64,58.56,52.13,52.13,0,0,1,58.78,6.44ZM3.39,67.08h0a4.7,4.7,0,0,1,1.48,3.42,4.62,4.62,0,0,1-.4,1.9v0a11.51,11.51,0,0,0,6.3,15.24h0a4.66,4.66,0,0,1,2.66,2.59,4.8,4.8,0,0,1,.36,1.9h0a11.5,11.5,0,0,0,11.64,11.68h0a4.69,4.69,0,0,1,3.44,1.38,4.55,4.55,0,0,1,1.06,1.62h0a11.51,11.51,0,0,0,15.25,6.32h0a4.64,4.64,0,0,1,5.27,1h0a11.53,11.53,0,0,0,16.53,0h0a4.66,4.66,0,0,1,3.38-1.44,4.53,4.53,0,0,1,1.91.41v0a11.5,11.5,0,0,0,15.26-6.34,4.66,4.66,0,0,1,2.58-2.6,4.41,4.41,0,0,1,1.93-.35v0a11.5,11.5,0,0,0,11.64-11.71h0a4.7,4.7,0,0,1,1.38-3.39,4.94,4.94,0,0,1,1.66-1.08v0a11.51,11.51,0,0,0,6.27-15.26h0a4.69,4.69,0,0,1,0-3.66,4.89,4.89,0,0,1,1.13-1.63v0a11.51,11.51,0,0,0-.06-16.5h0a4.65,4.65,0,0,1-1-5.33h0A11.51,11.51,0,0,0,106.76,30v0a4.68,4.68,0,0,1-2.63-2.57,4.57,4.57,0,0,1-.36-2h0A11.51,11.51,0,0,0,92.1,13.86v0a4.72,4.72,0,0,1-3.43-1.36,4.86,4.86,0,0,1-1.08-1.69h0A11.54,11.54,0,0,0,72.36,4.53v0a4.63,4.63,0,0,1-3.69.06A4.65,4.65,0,0,1,67,3.43h0a11.51,11.51,0,0,0-16.45,0l0,0a4.64,4.64,0,0,1-3.4,1.47,4.61,4.61,0,0,1-1.94-.43v0A11.51,11.51,0,0,0,30,10.82h0a4.7,4.7,0,0,1-4.54,3v0A11.52,11.52,0,0,0,13.8,25.5h0A4.7,4.7,0,0,1,12.41,29,4.46,4.46,0,0,1,10.75,30l0,0a11.49,11.49,0,0,0-6.31,15.2h0A4.63,4.63,0,0,1,4.49,49a4.58,4.58,0,0,1-1.1,1.6v0a11.52,11.52,0,0,0,0,16.47ZM33.92,21.32a1.47,1.47,0,0,0,.68-.94,1.11,1.11,0,0,0,0-.26,1.5,1.5,0,0,0-.26-.83,1.41,1.41,0,0,0-2-.4l-.69.46,1.61,2.44.68-.46Zm-5,51.3a1.53,1.53,0,0,0,1-.11.6.6,0,0,0,.21-.13A.54.54,0,0,0,30.3,72a.57.57,0,0,0-.05-.23,1.17,1.17,0,0,0-.72-.64,1.24,1.24,0,0,0-.87.06.62.62,0,0,0-.44.52.61.61,0,0,0,.06.34,1,1,0,0,0,.64.57ZM25.73,28.47a1.39,1.39,0,0,0,.38-1,1.54,1.54,0,0,0-.52-1.13h0v0a1.58,1.58,0,0,0-1.12-.41,1.45,1.45,0,0,0-1.36,1.51,1.54,1.54,0,0,0,.52,1.06,1.48,1.48,0,0,0,2.12-.05ZM26,88l.56.57s-.46,3.47-.49,3.72l2.11-2.1.61.62L25.61,94l-.51-.51s.47-3.59.5-3.84l-2.17,2.16-.6-.62L26,88Zm-4.18,2.11-2.13-2.66,3.52-2.83,2.13,2.64-.61.49-1.57-1.94-.83.66,1.4,1.73-.62.49L21.74,87l-.86.68,1.6,2-.63.5Zm-4.22-5.63L19.71,82l-3.18.71-.39-.64,3.08-3.72.49.81-2.18,2.51,3.28-.76.36.63L19,84.1l3.24-.78.48.78-4.71,1-.38-.62Zm-5-23.66a2,2,0,1,1,2-2,2,2,0,0,1-2,2ZM58.78,17a41.6,41.6,0,1,1-41.61,41.6A41.61,41.61,0,0,1,58.78,17ZM19,30.75a2.37,2.37,0,0,1,1.49-1.07h0l.23.83h0a1.68,1.68,0,0,0-1.08.73,1.3,1.3,0,0,0-.24.74,1.57,1.57,0,0,0,.68,1.26h0a1.55,1.55,0,0,0,1.17.29,1.4,1.4,0,0,0,.92-.61A1.68,1.68,0,0,0,22.5,32s0,0,0-.06l-.62-.44-.65.93-.64-.44,1.13-1.62,1.6,1.09v0a2.94,2.94,0,0,1-.49,2,2.27,2.27,0,0,1-3.25.61h0v0a2.31,2.31,0,0,1-1-1.48,1.94,1.94,0,0,1,0-.41A2.36,2.36,0,0,1,19,30.75Zm3.9-4.88a2.3,2.3,0,0,1,3.32-.17A2.34,2.34,0,0,1,26.32,29a2.39,2.39,0,0,1-1.66.8A2.29,2.29,0,0,1,23,29.2h0a2.31,2.31,0,0,1-.77-1.61s0-.07,0-.11a2.39,2.39,0,0,1,.64-1.6Zm4.67-4.4a1.81,1.81,0,0,1,1.3-.5,1.4,1.4,0,0,1,.93.51v0a1.34,1.34,0,0,1,.36.89,1.63,1.63,0,0,1-.25.81l2,.51-.8.67-1.84-.47-.68.58,1,1.19-.67.56L26,22.79l1.53-1.32Zm4.34-3.26a2.26,2.26,0,0,1,3.25.57,2.21,2.21,0,0,1,.34,1.68A2.46,2.46,0,0,1,34.37,22L33,22.92l-2.5-3.77,1.42-.95Zm4.51-2a2.36,2.36,0,0,1,1.23-1.34,2.3,2.3,0,0,1,3.14,1.05h0v0A2.43,2.43,0,0,1,41,17a2.33,2.33,0,0,1-1.36,2.09,2.36,2.36,0,0,1-1.82.12A2.3,2.3,0,0,1,36.53,18h0v0a2.38,2.38,0,0,1-.24-1,2.21,2.21,0,0,1,.13-.75Zm6.07-3.32L45.57,15l-.92-2.83.82-.28,1.41,4.31-.69.23L43,14.25c.08.24,1,2.91,1,2.91l-.83.26-1.41-4.3.75-.25Zm10-2.45a2.33,2.33,0,0,1,1.84.46l0,0-.46.72,0,0a1.69,1.69,0,0,0-1.28-.36,1.36,1.36,0,0,0-.9.51,1.58,1.58,0,0,0-.29,1.18A1.44,1.44,0,0,0,53,14.25a1.63,1.63,0,0,0,1.15-.72l0,0,.64.49,0,0a2.34,2.34,0,0,1-1.7,1,2.27,2.27,0,0,1-2.59-2h0a2.29,2.29,0,0,1,2-2.64Zm3.43,2a2.3,2.3,0,0,1,.66-1.67A2.36,2.36,0,0,1,58.28,10,2.34,2.34,0,0,1,60,14a2.44,2.44,0,0,1-3.37,0,2.28,2.28,0,0,1-.68-1.65h0Zm6.69-2.15.88.1L63.08,14l2.31.26-.09.8-3.17-.35.49-4.5Zm5,.66.84.19-.79,3.63,2.28.49-.18.78-3.12-.67,1-4.42Zm4.89,1.17,3.2,1.07-.26.76-2.37-.8-.33,1,2.11.7-.26.75-2.11-.7c0,.08-.32,1-.34,1l2.41.8-.26.76-3.23-1.08,1.44-4.3Zm3.93,3.8h0a2.31,2.31,0,0,1,3.1-1.12A2.44,2.44,0,0,1,80.84,16l0,0-.78.36,0,0a1.72,1.72,0,0,0-.9-.94,1.46,1.46,0,0,0-1.9.77h0a1.73,1.73,0,0,0-.17.74,1.38,1.38,0,0,0,.84,1.28,1.72,1.72,0,0,0,1,.15s.29-.61.33-.69l-1-.47.34-.7,1.79.85-.82,1.73h0a2.84,2.84,0,0,1-2-.16,2.25,2.25,0,0,1-1.14-3.1Zm9.49,2.59-.41.66-2.12-1.33-.57.9,1.88,1.18-.42.67L82.4,19.35l-.58.92L84,21.63l-.42.68-2.89-1.82,2.41-3.82,2.85,1.79ZM88.78,22l.33-.68,1.2.51.45.4-3,3.45-.66-.57,2.39-2.77L88.78,22Zm2.57,2.44v0h0a1.11,1.11,0,0,1,.8-.3,1.78,1.78,0,0,1,1.19.58,1.75,1.75,0,0,1,.55,1.2h0a1.08,1.08,0,0,1-.33.79h0a1.08,1.08,0,0,1-1.11.26,1.72,1.72,0,0,1,.09.51,1,1,0,0,1-.34.78c-.57.56-1.44.44-2.17-.31a1.94,1.94,0,0,1-.62-1.33,1.15,1.15,0,0,1,.36-.83h0a1.15,1.15,0,0,1,1.3-.23,1.33,1.33,0,0,1-.05-.34,1,1,0,0,1,.33-.75ZM94.74,28v0h0a1.63,1.63,0,0,1,2,2.5,1.09,1.09,0,0,1-1.15.14,1.83,1.83,0,0,1,0,.38,1,1,0,0,1-.4.85v0l0,0c-.63.48-1.49.26-2.14-.55A1.93,1.93,0,0,1,92.59,30a1.15,1.15,0,0,1,.43-.79l0,0a1.16,1.16,0,0,1,1.32-.08,1.59,1.59,0,0,1,0-.21,1,1,0,0,1,.4-.84Zm2.68,4h0a1.54,1.54,0,0,1,1.16-.21,1.74,1.74,0,0,1,1.08.8A1.67,1.67,0,0,1,99.94,34a2.31,2.31,0,0,1-1.16,1.38h0a2.72,2.72,0,0,1-2,.48,1.75,1.75,0,0,1-1.1-.81,2.15,2.15,0,0,1-.31-1.51v0l.82,0v.05a1.5,1.5,0,0,0,.19,1.05c.29.47.9.55,1.57.2a1.33,1.33,0,0,1-.86-.62,1.79,1.79,0,0,1-.31-1,1.51,1.51,0,0,1,0-.3,1.38,1.38,0,0,1,.64-.87Zm3.23,51.07a2.84,2.84,0,0,1-1.59,1.24l0,0-.26-.78h0a1.93,1.93,0,0,0,1.17-.89,1,1,0,0,0,.17-.5.57.57,0,0,0,0-.13.43.43,0,0,0-.18-.26h0c-.25-.14-.46-.11-1,.5s-1.22,1-1.95.6a1.22,1.22,0,0,1-.59-.78,1.62,1.62,0,0,1,.23-1.25,2.49,2.49,0,0,1,1.33-1.11l0,0,.33.74,0,0a2,2,0,0,0-1,.77c-.2.35-.18.68.06.82h0c.24.15.45.1,1.08-.54s1.29-.92,1.91-.57a1.44,1.44,0,0,1,.35,2.12ZM105,56.82a2,2,0,1,1-2,2,2,2,0,0,1,2-2ZM97.74,87.38l-3-2.21-.84,1.14-.66-.48,2.18-3,.67.47-.84,1.15,3,2.2-.51.71Zm-3,3.64L92,88.55,91,89.6,90.41,89l2.46-2.75.61.54-.94,1.06,2.76,2.48-.59.65Zm-4.24,4.2-3.11-3.28L89.8,89.6l.56.58-1.83,1.72.73.77,1.62-1.53.55.57L89.8,93.25l.75.79,1.84-1.75.55.57-2.48,2.36Zm-2.41,2a2.84,2.84,0,0,1-1.93.56h0l0-.84h0a1.92,1.92,0,0,0,1.43-.37A.83.83,0,0,0,88,96a.45.45,0,0,0-.09-.35c-.18-.23-.38-.27-1.15.08-.92.4-1.52.49-2-.18v0a1.26,1.26,0,0,1-.25-.75c0-.05,0-.11,0-.17a1.69,1.69,0,0,1,.69-1.08A2.47,2.47,0,0,1,86.78,93h0l0,.81h0a2,2,0,0,0-1.21.36.75.75,0,0,0-.33.48.16.16,0,0,0,0,.05.39.39,0,0,0,.09.24v0c.18.22.39.24,1.2-.1,1-.43,1.53-.37,2,.18l0,0h0a1.27,1.27,0,0,1,.28.78,1.67,1.67,0,0,1-.75,1.3Zm-4.26,2.89a1.8,1.8,0,0,1-2.69-.71l-1.34-2.23.74-.45,1.32,2.2a1.12,1.12,0,0,0,2.07-.14,1.25,1.25,0,0,0-.21-.94l-1.35-2.22.75-.46,1.32,2.19a1.83,1.83,0,0,1-.61,2.76Zm-3.92,2.06-.78-1.7-1.83.84.78,1.69-.8.37-1.89-4.11.79-.37s.74,1.6.78,1.68l1.83-.84L78,98l.79-.36,1.89,4.11-.8.36Zm-4.13,1a2.3,2.3,0,0,1-1.5,1.33,2.27,2.27,0,0,1-1.74-.11A2.32,2.32,0,0,1,71.35,103h0a2.3,2.3,0,0,1,1.48-3,2.36,2.36,0,0,1,1.89.11l0,0-.32.79,0,0a1.66,1.66,0,0,0-1.31-.13,1.43,1.43,0,0,0-.88,1.87v0a1.44,1.44,0,0,0,1.82,1,1.74,1.74,0,0,0,1-.93l0,0,.72.37,0,0Zm-5.38,2.41-.66-1-2,.42-.21,1.15-.88.18,1-4.87.76-.17,2.9,4-.9.2ZM64,106.73a2.85,2.85,0,0,1-1.95-.51l0,0,.46-.68,0,0a2,2,0,0,0,1.42.42c.45,0,.71-.27.69-.58v0c0-.27-.19-.43-1-.53s-1.54-.35-1.64-1.19v0a1.21,1.21,0,0,1,.26-.91,1.68,1.68,0,0,1,1.16-.57,2.49,2.49,0,0,1,1.69.39l0,0-.4.7,0,0a2.05,2.05,0,0,0-1.22-.32c-.4.06-.65.28-.61.57s.19.43,1.07.54c1.06.13,1.52.47,1.6,1.18v0c.08.82-.49,1.42-1.47,1.53Zm-3-1.11a1.23,1.23,0,0,1-.33.92,1.75,1.75,0,0,1-1.27.47,2.86,2.86,0,0,1-1.9-.7l0,0,.53-.63,0,0a1.93,1.93,0,0,0,1.36.53c.46,0,.74-.19.74-.52s-.15-.44-1-.62c-1-.23-1.51-.51-1.53-1.36a1.42,1.42,0,0,1,1.55-1.36,2.61,2.61,0,0,1,1.64.55l0,0-.47.68,0,0a1.87,1.87,0,0,0-1.17-.43.77.77,0,0,0-.56.19.41.41,0,0,0-.11.3c0,.31.15.44,1,.65,1,.24,1.47.63,1.47,1.31v0h0Zm-5.33,1.27-.36-1.11-2-.18-.54,1-.9-.08,2.4-4.36.78.08L56.61,107l-.92-.08Zm-5.1-.57-.85-.17.65-3-1.71,1.66-.08,0-.87-2.19-.64,3-.83-.18L47.2,101l.89.18.86,2.3,1.72-1.74.88.2-1,4.41ZM42.43,104a1,1,0,0,1-1.33.68l0,0,.05-.41h0c.35.05.56-.05.64-.3l-.31-.12.33-.89.88.32-.27.74Zm-3.19-1,1.3-2.78-2.06,1.24-.06-.05L38.08,99l-1.3,2.76-.78-.36,1.92-4.09.81.38s.31,2.27.33,2.41l2.07-1.3.8.38L40,103.31l-.79-.38Zm-4.38-2.13-.78-.48s.17-1.08.18-1.14l-1.72-1.08-1,.66-.76-.47,4.09-2.81.67.41-.73,4.91ZM29.13,97l1.17-1.46-1.58-1.26-1.16,1.46-.68-.55,2.83-3.53.68.55-1.15,1.44,1.57,1.26L32,93.44l.68.55-2.82,3.53L29.13,97Zm29.64,12.32A50.73,50.73,0,1,0,8,58.56a50.73,50.73,0,0,0,50.73,50.73ZM37.33,17.58a1.47,1.47,0,0,0,2,.74A1.41,1.41,0,0,0,40.12,17a1.66,1.66,0,0,0-.16-.69h0v0a1.46,1.46,0,0,0-2-.74,1.4,1.4,0,0,0-.73.8,1.46,1.46,0,0,0-.08.48,1.61,1.61,0,0,0,.17.71v0Zm55.6,8.55h0a.5.5,0,0,0,.15-.35h0a.83.83,0,0,0-.27-.57.82.82,0,0,0-.57-.28.48.48,0,0,0-.35.14v0h0a.55.55,0,0,0-.16.39A.84.84,0,0,0,92,26a.68.68,0,0,0,1,.11Zm-2.52.18,0,0a.54.54,0,0,0-.16.37,1,1,0,0,0,.34.69c.36.37.79.46,1.06.21h0c.26-.26.19-.7-.17-1.07s-.79-.45-1.06-.21ZM30.15,69.93Zm0,6.11a1.08,1.08,0,0,1-.41.38,1.66,1.66,0,0,1-1.2.13.82.82,0,0,1-.52-.36.51.51,0,0,1,0-.35.36.36,0,0,1,.26-.27h0c.08,0,.14,0,.26.09a1.14,1.14,0,0,0,.84.42.13.13,0,0,0,.06-.06.07.07,0,0,0,0-.06l-.12-.18-.3-.48a1,1,0,0,1-.08-.59,1.55,1.55,0,0,1,.81-.93,2.06,2.06,0,0,1,1.74-.11,1.71,1.71,0,0,1,.93.73.57.57,0,0,1,.07.28.37.37,0,0,1-.18.32h0l0,0h0A.51.51,0,0,1,32,75h0a.2.2,0,0,1-.17-.13v0c-.4-.62-1.18-1.06-1.77-.73a.62.62,0,0,0-.33.35.65.65,0,0,0,.11.5c.06.12.25.44.34.57h0a.45.45,0,0,1,0,.4Zm-2.59-3.57a1.31,1.31,0,0,1,.08-1,1.92,1.92,0,0,1,.91-.88,2.07,2.07,0,0,1,1.28-.11,1.53,1.53,0,0,1,1,.79,1.17,1.17,0,0,1,.07.8h0a1.8,1.8,0,0,1-1,1.16,1.91,1.91,0,0,1-1.43,0,1.6,1.6,0,0,1-.83-.79Zm-1.11-2.94a.49.49,0,0,1,0-.15c0-.19.13-.45.69-.64a13.11,13.11,0,0,1,1.57-.28l.22,0-.07-.22L28.8,68a.68.68,0,0,0-.52-.44c-.06,0-.19-.08-.21-.17a.19.19,0,0,1,0-.06c0-.13.15-.18.21-.19a1,1,0,0,1,.73.11,1.44,1.44,0,0,1,.55.64l.22.74.27.9a.62.62,0,0,0,.23.27h0a.11.11,0,0,1,0,.12.28.28,0,0,1-.16.16h0a2.5,2.5,0,0,1-.58-.07.74.74,0,0,1-.26-.31l-.14-.52-.07-.26h0a8.3,8.3,0,0,0-1.44.31.31.31,0,0,0-.11.13.35.35,0,0,0,0,.24v0a1.17,1.17,0,0,0,.12.24.09.09,0,0,1,0,.11.35.35,0,0,1-.23.18,1,1,0,0,1-.93-.62Zm-1.12-4.32a1.35,1.35,0,0,1,.21-1,1.57,1.57,0,0,1,1-.68,2,2,0,0,1,1.64.34,1.53,1.53,0,0,1,.46.65l0,.11c.06.3.19,1,.24,1.33a.85.85,0,0,0,.25.55.11.11,0,0,1,0,.11.25.25,0,0,1-.14.15h0a2,2,0,0,1-.57,0h0a.35.35,0,0,1-.23-.27l0-.27-.08-.48a1.67,1.67,0,0,1-2.09.32,1.42,1.42,0,0,1-.69-.86ZM25,62.88a.83.83,0,0,1,0-.1.46.46,0,0,1,.2-.41,1.36,1.36,0,0,1,.64-.22L27.07,62l1-.13a.21.21,0,0,1,.2.05s.06.07.06.09,0,.45,0,.53-.17.18-.31.2-.6,0-1,0-.89,0-1.09.06a.24.24,0,0,0-.14,0,.4.4,0,0,0,0,.23.54.54,0,0,0,.07.19h0a.1.1,0,0,1,0,.12.36.36,0,0,1-.27.05h0a.89.89,0,0,1-.59-.6ZM24.79,60a.84.84,0,0,1,.22-.54c-.54,0-1,.12-1.3.16l-.16,0a1.09,1.09,0,0,0-.41.11l0,0h0a.43.43,0,0,1-.18-.17h0v-.05a1.18,1.18,0,0,1,0-.43.53.53,0,0,1,.42-.23l1.1,0,1.82-.06a1.88,1.88,0,0,1,1.63.49,1.43,1.43,0,0,1,.31.79,1.25,1.25,0,0,1-.35.91,1.81,1.81,0,0,1-1.26.57,1.75,1.75,0,0,1-1.29-.44h0a1.45,1.45,0,0,1-.47-1s0-.06,0-.09Zm-.11-2,.06-.47c0-.2.05-.42.06-.6v-.6a.37.37,0,0,1,.12-.24.19.19,0,0,1,.15,0c.13,0,.17.1.24.23v0a.35.35,0,0,0,.08.14h0l.35-.19a11.15,11.15,0,0,0,1-.6h0a13.14,13.14,0,0,0-1.16-1c-.08-.05-.08-.05-.21.11s-.19.19-.29.19a.23.23,0,0,1-.15-.08.29.29,0,0,1-.05-.18s0,0,0-.06L25,54v-.78h0c.06-.26.18-.3.26-.29s.21.16.23.27a1.62,1.62,0,0,0,.39.93c.51.5.94.9,1.35,1.24,0,0,0,0,.08,0a16.52,16.52,0,0,0,1.49-.85,1.12,1.12,0,0,0,.54-.75v0c.07-.2.16-.3.29-.28h0l.12,0a.34.34,0,0,1,.07.23v0l0,.36-.06.47,0,.7s0,.1,0,.1-.12.29-.26.28-.19-.15-.21-.24v0h0c0-.06,0-.09,0-.1s0,0-.09,0l-.29.15a8.37,8.37,0,0,0-.91.52h0c.37.33.7.59,1,.8.11.08.15.09.16.09s.06,0,.12-.19.09-.26.21-.24h0a.24.24,0,0,1,.16.09.28.28,0,0,1,.07.16v0l0,.16,0,.42,0,.6v.34a.32.32,0,0,1-.09.22l-.11,0h0a.32.32,0,0,1-.26-.33,1.53,1.53,0,0,0-.51-1c-.27-.26-.69-.63-1-.93h0s0,0-.07,0-1.44.82-1.69,1a1.22,1.22,0,0,0-.56.79c-.08.25-.2.29-.29.28s-.2-.05-.2-.3a.17.17,0,0,0,0,0Zm6.82,12.92a7.63,7.63,0,0,1,.44-1c.05-.12.16-.25.25-.25h0a.33.33,0,0,1,.25,0,.67.67,0,0,1,.36.27.37.37,0,0,1,0,.31h0c-.16.22-.64.76-.82,1a.35.35,0,0,1-.28.08.2.2,0,0,1-.14-.1.35.35,0,0,1,0-.33Zm2-39.51H84.05c0,22.69,1.48,37.68-20.08,59.48q-2.41,2.44-5.2,5c-1.87-1.72-3.61-3.38-5.22-5C32,69.08,33.49,54.09,33.49,31.4Zm12.63-7.67a.53.53,0,0,1,.31-.25.67.67,0,0,1,.52.07.78.78,0,0,1,.37.49.72.72,0,0,1,0,.22.85.85,0,0,1-.11.4,1.05,1.05,0,0,1-.53.46.32.32,0,0,1-.25,0L46.41,25h0v0h0a.28.28,0,0,1,0-.06.32.32,0,0,1,.11-.23l0,0c.09-.09.21-.22.21-.33a.1.1,0,0,0,0,0c0-.1-.19-.06-.21-.06h0c-.23,0-.38-.09-.41-.24a.39.39,0,0,1,0-.28Zm1.45-.3a.49.49,0,0,1,.28-.21l.16,0c.16,0,.38-.08.63-.15s.47-.14.63-.19l.27-.08a.3.3,0,0,1,.25,0,.21.21,0,0,1,.1.13.3.3,0,0,1-.16.28c-.4.23-.39.27-.3.65l.22.84.23.87.25.92.14.48c.1.31.17.34.66.33.24,0,.31.09.33.17h0v0a.16.16,0,0,0,0,0v.14a.46.46,0,0,1-.26.2h0l-.65.15-.27.06-.54.19-.32.11c-.15,0-.33,0-.36-.12s.06-.26.18-.34c.38-.26.37-.32.36-.42s-.3-1.32-.48-2l-.3-1.07c-.17-.65-.21-.66-.68-.65a.31.31,0,0,1-.33-.18v-.11Zm3.32.94a.72.72,0,0,1,.58-.51A.56.56,0,0,1,52,24h0a1.07,1.07,0,0,1,.22.64c0,.09,0,.28,0,.44a4.25,4.25,0,0,1,.56-1.27,1,1,0,0,1,.57-.33.68.68,0,0,1,.73.47,2.53,2.53,0,0,1,.15.57v0c.11.69.72,4,.76,4.14v.11a.35.35,0,0,1-.19.16c-.18,0-.67-.05-.77-.24a1.31,1.31,0,0,1-.06-.45c0-.25-.24-3.27-.29-3.6s-.15-.38-.27-.36a.83.83,0,0,0-.49.57,10.56,10.56,0,0,0-.44,2.41l-.06.13,0,0h-.05a1.09,1.09,0,0,1-.45-.09h0c-.1-.11-.1-.15-.1-.17,0-.32,0-1.09,0-1.41-.05-.77-.15-.93-.18-1a.28.28,0,0,0-.26-.07,1,1,0,0,0-.22.08h0a.25.25,0,0,1-.21-.17.75.75,0,0,1,0-.35Zm4.89-.67a1.74,1.74,0,0,1,.76-.37c.18,0,1.18,0,1.61,0a.89.89,0,0,0,.63-.18h0a.14.14,0,0,1,.12,0,.23.23,0,0,1,.09.16h0a.07.07,0,0,1,0,0,2.41,2.41,0,0,1-.13.61h0a.44.44,0,0,1-.34.17h-.82a2.42,2.42,0,0,1,.39.89c0,.05,0,.1,0,.15a2.12,2.12,0,0,1-.37,1.28,1.65,1.65,0,0,1-1.06.59,1.43,1.43,0,0,1-1-.38,1.7,1.7,0,0,1-.56-1.22,2.13,2.13,0,0,1,.63-1.7Zm4,.09A1.67,1.67,0,0,1,61,23.25a1.31,1.31,0,0,1,.81.35,1.92,1.92,0,0,1,.61,1.46s0,.08,0,.13a2.06,2.06,0,0,1-.69,1.39A1.68,1.68,0,0,1,60.6,27a1.39,1.39,0,0,1-.93-.58,2.1,2.1,0,0,1,.14-2.61Zm3.33.31a1.12,1.12,0,0,1,1-.52.63.63,0,0,1,.46.54,1,1,0,0,1-.11.42h0a9.42,9.42,0,0,0-.5,1.57h0a.38.38,0,0,0,0,.07.42.42,0,0,0,0,.15.57.57,0,0,0,.34.22.75.75,0,0,0,.54-.14A2,2,0,0,0,65.61,25a3.45,3.45,0,0,0-.06-1,.11.11,0,0,1,0-.1c.06-.08.23-.08.28-.08s.26.16.33.31a1.66,1.66,0,0,1,.13.69,2.41,2.41,0,0,1,0,.45,2.59,2.59,0,0,1-1,1.79,1.48,1.48,0,0,1-1,.28,1.29,1.29,0,0,1-.94-.78h0v0a.84.84,0,0,1,0-.44l.05-.17c.11-.38.32-1.08.35-1.2a.35.35,0,0,0,0-.27.28.28,0,0,0-.2-.1l-.26,0a.12.12,0,0,1-.11-.06.24.24,0,0,1,0-.23Zm1.19-1.47a1,1,0,0,1,1.14-.84.92.92,0,0,1,.72,1.14h0a.35.35,0,0,1-.14.27.16.16,0,0,1-.13,0h0a.28.28,0,0,1-.22-.3c-.06-.28-.16-.38-.41-.43a.52.52,0,0,0-.55.28c-.1.14-.18.19-.26.18h0a.18.18,0,0,1-.15-.08.22.22,0,0,1,0-.12.54.54,0,0,1,0-.12Zm2.5,3.69a2.21,2.21,0,0,1,1.24-1.44,1.89,1.89,0,0,1,1.26-.15.59.59,0,0,1,.36.26.34.34,0,0,1,0,.16.38.38,0,0,1,0,.1h0a.66.66,0,0,1-.22.3h0l0,0h0a.21.21,0,0,1-.19,0c-.77-.17-1.72.08-1.93.81a.71.71,0,0,0,0,.54.68.68,0,0,0,.46.29l.71.19a.5.5,0,0,1,.33.32,1.12,1.12,0,0,1,0,.62c-.19.7-1,1.28-1.47,1.14a.59.59,0,0,1-.31-.26h0a.54.54,0,0,1,0-.37v0l0,0a.27.27,0,0,1,.25-.1,1.37,1.37,0,0,0,1-.33v0c0-.07,0-.09-.07-.11L68,28.15,67.44,28a1,1,0,0,1-.52-.39,1.48,1.48,0,0,1-.18-.72,2,2,0,0,1,.09-.6ZM85.76,76.2a2.1,2.1,0,0,1,.82,1.31,1.79,1.79,0,0,1-.27,1.22,1.36,1.36,0,0,1-1,.47A2,2,0,0,1,84,78.84a2.17,2.17,0,0,1-.81-1.14,1.28,1.28,0,0,1-.06-.41,1.69,1.69,0,0,1,.26-.9,1.22,1.22,0,0,1,.73-.51,1.89,1.89,0,0,1,1.66.32Zm-.1-5.94.66-1.69a1.45,1.45,0,0,0,.15-.77.2.2,0,0,1,.31-.14,4.49,4.49,0,0,0,.78.45c.13.06.27.22.22.37s-.23.13-.34.13l-.18,0c-.31,0-.35,0-.5.24s-.41,1-.56,1.48c.39-.13,1.47-.61,2-.85h0c.15,0,.25,0,.28.09.23.63.71,1.68.9,2.1A5.94,5.94,0,0,0,90,70.29l.05-.13a1.68,1.68,0,0,0,.15-.56.88.88,0,0,0-.23-.54.56.56,0,0,1-.12-.3.2.2,0,0,1,0-.07.16.16,0,0,1,.12-.1.44.44,0,0,1,.32.1l.32.29.1.1a2.78,2.78,0,0,1,.27.29l0,0a.3.3,0,0,1,.08.22.39.39,0,0,1,0,.13c-.14.31-.55,1.31-.83,2l-.18.47-.12.37s-.12.37-.13.38a.2.2,0,0,1-.12.12.18.18,0,0,1-.15,0h0l-.13-.18-.08-.12v0h0c-.22-.67-.87-2.12-1-2.37-.29.11-2,.79-2.52,1a.59.59,0,0,1-.31,0,.21.21,0,0,1-.15-.09,1.3,1.3,0,0,1,0-.14l.41-.93Zm2-13.3h0a6.09,6.09,0,0,1,1.11.81s.18.2.18.31a.2.2,0,0,1-.09.14.36.36,0,0,1-.32,0h0c-.12,0-.72-.32-1-.47s-.29-.23-.29-.32A.57.57,0,0,1,87.7,57Zm1.74,1.65h0a1,1,0,0,1,.66-.08l.44.05a4.13,4.13,0,0,1-1.12-.79,1,1,0,0,1-.25-.61.76.76,0,0,1,.62-.65,4,4,0,0,1,.63,0h.16c3.22,0,4,0,4.05,0l.11,0a.38.38,0,0,1,.1.23c0,.19-.18.65-.37.69h0a.77.77,0,0,1-.47,0c-.27-.05-3.28-.39-3.6-.4-.15,0-.4,0-.4.21,0,0,0,.31.47.57a10,10,0,0,0,2.28.89h0l.13.1v0a.78.78,0,0,1-.21.46l0,0a.29.29,0,0,1-.18.09h0c-.12,0-1-.21-1.39-.26-.82-.1-1,0-1,0a.28.28,0,0,0-.12.24l0,.15,0,.13v0c0,.08-.11.16-.18.15a.7.7,0,0,1-.34-.09.74.74,0,0,1-.4-.67.59.59,0,0,1,.29-.48Zm.19-5A1.84,1.84,0,0,1,90.87,53a1.78,1.78,0,0,1,1.31.38h0a1.45,1.45,0,0,1,.51,1s0,.06,0,.09a.9.9,0,0,1-.21.55c.5-.06,1-.15,1.23-.2l.24,0a1.43,1.43,0,0,0,.41-.12.1.1,0,0,1,.12,0s.15.09.15.19v0a1.27,1.27,0,0,1,0,.45c-.06.17-.32.25-.43.27s-2,.13-2.9.22a1.91,1.91,0,0,1-1.64-.43,1.42,1.42,0,0,1-.34-.78,1.28,1.28,0,0,1,.31-.93Zm2.89,8.93a1,1,0,0,1-.76.12,10.71,10.71,0,0,1-1.54-.41L90,62.22a4.15,4.15,0,0,0-.07.45.54.54,0,0,0,0,.06.73.73,0,0,0,.27.57.32.32,0,0,1,.13.22s0,0,0,0h0v0h0a.19.19,0,0,1-.06.12.28.28,0,0,1-.22,0,1,1,0,0,1-.62-.41,1.4,1.4,0,0,1-.22-.82l.14-.88s.13-.81.13-.81a.71.71,0,0,0-.08-.35l0,0a.1.1,0,0,1,0-.13.24.24,0,0,1,.22-.11h0a1.69,1.69,0,0,1,.49.31h0l0,0h0a.55.55,0,0,1,.1.35s0,0,0,0-.05.37-.09.57c0,0,0,.2,0,.24h0a7.53,7.53,0,0,0,1.44.32A.26.26,0,0,0,91.7,62a.29.29,0,0,0,.13-.19.76.76,0,0,0,0-.3.11.11,0,0,1,0-.11.33.33,0,0,1,.27-.06,1,1,0,0,1,.57,1,.45.45,0,0,1-.17.29Zm-.41,3.22h0c-.11.44-.57.55-.8.6a1.32,1.32,0,0,1,.43.89.65.65,0,0,1,0,.14.89.89,0,0,1-.42.51,1.83,1.83,0,0,1-1.37.2,2.17,2.17,0,0,1-1.3-.78,1,1,0,0,1-.26-.68.64.64,0,0,1,.44-.36.49.49,0,0,1,.27.19h0a1.79,1.79,0,0,0,1.16,1.09c.55.13.69-.22.72-.32a.68.68,0,0,0-.4-.7l-.34,0-.18,0a.4.4,0,0,1-.27-.19.6.6,0,0,1-.05-.45.46.46,0,0,1,.53-.32,1.7,1.7,0,0,1,.48.27.49.49,0,0,0,.18.11.4.4,0,0,0,.45-.25c.06-.28-.16-.68-1-.87a2.09,2.09,0,0,0-1.3.17.2.2,0,0,1-.19,0,.15.15,0,0,1-.08-.11.18.18,0,0,0,0,0l0,0h0a.53.53,0,0,1,0-.24c.09-.35,1-.72,1.82-.5,1.22.29,1.48,1,1.48,1.47a.84.84,0,0,1,0,.19ZM89.45,76.28a.56.56,0,0,1-.3.2h0c-.06,0-.26,0-.35-.07h0v0a.3.3,0,0,1,0-.26,1.23,1.23,0,0,0-.06-.93c-.09-.05-.12,0-.13,0l-.12.23-.25.48a1,1,0,0,1-.48.37,1.52,1.52,0,0,1-1.19-.23,2,2,0,0,1-1-1.43,1.75,1.75,0,0,1,.15-1.16.45.45,0,0,1,.58-.24h0a.84.84,0,0,1,.19.26.35.35,0,0,1,0,.06.36.36,0,0,1,0,.12,2,2,0,0,0-.22.9,1.06,1.06,0,0,0,.49,1,.61.61,0,0,0,.47.11.66.66,0,0,0,.38-.35l.15-.26.18-.33a.46.46,0,0,1,.37-.19,1,1,0,0,1,.53.16,1.4,1.4,0,0,1,.69,1.59Zm-4.69,4.39h0a.52.52,0,0,1-.51.22,1.54,1.54,0,0,1-.59-.32c-.28-.23-1.63-1.34-1.79-1.48a.25.25,0,0,1-.09-.19v0l0,0a3.16,3.16,0,0,1,.38-.41s.14-.1.34.09.48.46.78.76.6.6.74.72.1.07.13.07.09,0,.17-.14a.67.67,0,0,0,.1-.18h0l0-.06h.06a.38.38,0,0,1,.24.15.83.83,0,0,1,.09.4.75.75,0,0,1-.12.44Zm-3.24-4.39a.34.34,0,0,1-.13-.22.64.64,0,0,1,.07-.44.36.36,0,0,1,.29-.12h0c.27,0,1,.21,1.23.26a.35.35,0,0,1,.21.22.19.19,0,0,1,0,.16.36.36,0,0,1-.3.14,7.36,7.36,0,0,1-1,.06c-.13,0-.3,0-.34-.1l0,0ZM81,77.93c.13.09.23,0,.33-.09s.24-.15.38-.06a.39.39,0,0,1,0,.52.67.67,0,0,1-.92.06.85.85,0,0,1-.16-1.08c.08-.09.16-.12.2-.09a.21.21,0,0,1,.06.22c0,.18,0,.41.09.52Zm1.17,5.58-.54.49c-.37.36-.61.64-.75.78l-.09.1c-.14.12-.32.18-.43.08s0-.32,0-.4h0c.27-.46.23-.5,0-.81s-.69-.77-.92-1a3.55,3.55,0,0,0-.5-.46c-.86-.63-1.5-.69-2-.19a1.85,1.85,0,0,0-.37.63l-.07.15a.2.2,0,0,1-.14.11.19.19,0,0,1-.15-.05.56.56,0,0,1-.08-.44,2,2,0,0,1,.57-1.15,1.72,1.72,0,0,1,2.09-.11,2.79,2.79,0,0,1-.18-.93A1.76,1.76,0,0,1,79.09,79a1.38,1.38,0,0,1,1-.38.39.39,0,0,1,.32.14h0l0,0h0a.11.11,0,0,1,0,.09.23.23,0,0,1,0,0,.26.26,0,0,1-.15.21,1.19,1.19,0,0,0-.64.37,1.18,1.18,0,0,0-.35.89,2.44,2.44,0,0,0,.39,1.24,2.91,2.91,0,0,0,.37.45l.09.1.34.34.66.67c.24.24.38.16.65,0l.07,0c.15-.09.3-.1.38,0a.19.19,0,0,1,.06.15.33.33,0,0,1-.1.23Zm-38.34.25h0a.34.34,0,0,1-.21.18.18.18,0,0,1-.14,0h0l0,0h0a.23.23,0,0,1-.11-.21.35.35,0,0,1,0-.14,1.05,1.05,0,0,0,0-.22c0-.15-.07-.24-.23-.35a.5.5,0,0,0-.61.06.44.44,0,0,1-.32.07h0s-.13-.16,0-.36a1,1,0,0,1,1.37-.32.82.82,0,0,1,.4.71,1.21,1.21,0,0,1-.2.63Zm-1,2.43a2.69,2.69,0,0,1-1.62,1.25,1.45,1.45,0,0,1-1-.12,1.36,1.36,0,0,1-.58-1.12,1,1,0,0,1,.2-.36l.36-.44c.22-.27.5-.6.55-.68a.35.35,0,0,0,.08-.26.3.3,0,0,0-.15-.18l-.19-.12,0,0h0a.15.15,0,0,1-.1-.08c0-.09,0-.19.07-.24a1.06,1.06,0,0,1,1.16-.06.61.61,0,0,1,.2.67,1.27,1.27,0,0,1-.25.35A9.76,9.76,0,0,0,40.42,86a.47.47,0,0,0-.07.22.58.58,0,0,0,.22.34c.37.25,1.05.16,1.72-.89a4.73,4.73,0,0,0,.33-1v0a.12.12,0,0,1,.08-.11.37.37,0,0,1,.29.06h0l0,0h0a.48.48,0,0,1,.16.4v0a2.05,2.05,0,0,1-.36,1.06Zm-4.45-.73a1.62,1.62,0,0,1-1.1-.32,1.22,1.22,0,0,1-.39-.93,1.89,1.89,0,0,1,.41-1.2,2,2,0,0,1,1.09-.68,1.49,1.49,0,0,1,1.21.25,1.24,1.24,0,0,1,.43.69,1.45,1.45,0,0,1,0,.35,1.86,1.86,0,0,1-.44,1.17,1.93,1.93,0,0,1-1.26.67ZM35.57,82.6a1.77,1.77,0,0,0,.92.47.16.16,0,0,1,.14.11.15.15,0,0,1,0,.16,1,1,0,0,1-.41.21A1.58,1.58,0,0,1,35,83.1a.91.91,0,0,1-.28-.67.81.81,0,0,1,.2-.57,1.21,1.21,0,0,1,.86-.3,1.08,1.08,0,0,1,0-.26.62.62,0,0,1,.14-.43,1.13,1.13,0,0,1,1-.3,2,2,0,0,1,.93.47.67.67,0,0,1,.25.45h0a.28.28,0,0,1-.06.18h0a.48.48,0,0,1-.3.11.25.25,0,0,1-.19-.06c-.46-.42-1-.56-1.19-.33a.14.14,0,0,0-.05.12.36.36,0,0,0,0,.08l.08,0,.19.08a1.72,1.72,0,0,1,.58.29.41.41,0,0,1,.11.28.25.25,0,0,1-.06.17.58.58,0,0,1-.41.18.39.39,0,0,1-.31-.11l-.3-.25L36,82.2c-.34-.15-.59-.12-.66,0a.08.08,0,0,0,0,.06.63.63,0,0,0,.24.38Zm-2.35-1.69a2.77,2.77,0,0,1-1.06-.81,2.59,2.59,0,0,1-.58-1.92,2.43,2.43,0,0,1,.9-1.65A2.5,2.5,0,0,1,34.26,76a2.8,2.8,0,0,1,1.82,1,2.65,2.65,0,0,1,.61,1.66,2.34,2.34,0,0,1,0,.26,2.42,2.42,0,0,1-.92,1.65,2.55,2.55,0,0,1-2.52.39ZM58.78,98.77A40.21,40.21,0,1,0,18.57,58.56,40.26,40.26,0,0,0,58.78,98.77ZM58.3,13.9a1.45,1.45,0,0,0,1.44-1.52v0a1.47,1.47,0,0,0-1.48-1.52,1.43,1.43,0,0,0-1,.42,1.54,1.54,0,0,0-.41,1.12A1.46,1.46,0,0,0,58.3,13.9Zm-29,8.66V22.5a.64.64,0,0,0-.15-.4h0v0c-.36-.43-.8-.22-1.11,0l-.82.71.9,1.05.83-.71a.93.93,0,0,0,.37-.62Zm6.15,56.37a.37.37,0,0,1-.22.2,3.86,3.86,0,0,0-.87.35c-.23.13-.33.06-.37,0a.31.31,0,0,1,0-.29h0c.13-.17.13-.18,0-.27l-.37-.43a.43.43,0,0,0-.36-.19h-.08a.38.38,0,0,1-.27-.1h0l0,0h0a.14.14,0,0,1-.05-.11s0,0,0,0a.23.23,0,0,1,.16-.16,4.86,4.86,0,0,0,.91-.39c.06,0,.25-.12.36,0a.18.18,0,0,1,0,.11.31.31,0,0,1-.07.18.49.49,0,0,0-.08.2s0,.08.07.15l.31.36h0a.51.51,0,0,0,.49.22.4.4,0,0,1,.3.11.15.15,0,0,1,0,.08v0Zm.5-.8a1.49,1.49,0,0,0-.35-1,1.43,1.43,0,0,0-.89-.47,2.26,2.26,0,0,0-1.54.56,2.31,2.31,0,0,0-.85,1.5,1.54,1.54,0,0,0,.34,1.18,1.23,1.23,0,0,0,.78.46,2.17,2.17,0,0,0,1.66-.62,2.2,2.2,0,0,0,.83-1.47,1.19,1.19,0,0,0,0-.18ZM81.59,54.22H62.06V90.29c.34-.35.68-.68,1-1C76,76.2,80.23,65.61,81.59,54.22ZM84.5,78.45a.71.71,0,0,0,.75.12.57.57,0,0,0,.27-.26,1.05,1.05,0,0,0,.19-.92,1.85,1.85,0,0,0-.65-.89l-.26-.13a.62.62,0,0,0-.65.26,1.23,1.23,0,0,0-.23.72,1.29,1.29,0,0,0,0,.3,1.49,1.49,0,0,0,.55.79Zm-28-52.18c.59,0,.94-.83.9-1.51s-.19-.61-.21-.62h0a1.14,1.14,0,0,0-.42,0,.86.86,0,0,0-.65.4h0a1.71,1.71,0,0,0-.29,1.06c0,.5.25.74.67.73ZM91.75,55.14h0a.36.36,0,0,0,.19-.09c.1-.09.08-.25.07-.36v0a1.14,1.14,0,0,0-.39-.77,1.33,1.33,0,0,0-1-.26c-.19,0-.65.11-.6.6a.91.91,0,0,0,.29.67,1.94,1.94,0,0,0,1.42.24ZM78.51,40.27l-1.34-.7-1.32.7.25-1.49L75,37.73l1.49-.21.66-1.36.68,1.36,1.48.21-1.09,1.06.26,1.49Zm-5,4.1-1.34-.69-1.33.69.25-1.47L70,41.85l1.48-.22.67-1.36.67,1.36,1.48.22L73.21,42.9l.26,1.47Zm-5.05-4.1-1.34-.7-1.34.7L66,38.78l-1.08-1.06,1.5-.21.66-1.36.67,1.36,1.49.21-1.07,1.06.25,1.49Zm13.78-.21v-3.6s0-1.84,0-3H62.06V47.4h20c.09-2.37.11-4.81.11-7.34Zm-30.56.21-1.35-.7-1.32.7.25-1.49-1.08-1.06,1.5-.21.66-1.36L51,37.52l1.49.21-1.09,1.06.27,1.49Zm-5.06,4.1-1.32-.69-1.34.69.26-1.47L43.1,41.85l1.49-.22.67-1.36.67,1.36,1.49.22L46.34,42.9l.25,1.47Zm-5-4.1-1.33-.7-1.34.7.27-1.49-1.08-1.06,1.48-.21.67-1.36.67,1.36,1.49.21-1.07,1.06.25,1.49Zm14-6.78H35.35c0,1.12,0,3,0,3q0,1.84,0,3.6c0,2.53,0,5,.12,7.35h20V33.49Zm-28,32c.49-.11.54-.26.54-.28a.2.2,0,0,0,0-.07,1.7,1.7,0,0,0,0-.34.77.77,0,0,0-.44-.52,1.64,1.64,0,0,0-1-.1.75.75,0,0,0-.5.28.53.53,0,0,0-.05.41.71.71,0,0,0,.33.44,1.61,1.61,0,0,0,1.16.17ZM38.35,83.06a1.25,1.25,0,0,0-.75.45.78.78,0,0,0-.19.47.41.41,0,0,0,0,.2.55.55,0,0,0,.2.27,1,1,0,0,0,.83.22,1.63,1.63,0,0,0,.86-.57.54.54,0,0,0,.12-.21.56.56,0,0,0-.17-.6,1.19,1.19,0,0,0-1-.24ZM25.48,59.84a1.16,1.16,0,0,0,1.32,1.08c.19,0,.65-.09.64-.58s-.27-1-1.68-1a.39.39,0,0,0-.2.08.32.32,0,0,0-.08.25v.13Zm30,30.45V54.22H36c1.37,11.4,5.6,22,18.52,35,.32.35.68.68,1,1ZM67.88,104.2l1.35-.28-1-1.43-.33,1.71ZM60.17,26a.6.6,0,0,0,.36.1,1.08,1.08,0,0,0,.89-.33,1.86,1.86,0,0,0,.4-1,.91.91,0,0,0,0-.27.65.65,0,0,0-.54-.43,1.3,1.3,0,0,0-1,.38,1.44,1.44,0,0,0-.39.88v.06a.71.71,0,0,0,.29.63ZM34.42,98.33c0-.12.22-1.55.25-1.73l-1.44,1,1.18.74Zm19.29,6.51,1.37.13-.54-1.66-.83,1.53ZM95.72,30a.55.55,0,0,0,.42-.11h0a.66.66,0,0,0,0-.94.83.83,0,0,0-.53-.34.51.51,0,0,0-.37.1h0a.54.54,0,0,0-.21.37s0,0,0,.07a.92.92,0,0,0,.72.84Zm-2.12-.18h0a.52.52,0,0,0-.19.36,1,1,0,0,0,.26.71,1,1,0,0,0,.62.43.53.53,0,0,0,.4-.11h0a.52.52,0,0,0,.19-.36.43.43,0,0,0,0-.07,1,1,0,0,0-.26-.64,1,1,0,0,0-.65-.41.49.49,0,0,0-.38.11Zm4.68,4.49a.72.72,0,0,0,.56-.1h0A.78.78,0,0,0,99,33.05a.77.77,0,0,0-1.1-.29h0a.71.71,0,0,0-.32.44.61.61,0,0,0,0,.16,1,1,0,0,0,.17.52.88.88,0,0,0,.54.42"/>
</svg>
