<svg enable-background="new 0 0 24 24" height="250" viewBox="0 0 24 24" width="250">
  <defs id="defs3">
    <linearGradient id="linearGradient4902">
      <stop id="stop4904" stop-color="#ff6134" offset="0"/>
      <stop id="stop4906" stop-color="#f00" offset="1"/>
    </linearGradient>
    <linearGradient id="linearGradient4894">
      <stop id="stop4896" stop-color="#5f0000" stop-opacity="0" offset="0"/>
      <stop id="stop4898" stop-color="#f00" stop-opacity="0" offset=".5"/>
      <stop id="stop4900" stop-color="#590000" offset="1"/>
    </linearGradient>
    <linearGradient id="linearGradient2201">
      <stop id="stop2203" stop-color="#525252" offset="0"/>
      <stop id="stop2205" stop-color="#d9d9d9" offset="1"/>
    </linearGradient>
    <linearGradient id="linearGradient2168">
      <stop id="stop2170" offset="0"/>
      <stop id="stop2174" stop-opacity="0" offset="1"/>
    </linearGradient>
    <linearGradient id="linearGradient2077">
      <stop id="stop2079" stop-color="#fff" offset="0"/>
      <stop id="stop2081" stop-color="#fff" stop-opacity="0" offset="1"/>
    </linearGradient>
    <linearGradient id="linearGradient2065">
      <stop id="stop2067" stop-color="#00575f" stop-opacity="0" offset="0"/>
      <stop id="stop2073" stop-color="#0062ff" stop-opacity="0" offset=".5"/>
      <stop id="stop2069" stop-color="#002859" offset="1"/>
    </linearGradient>
    <linearGradient id="linearGradient2053">
      <stop id="stop2055" stop-color="#34abff" offset="0"/>
      <stop id="stop2057" stop-color="#0057ff" offset="1"/>
    </linearGradient>
    <radialGradient id="radialGradient2217" cx="457.14" xlinkHref="#linearGradient2077" gradientUnits="userSpaceOnUse" cy="263.79" r="94.286"/>
    <radialGradient id="radialGradient2223" xlinkHref="#linearGradient2077" gradientUnits="userSpaceOnUse" cy="516.87" cx="480.13" gradientTransform="scale(.83995 1.1905)" r="175.44"/>
    <radialGradient id="radialGradient2232" gradientUnits="userSpaceOnUse" cy="440.37" cx="413.89" gradientTransform="matrix(.96831 -.21503 .29652 1.3353 -211.6 -61.667)" r="359.53">
      <stop id="stop2190" stop-color="#00f1ff" stop-opacity="0" offset="0"/>
      <stop id="stop2194" stop-color="#00c9ff" stop-opacity="0" offset=".5"/>
      <stop id="stop2196" stop-color="#0065a6" stop-opacity="0" offset=".75"/>
      <stop id="stop2192" stop-color="#002454" offset="1"/>
    </radialGradient>
    <linearGradient id="linearGradient2235" x1="336.15" xlinkHref="#linearGradient2168" gradientUnits="userSpaceOnUse" x2="345.4" gradientTransform="matrix(1.2302 -.27318 .17203 .77468 -201.81 -17.563)" y1="1203.6" y2="608.36"/>
    <linearGradient id="linearGradient2241" x1="-683.5" xlinkHref="#linearGradient2065" gradientUnits="userSpaceOnUse" x2="1100.7" gradientTransform="matrix(.83134 -.18461 .25456 1.1464 -201.81 -17.563)" y1="-283.39" y2="504.58"/>
    <linearGradient id="linearGradient2246" x1="350.37" xlinkHref="#linearGradient2077" gradientUnits="userSpaceOnUse" x2="285.9" gradientTransform="matrix(1.1836 -.26282 .17881 .80521 -201.81 -17.563)" y1="168.43" y2="601.16"/>
    <radialGradient id="radialGradient2249" xlinkHref="#linearGradient2065" gradientUnits="userSpaceOnUse" cy="290.04" cx="478.66" gradientTransform="matrix(.96831 -.21503 .29652 1.3353 -211.6 -61.667)" r="372.49"/>
    <radialGradient id="radialGradient2252" xlinkHref="#linearGradient2053" gradientUnits="userSpaceOnUse" cy="233.67" cx="462.46" gradientTransform="matrix(.96831 -.21503 .29652 1.3353 -211.6 -61.667)" r="330.33"/>
    <linearGradient id="linearGradient2122" x1="309.16" xlinkHref="#linearGradient2053" gradientUnits="userSpaceOnUse" x2="302.31" gradientTransform="matrix(1.2191 0 0 .82029 0 -6)" y1="900.84" y2="958.59"/>
    <linearGradient id="linearGradient2126" x1="299.34" xlinkHref="#linearGradient2168" gradientUnits="userSpaceOnUse" x2="301.38" gradientTransform="matrix(1.2191 0 0 .82029 0 -6)" y1="959.69" y2="945.18"/>
    <linearGradient id="linearGradient2140" x1="293.05" xlinkHref="#linearGradient2168" gradientUnits="userSpaceOnUse" x2="311.93" gradientTransform="matrix(1.2191 0 0 .82029 0 -6)" y1="901.66" y2="937.79"/>
    <linearGradient id="linearGradient2144" x1="293.24" xlinkHref="#linearGradient2168" gradientUnits="userSpaceOnUse" x2="310.45" gradientTransform="matrix(1.2191 0 0 .82029 0 -6)" y1="923.83" y2="927.12"/>
    <radialGradient id="radialGradient2155" xlinkHref="#linearGradient2077" gradientUnits="userSpaceOnUse" cy="1378.8" cx="214.76" gradientTransform="matrix(1.4686 0 0 .42526 72.665 179.83)" r="15.406"/>
    <radialGradient id="radialGradient2169" cx="378.57" xlinkHref="#linearGradient2077" gradientUnits="userSpaceOnUse" cy="752.36" r="8.5714"/>
    <radialGradient id="radialGradient2179" xlinkHref="#linearGradient2168" gradientUnits="userSpaceOnUse" cy="1031.8" cx="269.79" gradientTransform="scale(1.3926 .71807)" r="32.826"/>
    <linearGradient id="linearGradient2199" x1="1063" xlinkHref="#linearGradient2201" gradientUnits="userSpaceOnUse" x2="1075" gradientTransform="matrix(.36618 0 0 2.7309 0 -6)" y1="281.09" y2="396.2"/>
    <radialGradient id="radialGradient2242" xlinkHref="#linearGradient2201" gradientUnits="userSpaceOnUse" cy="771.55" cx="370.71" gradientTransform="matrix(1.0154 0 0 .98487 0 -6)" r="27.48"/>
    <linearGradient id="linearGradient2256" x1="423.76" xlinkHref="#linearGradient2201" spreadMethod="reflect" gradientUnits="userSpaceOnUse" x2="448.12" gradientTransform="matrix(.82209 0 0 1.2164 0 -6)" y1="614.4" y2="654.13"/>
    <linearGradient id="linearGradient2264" x1="608.27" xlinkHref="#linearGradient2201" spreadMethod="reflect" gradientUnits="userSpaceOnUse" x2="572.03" gradientTransform="matrix(.64452 0 0 1.5515 0 -6)" y1="588.05" y2="590.56"/>
    <linearGradient id="linearGradient2317" x1="469.01" xlinkHref="#linearGradient2201" spreadMethod="reflect" gradientUnits="userSpaceOnUse" x2="491.66" gradientTransform="matrix(.81392 0 0 1.2286 0 -6)" y1="838.2" y2="843.22"/>
    <linearGradient id="linearGradient2321" x1="432.33" xlinkHref="#linearGradient2168" gradientUnits="userSpaceOnUse" x2="442.94" gradientTransform="matrix(.81392 0 0 .83250 13.674 316.17)" y1="816.66" y2="835.01"/>
    <linearGradient id="linearGradient2327" x1="370.79" xlinkHref="#linearGradient2168" spreadMethod="reflect" gradientUnits="userSpaceOnUse" x2="381.53" gradientTransform="scale(1.0154 .98487)" y1="747.38" y2="754.63"/>
    <radialGradient id="radialGradient2333" fy="1161.4" xlinkHref="#linearGradient2168" gradientUnits="userSpaceOnUse" cy="1161.1" cx="247.71" gradientTransform="scale(1.5804 .63276)" r="14.647"/>
    <linearGradient id="linearGradient3483">
      <stop id="stop3485" stop-color="#ffff34" offset="0"/>
      <stop id="stop3487" stop-color="#ffc200" offset="1"/>
    </linearGradient>
    <linearGradient id="linearGradient3475">
      <stop id="stop3477" stop-color="#5a5f00" stop-opacity="0" offset="0"/>
      <stop id="stop3479" stop-color="#ffde00" stop-opacity="0" offset=".5"/>
      <stop id="stop3481" stop-color="#cf9800" offset="1"/>
    </linearGradient>
    <radialGradient id="radialGradient4986" fy="1161.4" xlinkHref="#linearGradient2168" gradientUnits="userSpaceOnUse" cy="1161.1" cx="247.71" gradientTransform="matrix(1.5726 -.15705 .062879 .62962 -17.724 122.41)" r="14.647"/>
    <linearGradient id="linearGradient4989" x1="423.76" xlinkHref="#linearGradient2201" spreadMethod="reflect" gradientUnits="userSpaceOnUse" x2="448.12" gradientTransform="matrix(-.78264 .25163 .37232 1.158 576.36 -7.9357)" y1="614.4" y2="654.13"/>
    <linearGradient id="linearGradient4992" x1="370.79" xlinkHref="#linearGradient2168" spreadMethod="reflect" gradientUnits="userSpaceOnUse" x2="381.53" gradientTransform="matrix(1.0103 -.10090 .097869 .97999 -17.724 122.41)" y1="747.38" y2="754.63"/>
    <linearGradient id="linearGradient5001" x1="608.27" xlinkHref="#linearGradient2201" spreadMethod="reflect" gradientUnits="userSpaceOnUse" x2="572.03" gradientTransform="matrix(-.61798 .18305 .44065 1.4877 597.5 -4.4261)" y1="588.05" y2="590.56"/>
    <radialGradient id="radialGradient5004" xlinkHref="#linearGradient2201" gradientUnits="userSpaceOnUse" cy="771.55" cx="370.71" gradientTransform="matrix(1.0103 -.10090 .097869 .97999 -18.321 116.44)" r="27.48"/>
    <radialGradient id="radialGradient5007" xlinkHref="#linearGradient2077" gradientUnits="userSpaceOnUse" cy="752.36" cx="378.57" gradientTransform="matrix(.44933 -.21734 .43543 .90022 -57.849 230.67)" r="8.5714"/>
    <radialGradient id="radialGradient5010" xlinkHref="#linearGradient2077" gradientUnits="userSpaceOnUse" cy="1378.8" cx="214.76" gradientTransform="matrix(1.4614 -.14594 .042260 .42316 92.451 294.13)" r="15.406"/>
    <linearGradient id="linearGradient5013" x1="293.24" xlinkHref="#linearGradient2168" gradientUnits="userSpaceOnUse" x2="310.45" gradientTransform="matrix(1.213 -.12114 .081515 .81623 1.6793 116.44)" y1="923.83" y2="927.12"/>
    <linearGradient id="linearGradient5016" x1="293.05" xlinkHref="#linearGradient2168" gradientUnits="userSpaceOnUse" x2="311.93" gradientTransform="matrix(1.213 -.12114 .081515 .81623 1.6793 116.44)" y1="901.66" y2="937.79"/>
    <linearGradient id="linearGradient5019" x1="299.34" xlinkHref="#linearGradient2168" gradientUnits="userSpaceOnUse" x2="301.38" gradientTransform="matrix(1.213 -.12114 .081515 .81623 1.6793 116.44)" y1="959.69" y2="945.18"/>
    <linearGradient id="linearGradient5022" x1="309.16" xlinkHref="#linearGradient4902" gradientUnits="userSpaceOnUse" x2="302.31" gradientTransform="matrix(1.213 -.12114 .081515 .81623 1.6793 116.44)" y1="900.84" y2="958.59"/>
    <radialGradient id="radialGradient5025" xlinkHref="#linearGradient2168" gradientUnits="userSpaceOnUse" cy="1031.8" cx="269.79" gradientTransform="matrix(1.3039 -.33682 .14896 .45905 -58.59 432.36)" r="32.826"/>
    <radialGradient id="radialGradient5028" gradientUnits="userSpaceOnUse" cy="440.37" cx="413.89" gradientTransform="matrix(.94214 -.31018 .42774 1.2992 -214.4 82.076)" r="359.53">
      <stop id="stop4886" stop-color="#f00" stop-opacity="0" offset="0"/>
      <stop id="stop4888" stop-color="#f00" stop-opacity="0" offset=".5"/>
      <stop id="stop4890" stop-color="#a60000" stop-opacity="0" offset=".75"/>
      <stop id="stop4892" stop-color="#540000" offset="1"/>
    </radialGradient>
    <linearGradient id="linearGradient5031" x1="336.15" xlinkHref="#linearGradient2168" gradientUnits="userSpaceOnUse" x2="345.4" gradientTransform="matrix(1.197 -.39408 .24816 .75375 -200.28 124.99)" y1="1203.6" y2="608.36"/>
    <radialGradient id="radialGradient5034" xlinkHref="#linearGradient2077" gradientUnits="userSpaceOnUse" cy="516.87" cx="480.13" gradientTransform="matrix(.38873 -.31541 .42025 .51793 -35.161 543.49)" r="175.44"/>
    <radialGradient id="radialGradient5037" xlinkHref="#linearGradient2077" gradientUnits="userSpaceOnUse" cy="516.87" cx="480.13" gradientTransform="matrix(.65225 -.52924 .75014 .92449 -378.41 379.69)" r="175.44"/>
    <linearGradient id="linearGradient5040" x1="-683.5" xlinkHref="#linearGradient4894" gradientUnits="userSpaceOnUse" x2="1100.7" gradientTransform="matrix(.80888 -.26631 .36722 1.1154 -200.28 124.99)" y1="-283.39" y2="504.58"/>
    <radialGradient id="radialGradient5043" xlinkHref="#linearGradient2077" gradientUnits="userSpaceOnUse" cy="263.79" cx="457.14" gradientTransform="matrix(1.1513 -.37905 .37905 1.1513 -309.88 102.16)" r="94.286"/>
    <radialGradient id="radialGradient5046" xlinkHref="#linearGradient2077" gradientUnits="userSpaceOnUse" cy="263.79" cx="457.14" gradientTransform="matrix(.40297 -.13267 .13267 .40297 97.222 186.94)" r="94.286"/>
    <linearGradient id="linearGradient5049" x1="350.37" xlinkHref="#linearGradient2077" gradientUnits="userSpaceOnUse" x2="285.9" gradientTransform="matrix(1.1516 -.37914 .25794 .78345 -200.28 124.99)" y1="168.43" y2="601.16"/>
    <radialGradient id="radialGradient5052" xlinkHref="#linearGradient4894" gradientUnits="userSpaceOnUse" cy="290.04" cx="478.66" gradientTransform="matrix(.94214 -.31018 .42774 1.2992 -214.4 82.076)" r="372.49"/>
    <radialGradient id="radialGradient5055" xlinkHref="#linearGradient4902" gradientUnits="userSpaceOnUse" cy="233.67" cx="462.46" gradientTransform="matrix(.94214 -.31018 .42774 1.2992 -214.4 82.076)" r="330.33"/>
    <linearGradient id="linearGradient5058" x1="1063" xlinkHref="#linearGradient2201" gradientUnits="userSpaceOnUse" x2="1075" gradientTransform="matrix(.36436 -.036388 .27138 2.7174 1.6793 116.44)" y1="281.09" y2="396.2"/>
    <linearGradient id="linearGradient5070" x1="469.01" xlinkHref="#linearGradient2201" spreadMethod="reflect" gradientUnits="userSpaceOnUse" x2="491.66" gradientTransform="matrix(.80989 -.080882 .12209 1.2225 1.6793 116.44)" y1="838.2" y2="843.22"/>
    <linearGradient id="linearGradient5072" x1="432.33" xlinkHref="#linearGradient2168" gradientUnits="userSpaceOnUse" x2="442.94" gradientTransform="matrix(.80989 -.080882 .12209 1.2225 1.6793 116.44)" y1="816.66" y2="835.01"/>
    <radialGradient id="radialGradient5082" xlinkHref="#linearGradient4902" gradientUnits="userSpaceOnUse" cy="318.43" cx="893.91" gradientTransform="scale(.72831 1.373)" r="179.96"/>
    <linearGradient id="linearGradient5092" x1="638.59" xlinkHref="#linearGradient3483" gradientUnits="userSpaceOnUse" x2="954.38" gradientTransform="scale(.61237 1.633)" y1="290.11" y2="290.11"/>
    <linearGradient id="linearGradient5096" x1="309.16" xlinkHref="#linearGradient4902" gradientUnits="userSpaceOnUse" x2="302.31" gradientTransform="matrix(.86745 -.093670 .43220 .63112 -2.0673 133.58)" y1="900.84" y2="958.59"/>
    <radialGradient id="radialGradient5111" fy="1161.4" xlinkHref="#linearGradient2168" gradientUnits="userSpaceOnUse" cy="1161.1" cx="247.71" gradientTransform="matrix(1.4589 .60775 -.24333 .58410 637.62 -42.126)" r="14.647"/>
    <linearGradient id="linearGradient5114" x1="423.76" xlinkHref="#linearGradient2201" spreadMethod="reflect" gradientUnits="userSpaceOnUse" x2="448.12" gradientTransform="matrix(.75888 .31614 -.46778 1.1229 639.92 -47.664)" y1="614.4" y2="654.13"/>
    <linearGradient id="linearGradient5117" x1="370.79" xlinkHref="#linearGradient2168" spreadMethod="reflect" gradientUnits="userSpaceOnUse" x2="381.53" gradientTransform="matrix(.93728 .39046 -.37874 .90913 637.62 -42.126)" y1="747.38" y2="754.63"/>
    <linearGradient id="linearGradient5120" x1="432.33" xlinkHref="#linearGradient2168" gradientUnits="userSpaceOnUse" x2="442.94" gradientTransform="matrix(.75133 .313 -.47247 1.1341 639.92 -47.664)" y1="816.66" y2="835.01"/>
    <linearGradient id="linearGradient5123" x1="469.01" xlinkHref="#linearGradient2201" spreadMethod="reflect" gradientUnits="userSpaceOnUse" x2="491.66" gradientTransform="matrix(.75133 .313 -.47247 1.1341 639.92 -47.664)" y1="838.2" y2="843.22"/>
    <linearGradient id="linearGradient5126" x1="608.27" xlinkHref="#linearGradient2201" spreadMethod="reflect" gradientUnits="userSpaceOnUse" x2="572.03" gradientTransform="matrix(.59496 .24785 -.59666 1.4322 639.92 -47.664)" y1="588.05" y2="590.56"/>
    <radialGradient id="radialGradient5129" xlinkHref="#linearGradient2201" gradientUnits="userSpaceOnUse" cy="771.55" cx="370.71" gradientTransform="matrix(.93728 .39046 -.37874 .90913 639.92 -47.664)" r="27.48"/>
    <radialGradient id="radialGradient5132" xlinkHref="#linearGradient2077" gradientUnits="userSpaceOnUse" cy="752.36" cx="378.57" gradientTransform="matrix(.49865 .021831 -.043739 .99904 550.94 34.141)" r="8.5714"/>
    <radialGradient id="radialGradient5135" xlinkHref="#linearGradient2077" gradientUnits="userSpaceOnUse" cy="1378.8" cx="214.76" gradientTransform="matrix(1.3557 .56477 -.16354 .39256 635.54 151.82)" r="15.406"/>
    <linearGradient id="linearGradient5138" x1="293.24" xlinkHref="#linearGradient2168" gradientUnits="userSpaceOnUse" x2="310.45" gradientTransform="matrix(1.1253 .46881 -.31545 .75721 639.92 -47.664)" y1="923.83" y2="927.12"/>
    <linearGradient id="linearGradient5141" x1="293.05" xlinkHref="#linearGradient2168" gradientUnits="userSpaceOnUse" x2="311.93" gradientTransform="matrix(1.1253 .46881 -.31545 .75721 639.92 -47.664)" y1="901.66" y2="937.79"/>
    <linearGradient id="linearGradient5144" x1="299.34" xlinkHref="#linearGradient2168" gradientUnits="userSpaceOnUse" x2="301.38" gradientTransform="matrix(1.1253 .46881 -.31545 .75721 639.92 -47.664)" y1="959.69" y2="945.18"/>
    <linearGradient id="linearGradient5147" x1="309.16" xlinkHref="#linearGradient3483" gradientUnits="userSpaceOnUse" x2="302.31" gradientTransform="matrix(1.1253 .46881 -.31545 .75721 639.92 -47.664)" y1="900.84" y2="958.59"/>
    <radialGradient id="radialGradient5150" xlinkHref="#linearGradient2168" gradientUnits="userSpaceOnUse" cy="1031.8" cx="269.79" gradientTransform="matrix(1.3076 .32203 -.086631 .47478 437 201.86)" r="32.826"/>
    <radialGradient id="radialGradient5153" gradientUnits="userSpaceOnUse" cy="440.37" cx="413.89" gradientTransform="matrix(.97653 .17388 -.23978 1.3466 466 -180.42)" r="359.53">
      <stop id="stop3455" stop-color="#ffdf00" stop-opacity="0" offset="0"/>
      <stop id="stop3457" stop-color="#ff9f00" stop-opacity="0" offset=".5"/>
      <stop id="stop3459" stop-color="#ff9a00" stop-opacity="0" offset=".75"/>
      <stop id="stop3461" stop-color="#793900" offset="1"/>
    </radialGradient>
    <linearGradient id="linearGradient5156" x1="336.15" xlinkHref="#linearGradient2168" gradientUnits="userSpaceOnUse" x2="345.4" gradientTransform="matrix(1.2406 .22090 -.13911 .78126 458.08 -135.94)" y1="1203.6" y2="608.36"/>
    <radialGradient id="radialGradient5159" xlinkHref="#linearGradient2077" gradientUnits="userSpaceOnUse" cy="516.87" cx="480.13" gradientTransform="matrix(.49183 -.093258 .12426 .65531 404.91 310.8)" r="175.44"/>
    <radialGradient id="radialGradient5162" xlinkHref="#linearGradient2077" gradientUnits="userSpaceOnUse" cy="516.87" cx="480.13" gradientTransform="matrix(.82525 -.15648 .22179 1.1697 180.44 3.7704)" r="175.44"/>
    <linearGradient id="linearGradient5165" x1="-683.5" xlinkHref="#linearGradient3475" gradientUnits="userSpaceOnUse" x2="1100.7" gradientTransform="matrix(.83840 .14928 -.20585 1.1561 458.08 -135.94)" y1="-283.39" y2="504.58"/>
    <radialGradient id="radialGradient5168" xlinkHref="#linearGradient2077" gradientUnits="userSpaceOnUse" cy="263.79" cx="457.14" gradientTransform="matrix(1.1934 .21248 -.21248 1.1934 372.42 -208.03)" r="94.286"/>
    <radialGradient id="radialGradient5171" xlinkHref="#linearGradient2077" gradientUnits="userSpaceOnUse" cy="263.79" cx="457.14" gradientTransform="matrix(.41767 .074369 -.074369 .41767 690.59 59.723)" r="94.286"/>
    <linearGradient id="linearGradient5174" x1="681" xlinkHref="#linearGradient2077" gradientUnits="userSpaceOnUse" x2="606.26" gradientTransform="matrix(1.1936 .21253 -.14459 .81205 0 0)" y1="1.5028" y2="160.02"/>
    <radialGradient id="radialGradient5177" xlinkHref="#linearGradient3475" gradientUnits="userSpaceOnUse" cy="290.04" cx="478.66" gradientTransform="matrix(.97653 .17388 -.23978 1.3466 466 -180.42)" r="372.49"/>
    <radialGradient id="radialGradient5180" xlinkHref="#linearGradient3483" gradientUnits="userSpaceOnUse" cy="233.67" cx="462.46" gradientTransform="matrix(.97653 .17388 -.23978 1.3466 466 -180.42)" r="330.33"/>
    <linearGradient id="linearGradient5183" x1="1063" xlinkHref="#linearGradient2201" gradientUnits="userSpaceOnUse" x2="1075" gradientTransform="matrix(.33802 .14082 -1.0502 2.5209 639.92 -47.664)" y1="281.09" y2="396.2"/>
    <linearGradient id="linearGradient5187" x1="309.16" xlinkHref="#linearGradient3483" gradientUnits="userSpaceOnUse" x2="302.31" gradientTransform="matrix(.55499 .017588 .092123 .42968 275.04 290.57)" y1="900.84" y2="958.59"/>
    <linearGradient id="linearGradient5193" x1="878.35" gradientUnits="userSpaceOnUse" x2="921.76" gradientTransform="matrix(.49907 .54378 -.99819 .91612 586.87 -250.89)" y1="504.53" y2="572.13">
      <stop id="stop3471" stop-color="#fff" offset="0"/>
      <stop id="stop3473" stop-color="#fff" stop-opacity="0" offset="1"/>
    </linearGradient>
    <linearGradient id="linearGradient5195" x1="878.35" gradientUnits="userSpaceOnUse" x2="921.76" gradientTransform="matrix(.73148 .098521 -.18085 1.3427 97.836 -77.665)" y1="504.53" y2="572.13">
      <stop id="stop3465" offset="0"/>
      <stop id="stop3467" stop-opacity="0" offset="1"/>
    </linearGradient>
  </defs>
  <g id="layer1" transform="translate(164.09 17.006)">
    <path id="path2191" fill-rule="evenodd" fill="url(#linearGradient2199)" d="m369.76 746.35l40.33 399.15h7.11l-37.38-400.16-10.06 1.01z"/>
    <path id="path1291" opacity=".75" fill-rule="evenodd" fill="url(#radialGradient2252)" d="m558.54 282.83c39.66 178.6-67.95 439.46-174.55 466.06-103.81 25.98-315.74-169.78-355.4-348.38s46.86-349.91 193.13-382.39c146.26-32.479 297.16 86.11 336.82 264.71z"/>
    <path id="path2063" fill-rule="evenodd" fill="url(#radialGradient2249)" d="m558.54 282.83c39.66 178.6-67.95 439.46-174.55 466.06-103.81 25.98-315.74-169.78-355.4-348.38s46.86-349.91 193.13-382.39c146.26-32.479 297.16 86.11 336.82 264.71z"/>
    <path id="path2075" opacity=".6" fill-rule="evenodd" fill="url(#linearGradient2246)" d="m171.19 67.388c-12.15 0.124-36.51 19.763-45.87 30.673-19.23 22.429-30.833 37.649-41.842 61.969-16.9 37.35 4.575 39.09 32.852 16.12 21.59-17.54-12.86 35.61-15.82 47.42-4.931 19.72-24.961 31.75-34.402 42.76-9.848 11.48-7.246 33.21-27.588 47.1-22.198 15.15 18.254 23.31 29.746 28.51 18.361 8.31-10.76 46.54 27.888 20.15 22.786-15.56 16.766-31.55 31.916-1.23 5 9.99 47.59-37.14 49.59-40.28 2.34-3.68-3.85-56.9-4.64-60.43-0.01-0.08 13.07-19.13 28.83-15.18 24.45 6.11 16.74 28.76 38.73 3.1 11.18-13.03 25.83 50.4 26.34 52.69 7.29 32.83 48.79-4.87 62.29 3.73 14.42 9.18 9.08 39.31 25.71 49.89 13.12 8.36 43.28-30.36 47.42-36.87 13.56-21.29 0.69-23.51 38.12 0.32 26.36 16.78 22.41-31.97 58.26-1.23 21.82 18.71 6.77-20.08 7.13-33.78 0.62-23.12-11.94-57.19-20.13-77.48-4.63-11.48 44.38 16.12 36.57 6.51-14.24-17.52-32.69-32.14-45.86-48.35-17.05-20.99-24.4-34.87-36.56-59.19-10.5-21.014-5.94-25.343-22.61-35.955-17.61-11.206-33.65 17.928-44.94-4.655-7.85-15.709-37.87 9.422-52.68-0.008-4.17-2.656-16.66-32.666-19.83-36.572-6.98-8.596-42.54 3.594-54.23 6.19-3.72 0.826-7.44 1.652-11.16 2.478-12.8 2.841-28.61 3.426-42.46 6.501-1.01 0.224-12.54 19.486-20.77 25.099z"/>
    <path id="path2085" fill-rule="evenodd" fill="url(#radialGradient2217)" transform="matrix(.41416 -.091969 .091969 .41416 88.064 73.647)" d="m551.43 263.79c0 52.07-42.21 94.29-94.29 94.29-52.07 0-94.28-42.22-94.28-94.29s42.21-94.28 94.28-94.28c52.08 0 94.29 42.21 94.29 94.28z"/>
    <path id="path2095" opacity=".6" d="m551.43 263.79c0 52.07-42.21 94.29-94.29 94.29-52.07 0-94.28-42.22-94.28-94.29s42.21-94.28 94.28-94.28c52.08 0 94.29 42.21 94.29 94.28z" fill-rule="evenodd" transform="matrix(1.1833 -.26277 .26277 1.1833 -308.6 -51.166)" fill="url(#radialGradient2217)"/>
    <path id="path2125" opacity=".4" fill-rule="evenodd" fill="url(#linearGradient2241)" d="m221.72 18.129c-146.26 32.48-232.8 203.77-193.14 382.37 39.662 178.6 251.61 374.37 355.42 348.39 106.59-26.6 214.21-287.48 174.55-466.08s-190.56-297.16-336.83-264.68zm-5.24 5.358c5.2-1.604 11.04-2.43 17.65-2.255 19.37 0.512 32.66 26.514 38.09 26.658 20.48 0.542 30.72-19.317 45.57-18.924 18.58 0.492 21.19 8.721 32.85 16.139 10.82 6.89 24.28 20.228 38.73 29.427 11.84 7.535 32.72 24.002 47.11 27.598 13.51 3.38 31.7 11.01 34.7 24.5 6.33 28.52-14.45 21.38-14.9 38.43-0.62 23.42 41.67 16.27 48.04 44.93 6.58 29.63-30.82 41.33-22.02 45.87 0.18 0.09 72.2 61.52 30.99 60.43-23.06-0.61-67.78-34.5-74.7-6.84-2.51 10.05-25.86 61.41-44.01 39.06-38.87-47.86-17.13 7.84-68.8 6.48-17.01-0.45-14.75-19.05-14.25-37.81 2.07-78.29-54.61-11.47-55.16-37.5-1.66-78.52 6.58-10.14-17.65-39.97-14.59-17.96-25.61-36.77-52.06-23.55-40.78 20.38-6.4 29.47-4.95 56.7 1.35 25.32-31.75 21.72-17.68 39.04 4.73 5.82 30.89 53.19 22.32 47.74-3.41-2.17-6.84-4.36-10.25-6.53-36.75-23.39-37.04 43.63-65.06-3.09-21.79-36.33-21.004 20.85-50.225 37.49-11.175 33.51-15.372 9.77-19.197-7.45-3.456-15.56-0.494-28.61-4.328-45.87-6.254-28.17 15.771-21.03 28.81-41.52 7.588-11.91 36.26-30.44 9.317-37.18-14.15-3.54-37.511 6.53-19.844-10.22 11.358-10.78 59.757-50.39 37.207-69.73-12.698-10.88-49.657-41.66-8.374-50.83 36.844-8.18 45.984-9.05 46.794-39.648 0.66-24.917 38.08-10.894 51.47-31.915 8.28-13.008 18.21-24.849 33.81-29.66z"/>
    <path id="path2099" opacity=".53" d="m568.57 602.36c0 128.61-73.55 232.86-164.28 232.86-90.74 0-164.29-104.25-164.29-232.86 0-128.6 73.55-232.85 164.29-232.85 90.73 0 164.28 104.25 164.28 232.85z" fill-rule="evenodd" transform="matrix(.83530 -.54979 .54979 .83530 -404.37 218.18)" fill="url(#radialGradient2223)"/>
    <path id="path2109" opacity=".3" d="m568.57 602.36c0 128.61-73.55 232.86-164.28 232.86-90.74 0-164.29-104.25-164.29-232.86 0-128.6 73.55-232.85 164.29-232.85 90.73 0 164.28 104.25 164.28 232.85z" fill-rule="evenodd" transform="matrix(.49782 -.32766 .30801 .46796 -79.096 415.27)" fill="url(#radialGradient2223)"/>
    <path id="path2158" opacity=".1" fill-rule="evenodd" fill="url(#linearGradient2235)" d="m223.16 647.36c-18.33-24.26-60.96-66.68-84.57-101.25-13.36-19.58-23.25-50.62 1.33-49.97 37.26 0.99 32.96 59.59 31.55-7-0.09-4.28 28.98 44.92 54.79 4.39 20.49-32.19 27.58 49.66 31.54 67.49 1.54 6.94 35.92 12.73 49.96 1.33 35.3-28.67 6.94 34.37 6.57 48.21-0.89 33.66 73.16-41.61 76.7-46.01 32.96-40.96 50.85-10.7 72.76-45.13 23.01-36.14 48.4-65.38 66.19-93.34 14.1-22.15-23.01-31.23 10.09-47.77 25.06-12.52 21.8 45.56 16.21 54.35-13.64 21.42-38.61 14.17-39.45 46.01-0.53 19.92-0.88 33.32 4.37 56.98 4.69 21.13-20.48 53.45-30.25 68.8-13.83 21.72-3.49 30.23-31.56 44.26-19.26 9.62-21.79 50.29-39.45 46.01-13.72 11.15-36.21 27.08-46.02 35.05-18.37 14.92-39.26-16.11-68.37-9.65-21.98 4.88-45.83-9.49-58.29-20.17-12-10.28-20.75-37.52-24.1-52.59z"/>
    <path id="path2180" fill-rule="evenodd" fill="url(#radialGradient2232)" d="m558.54 282.83c39.66 178.6-67.95 439.46-174.55 466.06-103.81 25.98-315.74-169.78-355.4-348.38s46.86-349.91 193.13-382.39c146.26-32.479 297.16 86.11 336.82 264.71z"/>
    <path id="path2171" opacity=".3" d="m421.43 740.93c0.01 13.02-20.46 23.58-45.72 23.58-25.25 0-45.72-10.56-45.71-23.58-0.01-13.02 20.46-23.57 45.71-23.57 25.26 0 45.73 10.55 45.72 23.57z" fill-rule="evenodd" transform="matrix(.95567 -.14762 .14290 .65674 -91.365 302.37)" fill="url(#radialGradient2179)"/>
    <path id="path1354" fill-rule="evenodd" fill="url(#linearGradient2122)" d="m372.75 735.24c-5.94 3.64-15.41 17.3-18.19 24.24-1.54 3.86-9.09 5.05-13.13 7.07-7.95 3.97-3.74 11.11 4.04 11.11 10.36 0 20.28 0.02 30.31 2.02 7.56 1.51 15.43 1.01 23.23 1.01 7.94 0 8.98-5.27 7.07-9.09-1.73-3.47-10.95-7.77-13.13-12.12-2.07-4.13-1.9-18.34-7.07-22.22-0.38-0.29-6.72-5.97-13.13-2.02z"/>
    <path id="path2124" fill-rule="evenodd" fill="url(#linearGradient2126)" d="m372.75 735.24c-5.94 3.64-15.41 17.3-18.19 24.24-1.54 3.86-9.09 5.05-13.13 7.07-7.95 3.97-3.74 11.11 4.04 11.11 10.36 0 20.28 0.02 30.31 2.02 7.56 1.51 15.43 1.01 23.23 1.01 7.94 0 8.98-5.27 7.07-9.09-1.73-3.47-10.95-7.77-13.13-12.12-2.07-4.13-1.9-18.34-7.07-22.22-0.38-0.29-6.72-5.97-13.13-2.02z"/>
    <path id="path2138" opacity=".46759" fill-rule="evenodd" fill="url(#linearGradient2140)" d="m372.75 735.24c-5.94 3.64-15.41 17.3-18.19 24.24-1.54 3.86-9.09 5.05-13.13 7.07-7.95 3.97-3.74 11.11 4.04 11.11 10.36 0 20.28 0.02 30.31 2.02 7.56 1.51 15.43 1.01 23.23 1.01 7.94 0 8.98-5.27 7.07-9.09-1.73-3.47-10.95-7.77-13.13-12.12-2.07-4.13-1.9-18.34-7.07-22.22-0.38-0.29-6.72-5.97-13.13-2.02z"/>
    <path id="path2142" opacity=".50926" fill-rule="evenodd" fill="url(#linearGradient2144)" d="m372.75 735.24c-5.94 3.64-15.41 17.3-18.19 24.24-1.54 3.86-9.09 5.05-13.13 7.07-7.95 3.97-3.74 11.11 4.04 11.11 10.36 0 20.28 0.02 30.31 2.02 7.56 1.51 15.43 1.01 23.23 1.01 7.94 0 8.98-5.27 7.07-9.09-1.73-3.47-10.95-7.77-13.13-12.12-2.07-4.13-1.9-18.34-7.07-22.22-0.38-0.29-6.72-5.97-13.13-2.02z"/>
    <path id="path2146" opacity=".67593" fill-rule="evenodd" fill="url(#radialGradient2155)" d="m358.6 766.36c3.39 0.43 11.27-0.31 16.58-1.54 4.5-1.04 7.22-1.31 9.95-3.85 3.94-3.66 3.84-0.53 9.11 1.9 2.93 3.13 7.18 2.08 10.15 8.1 2.93 2.72-11.8 0-15.95 0-4.45 0-8.3-0.77-12.43-0.77-2.85 0-8.67-1.05-10.78-1.54-3.28-0.76-1.58-1.37-6.63-2.3z"/>
    <path id="path2161" opacity=".46759" d="m387.14 752.36c0 4.74-3.83 8.57-8.57 8.57-4.73 0-8.57-3.83-8.57-8.57 0-4.73 3.84-8.57 8.57-8.57 4.74 0 8.57 3.84 8.57 8.57z" fill-rule="evenodd" transform="matrix(.46870 -.17161 .34381 .93904 -50.684 103.73)" fill="url(#radialGradient2169)"/>
    <path id="path2223" fill="url(#radialGradient2242)" d="m384.1 745.83c-0.32 0.08-0.63-0.18-0.94-0.27 7.03 1.47 0.11-0.15 1.18-1.56-0.29-0.2-0.1 0.1-0.23 0.23l4.01-9.42c1.9 1.22 3.96 1.86 5.08 4.06 4.66 11.94-2.84 20.8-15.46 15.35-8.58-7.9-5.36-17.93 6.36-18.75v10.36z"/>
    <path id="path2248" fill="url(#linearGradient2264)" d="m389.06 848.98c19.5 32.61-39.41 32.94-38.04 67.43 1.38 34.84 31.46 19.78 50.02 50.33l1.36 12.09c-27.17-37.97-52.08-27.66-53.16-61.72-1.07-34.07 44.85-45.57 40.61-61.82l-0.79-6.31z"/>
    <path id="path2284" fill="url(#linearGradient2317)" d="m395.35 1000.7c-9.28 13.3-34.1 18-33.95 2.5 0.36-36.91 41.7-9.78 42.92 20.4 0.59 14.7-36.31 14-42.15 26.9l-1.06-8.5c4.9-11 39.15-9.6 37.45-17.7-5.81-27.92-21.85-36.15-32.52-27.48 1.28 15.08 21.25 9.88 28.94-3.59l0.37 7.47z"/>
    <path id="path2319" fill="url(#linearGradient2321)" d="m409.79 998.3c-9.29 9-48.54 18.3-48.39 7.9l4.64-4.4c1.28 10.3 35.69 0.6 43.37-8.57l0.38 5.07z"/>
    <path id="path2323" fill="url(#linearGradient2327)" d="m384.1 745.83c-0.32 0.08-0.63-0.18-0.94-0.27 7.03 1.47 0.11-0.15 1.18-1.56-0.29-0.2-0.1 0.1-0.23 0.23l4.01-9.42c1.9 1.22 3.96 1.86 5.08 4.06 4.66 11.94-2.84 20.8-15.46 15.35-8.58-7.9-5.36-17.93 6.36-18.75v10.36z"/>
    <path id="path2246" fill="url(#linearGradient2256)" d="m392.33 736.55c-9.76 22.19-12.99 1.44-21.3 2.75-12.74-0.02-32.13 6.31-38.99 16.56-9.4 14.05-13.05 28.87-5.67 47.75 7.43 19 29.43 25.71 53.51 39.27l0.31 4.01c-18.28-14.31-48.78-14.92-58.94-36.51-10.31-21.88-9.62-39.63 10.16-58.7 10.47-9.75 22.83-17.62 37.49-17.94l23.43 2.81z"/>
    <path id="path2329" opacity=".63889" fill="url(#radialGradient2333)" d="m392.33 736.55c-9.76 22.19-12.99 1.44-21.3 2.75-12.74-0.02-16.79-5.24-2.13-5.56l23.43 2.81z"/>
  </g>
  <path id="path3893" fill-rule="evenodd" fill="url(#linearGradient5183)" d="m695.62 790.56l-117.58 373.74 10.26 2.3 113.3-374.64-5.98-1.4z"/>
  <path id="path3895" opacity=".75" fill-rule="evenodd" fill="url(#radialGradient5180)" d="m1044.4 433.74c-32 180.12-231.68 379.54-340.31 363.1-105.82-15.94-226.17-278.15-194.1-458.26 32.07-180.12 177.82-304.98 325.32-278.72 147.51 26.269 241.19 193.77 209.09 373.88z"/>
  <path id="path3897" fill-rule="evenodd" fill="url(#radialGradient5177)" d="m1044.4 433.74c-32 180.12-231.68 379.54-340.31 363.1-105.82-15.94-226.17-278.15-194.1-458.26 32.07-180.12 177.82-304.98 325.32-278.72 147.51 26.269 241.19 193.77 209.09 373.88z"/>
  <path id="path3899" opacity=".6" fill-rule="evenodd" fill="url(#linearGradient5174)" d="m769.73 85.914c-11.27-4.561-41.31 4.201-54.14 10.675-26.38 13.311-42.94 22.891-62.46 41.111-29.96 27.98-10.8 37.84 24.13 27.52 26.68-7.89-25.56 27.92-32.83 37.68-12.14 16.31-35.26 19.71-48.21 26.24-13.5 6.82-19.46 27.88-43.58 32.87-26.32 5.46 7.89 28.55 16.5 37.77 13.75 14.73-27.83 38.81 17.99 29.32 27.02-5.6 27.61-22.67 29.94 11.13 0.77 11.15 58.21-15.97 61.27-18.11 3.57-2.49 18.32-54 18.96-57.57 0.01-0.07 19.41-12.63 32.44-2.93 20.22 15.05 4.39 32.99 34.56 17.77 15.33-7.74 4.46 56.45 4.05 58.76-5.89 33.11 46.91 14.27 56.07 27.39 9.78 14.02-6.73 39.79 4.55 55.95 8.89 12.76 51.62-11.38 57.95-15.8 20.7-14.44 9.68-21.43 35.06 14.95 17.89 25.63 32.98-20.89 54.26 21.27 12.95 25.66 13.97-15.93 19.57-28.44 9.49-21.1 10.99-57.38 11.19-79.26 0.2-12.38 34.8 31.95 31.3 20.08-6.4-21.66-17.8-42.25-23.8-62.27-7.6-25.94-9.1-41.58-10.9-68.7-1.7-23.44 4.2-25.68-7.1-41.89-11.94-17.11-37.95 3.61-39.69-21.58-1.21-17.52-38.58-5.86-48.63-20.26-2.83-4.06-2.81-36.56-4.24-41.388-3.14-10.62-40.65-13.042-52.44-15.142-3.75-0.667-7.5-1.335-11.25-2.003-12.91-2.298-27.73-7.839-41.7-10.326-1.01-0.181-19.07 13.163-28.82 15.183z"/>
  <path id="path3901" fill-rule="evenodd" fill="url(#radialGradient5171)" d="m901.29 210.91c-3.88 21.75-24.65 36.24-46.4 32.37s-36.24-24.64-32.36-46.39c3.87-21.75 24.64-36.24 46.39-32.37s36.24 24.64 32.37 46.39z"/>
  <path id="path3903" opacity=".6" fill-rule="evenodd" fill="url(#radialGradient5168)" d="m974.42 223.93c-11.06 62.14-70.41 103.55-132.55 92.49-62.14-11.07-103.55-70.41-92.48-132.55 11.06-62.15 70.41-103.55 132.55-92.487 62.14 11.067 103.55 70.407 92.48 132.55z"/>
  <path id="path3905" opacity=".4" fill-rule="evenodd" fill="url(#linearGradient5165)" d="m835.32 59.873c-147.51-26.265-293.26 98.577-325.33 278.69-32.07 180.12 88.29 442.34 194.11 458.28 108.62 16.44 308.3-182.99 340.4-363.11 32-180.12-61.67-347.59-209.18-373.86zm-6.9 2.929c5.41 0.519 11.12 2.003 17.15 4.706 17.69 7.922 19.96 37.032 24.92 39.252 18.69 8.38 35.78-6.01 49.34 0.06 16.97 7.6 16.21 16.2 24.11 27.53 7.34 10.52 14.64 28.01 24.45 42.06 8.03 11.51 20.97 34.74 32.91 43.59 11.1 8.32 25 22.35 22.6 35.96-5.2 28.76-21.6 14.18-28.57 29.74-9.58 21.39 32.17 31.05 27.07 59.96-5.3 29.88-44.34 26.29-37.96 33.87 0.12 0.15 42.96 84.56 5.37 67.7-21.06-9.43-49.3-57.91-66.33-35.04-6.18 8.31-47.49 46.75-55.65 19.13-17.48-59.12-18.83 0.65-65.99-20.48-15.54-6.95-6.3-23.25 1.38-40.38 32.02-71.47-46-31.59-36.5-55.82 28.66-73.12 9.97-6.84-0.92-43.68-6.56-22.2-9.5-43.8-39-41.77-45.49 3.13-17.25 24.75-26.38 50.44-8.48 23.89-37.65 7.84-31.33 29.24 2.13 7.19 8.06 60.97 2.25 52.65-2.31-3.32-4.64-6.66-6.96-9.97-24.92-35.72-50.96 26.03-58.87-27.88-6.14-41.9-27.4 11.18-60.77 15.3-23.21 26.64-17.95 3.11-14.86-14.26 2.79-15.69 10.54-26.59 13.64-44.01 5.06-28.4 22.65-13.34 42.56-27.24 11.59-8.08 45.18-14.16 22.9-30.74-11.7-8.71-37.13-8.4-14.38-17.07 14.63-5.58 74.54-23.53 61.16-50.05-7.54-14.94-29.82-57.558 11.81-50.15 37.16 6.62 45.94 9.34 58.45-18.6 10.19-22.747 39.34 4.588 59.78-9.671 12.64-8.823 26.36-15.934 42.62-14.377z"/>
  <path id="path3907" opacity=".53" fill-rule="evenodd" fill="url(#radialGradient5162)" d="m851.27 489.67c23.96 126.35-28.88 242.48-118.03 259.38-89.14 16.9-180.83-71.82-204.79-198.17-23.95-126.36 28.89-242.49 118.03-259.39 89.15-16.9 180.84 71.82 204.79 198.18z"/>
  <path id="path3909" opacity=".3" fill-rule="evenodd" fill="url(#radialGradient5159)" d="m800.7 579.23c13.42 70.78-18.77 136.33-71.89 146.41-53.13 10.07-107.08-39.15-120.5-109.93-13.43-70.79 18.76-136.34 71.89-146.41 53.13-10.08 107.08 39.14 120.5 109.93z"/>
  <path id="path3911" opacity=".1" fill-rule="evenodd" fill="url(#linearGradient5156)" d="m594.67 641.27c-7.59-29.45-30.63-85-39.12-125.99-4.81-23.21-2.01-55.66 20.43-45.61 34.02 15.24 7.51 67.68 31.82 5.67 1.56-3.98 9.48 52.61 48.88 25.12 31.3-21.84 6.37 56.45 3.17 74.44-1.25 6.99 28.26 25.56 45.61 20.43 43.61-12.89-6.82 34.39-12.48 47.03-13.77 30.73 83.54-10.27 88.5-12.97 46.18-25.14 51.05 9.67 84.52-13.68 35.13-24.52 69.81-41.75 96.99-60.71 21.54-15.03-9.23-37.68 27.69-40.22 27.92-1.92 2.6 50.44-5.94 56.4-20.83 14.53-41.09-1.76-54.11 27.3-8.15 18.19-13.63 30.42-17.88 54.28-3.79 21.31-39.46 41.47-54.38 51.88-21.12 14.73-14.84 26.56-46.15 28.72-21.48 1.48-39.46 38.04-54.12 27.3-16.95 5.01-43.83 11.08-55.96 14.66-22.69 6.71-30.04-29.97-59.4-35.2-22.16-3.95-38.66-26.38-46.05-41.03-7.12-14.11-4.72-42.62-2.02-57.82z"/>
  <path id="path3913" fill-rule="evenodd" fill="url(#radialGradient5153)" d="m1044.4 433.74c-32 180.12-231.68 379.54-340.31 363.1-105.82-15.94-226.17-278.15-194.1-458.26 32.07-180.12 177.82-304.98 325.32-278.72 147.51 26.269 241.19 193.77 209.09 373.88z"/>
  <path id="path3915" opacity=".3" fill-rule="evenodd" fill="url(#radialGradient5150)" d="m743.31 789.2c-1.56 8.61-22.06 10.86-45.77 5.02s-41.65-17.55-40.08-26.16 22.06-10.86 45.77-5.02 41.66 17.56 40.08 26.16z"/>
  <path id="path3917" fill-rule="evenodd" fill="url(#linearGradient5147)" d="m698.96 779.91c-6.88 1.09-20.88 10.05-26.11 15.39-2.91 2.97-10.33 1.17-14.84 1.48-8.86 0.61-7.72 8.82-0.54 11.81 9.56 3.98 18.71 7.81 27.2 13.52 6.4 4.3 13.85 6.86 21.05 9.86 7.34 3.06 10.32-1.41 10.03-5.67-0.27-3.87-7.13-11.38-7.46-16.24-0.32-4.61 5.3-17.66 2.02-23.23-0.25-0.41-3.91-8.09-11.35-6.92z"/>
  <path id="path3919" fill-rule="evenodd" fill="url(#linearGradient5144)" d="m698.96 779.91c-6.88 1.09-20.88 10.05-26.11 15.39-2.91 2.97-10.33 1.17-14.84 1.48-8.86 0.61-7.72 8.82-0.54 11.81 9.56 3.98 18.71 7.81 27.2 13.52 6.4 4.3 13.85 6.86 21.05 9.86 7.34 3.06 10.32-1.41 10.03-5.67-0.27-3.87-7.13-11.38-7.46-16.24-0.32-4.61 5.3-17.66 2.02-23.23-0.25-0.41-3.91-8.09-11.35-6.92z"/>
  <path id="path3921" opacity=".46759" fill-rule="evenodd" fill="url(#linearGradient5141)" d="m698.96 779.91c-6.88 1.09-20.88 10.05-26.11 15.39-2.91 2.97-10.33 1.17-14.84 1.48-8.86 0.61-7.72 8.82-0.54 11.81 9.56 3.98 18.71 7.81 27.2 13.52 6.4 4.3 13.85 6.86 21.05 9.86 7.34 3.06 10.32-1.41 10.03-5.67-0.27-3.87-7.13-11.38-7.46-16.24-0.32-4.61 5.3-17.66 2.02-23.23-0.25-0.41-3.91-8.09-11.35-6.92z"/>
  <path id="path3923" opacity=".50926" fill-rule="evenodd" fill="url(#linearGradient5138)" d="m698.96 779.91c-6.88 1.09-20.88 10.05-26.11 15.39-2.91 2.97-10.33 1.17-14.84 1.48-8.86 0.61-7.72 8.82-0.54 11.81 9.56 3.98 18.71 7.81 27.2 13.52 6.4 4.3 13.85 6.86 21.05 9.86 7.34 3.06 10.32-1.41 10.03-5.67-0.27-3.87-7.13-11.38-7.46-16.24-0.32-4.61 5.3-17.66 2.02-23.23-0.25-0.41-3.91-8.09-11.35-6.92z"/>
  <path id="path3925" opacity=".67593" fill-rule="evenodd" fill="url(#radialGradient5135)" d="m673.94 803.2c2.95 1.71 10.51 4.05 15.89 4.96 4.55 0.76 7.17 1.56 10.66 0.27 5.05-1.86 3.75 0.99 7.69 5.26 1.5 4.01 5.82 4.68 6.25 11.38 1.66 3.63-10.9-4.54-14.72-6.14-4.11-1.71-7.37-3.9-11.18-5.49-2.64-1.09-7.6-4.3-9.36-5.56-2.74-1.96-0.94-1.87-5.23-4.68z"/>
  <path id="path3927" opacity=".46759" fill-rule="evenodd" fill="url(#radialGradient5132)" d="m711.08 794.23c-0.21 4.73-2.29 8.48-4.65 8.38s-4.1-4.02-3.9-8.75c0.21-4.73 2.29-8.48 4.65-8.38 2.36 0.11 4.11 4.02 3.9 8.75z"/>
  <path id="path3929" fill="url(#radialGradient5129)" d="m705.36 794.06c-0.32-0.05-0.51-0.41-0.76-0.61 5.93 4.05 0.16-0.09 1.69-0.98-0.19-0.31-0.13 0.05-0.3 0.12l7.33-7.16c1.28 1.86 2.94 3.25 3.13 5.7-0.29 12.82-10.62 18.11-20.18 8.23-4.88-10.6 1.94-18.61 13.08-14.87l-3.99 9.57z"/>
  <path id="path3931" fill="url(#linearGradient5126)" d="m670.98 891.48c5.46 37.6-49.75 14.96-61.74 47.32-12.13 32.69 22.13 30.65 27.52 66l-3.4 11.7c-10.48-45.53-38.14-45.88-26.04-77.74 12.11-31.86 59.63-24.53 61.97-41.16l1.69-6.12z"/>
  <path id="path3933" fill="url(#linearGradient5123)" d="m619.74 1033.7c-13.69 8.7-56.51 6.6-50.43-7.6 14.52-33.97 58.38 3.8 47.9 32.1-5.09 13.8-38.89-1-49.25 8.7l2.28-8.3c8.76-8.2 39.82 6.2 41.39-1.9 5.37-28-22.4-38.6-35.58-34.7-4.64 14.4 33.93 14.1 46.22 4.6l-2.53 7.1z"/>
  <path id="path3935" fill="url(#linearGradient5120)" d="m617.74 1033.7c-13.69 8.7-54.51 6.6-48.43-7.6l6.74-4.1c-4.64 14.4 31.93 14.1 44.22 4.6l-2.53 7.1z"/>
  <path id="path3937" fill="url(#linearGradient5117)" d="m705.36 794.06c-0.32-0.05-0.51-0.41-0.76-0.61 5.93 4.05 0.16-0.09 1.69-0.98-0.19-0.31-0.13 0.05-0.3 0.12l7.33-7.16c1.28 1.86 2.94 3.25 3.13 5.7-0.29 12.82-10.62 18.11-20.18 8.23-4.88-10.6 1.94-18.61 13.08-14.87l-3.99 9.57z"/>
  <path id="path3939" fill="url(#linearGradient5114)" d="m716.53 788.65c-17.54 16.74-12.55-3.66-20.72-5.64-11.75-4.93-32.08-6.53-42.35 0.29-14.09 9.35-23.15 21.63-23.6 41.89-0.45 20.41 19.38 35.93 36.39 57.71l-1.26 3.82c-11.36-20.23-41.39-33.41-42.47-57.24-1.09-24.17 6.37-40.28 31.96-50.29 13.41-4.96 27.85-7.48 41.51-2.14l20.54 11.6z"/>
  <path id="path3941" opacity=".63889" fill="url(#radialGradient5111)" d="m716.53 788.65c-17.54 16.74-12.55-3.66-20.72-5.64-11.75-4.93-13.48-11.3 0.18-5.96l20.54 11.6z"/>
  <path id="path4759" fill-rule="evenodd" fill="url(#linearGradient5058)" d="m446.35 827.92l71.38 339.88 9.06 0.9-72.51-342.39-7.93 1.61z"/>
  <path id="path4761" opacity=".75" fill-rule="evenodd" fill="url(#radialGradient5055)" d="m586.15 348.33c57.22 173.78-23.94 444.05-127.36 481.11-100.72 36.16-331.05-137.57-388.27-311.34-57.208-173.78 11.86-352.84 154.17-399.69 142.32-46.855 304.25 56.15 361.46 229.92z"/>
  <path id="path4763" fill-rule="evenodd" fill="url(#radialGradient5052)" d="m586.15 348.33c57.22 173.78-23.94 444.05-127.36 481.11-100.72 36.16-331.05-137.57-388.27-311.34-57.208-173.78 11.861-352.84 154.17-399.69 142.32-46.855 304.25 56.15 361.46 229.92z"/>
  <path id="path5074" opacity=".15" d="m782.11 437.22a131.07 247.1 0 1 1 -262.13 0 131.07 247.1 0 1 1 262.13 0z" fill-rule="evenodd" transform="matrix(1.2202 0 0 1 -135.79 0)" fill="url(#radialGradient5082)"/>
  <path id="path4765" opacity=".6" fill-rule="evenodd" fill="url(#linearGradient5049)" d="m179.32 172.45c-12.09 1.33-34.37 23.3-42.6 35.08-16.91 24.24-26.94 40.53-35.48 65.83-13.102 38.84 8.44 38.43 34.29 12.77 19.75-19.6-9.26 36.71-11.02 48.75-2.95 20.12-21.69 34.08-29.988 45.97-8.658 12.41-3.91 33.77-22.771 49.61-20.582 17.29 20.481 21.39 32.429 25.42 19.1 6.44-6.079 47.37 29.76 17.28 21.13-17.75 13.55-33.06 31.63-4.41 5.97 9.46 43.67-41.67 45.35-45 1.96-3.89-9.49-56.23-10.62-59.67-0.03-0.07 11.09-20.33 27.17-17.97 24.93 3.65 19.51 26.95 38.85-0.76 9.83-14.09 30.71 47.58 31.44 49.8 10.52 31.95 48.06-9.69 62.35-2.48 15.26 7.71 12.95 38.22 30.55 47.1 13.88 7.01 40.04-34.51 43.52-41.4 11.37-22.54-1.65-23.46 37.96-3.47 27.9 14.07 19.12-34.05 57.85-7.02 23.57 16.45 4.74-20.65 3.74-34.32-1.69-23.07-17.57-55.72-27.73-75.09-5.75-10.97 45.76 11.63 37.03 2.84-15.91-16.02-35.72-28.73-50.43-43.55-19.06-19.2-27.75-32.28-42.26-55.27-12.54-19.86-8.44-24.62-26.08-33.53-18.63-9.4-31.7 21.19-45.18-0.16-9.37-14.85-36.74 13.13-52.42 5.22-4.42-2.22-19.82-30.85-23.36-34.42-7.81-7.86-41.98 7.81-53.35 11.55-3.62 1.19-7.24 2.38-10.86 3.58-12.45 4.1-28.13 6.25-41.6 10.68-0.98 0.33-10.55 20.64-18.17 27.04z"/>
  <path id="path4767" fill-rule="evenodd" fill="url(#radialGradient5046)" d="m354.43 220.08c6.9 20.99-4.51 43.6-25.49 50.51-20.98 6.9-43.59-4.51-50.5-25.49s4.5-43.59 25.48-50.5c20.99-6.91 43.6 4.5 50.51 25.48z"/>
  <path id="path4769" opacity=".6" fill-rule="evenodd" fill="url(#radialGradient5043)" d="m424.99 196.85c19.73 59.95-12.87 124.56-72.82 144.3-59.95 19.73-124.55-12.87-144.29-72.82s12.86-124.55 72.81-144.29 124.56 12.86 144.3 72.81z"/>
  <path id="path4771" opacity=".4" fill-rule="evenodd" fill="url(#linearGradient5040)" d="m224.7 118.42c-142.31 46.85-211.4 225.89-154.18 399.66 57.21 173.78 287.56 347.52 388.27 311.35 103.43-37.05 184.58-307.34 127.37-481.11-57.21-173.78-219.14-276.76-361.46-229.9zm-4.68 5.85c5.01-2.11 10.74-3.52 17.33-4 19.33-1.41 35.14 23.14 40.56 22.74 20.43-1.49 28.64-22.27 43.46-23.36 18.54-1.35 21.95 6.57 34.29 12.8 11.45 5.78 26.17 17.71 41.47 25.43 12.53 6.32 34.94 20.63 49.61 22.78 13.78 2.02 32.64 7.8 36.96 20.93 9.14 27.75-12.25 22.71-11 39.72 1.71 23.37 43.08 12.05 52.26 39.94 9.49 28.83-26.55 44.18-17.35 47.82 0.19 0.08 77.96 54.05 36.85 57.06-23.02 1.68-70.87-27.6-75.01 0.61-1.5 10.25-19.63 63.68-39.92 43.25-43.43-43.76-16.26 9.5-67.81 13.28-16.97 1.24-16.57-17.49-17.94-36.21-5.72-78.11-55.48-5.99-58.61-31.83-9.45-77.97 5.54-10.75-21.53-38.02-16.31-16.42-29.14-34.04-54.15-18.26-38.55 24.33-3.44 29.97 0.71 56.91 3.86 25.06-29.43 24.77-13.71 40.61 5.28 5.32 36.02 49.85 26.95 45.28-3.6-1.82-7.24-3.66-10.85-5.48-38.89-19.62-32.52 47.1-65.04 3.39-25.29-33.98-18.83 22.84-46.25 42.3-7.792 34.46-14.327 11.25-19.845-5.51-4.985-15.14-3.334-28.41-8.865-45.21-9.022-27.4 13.603-22.49 24.543-44.17 6.367-12.62 33.057-33.9 5.577-37.93-14.433-2.12-36.678 10.23-20.764-8.2 10.232-11.85 54.454-56.08 30.094-73.08-13.717-9.57-53.551-36.52-13.384-49.74 35.854-11.81 44.864-13.58 42.624-44.11-1.82-24.86 36.81-14.62 48.04-36.87 6.95-13.76 15.65-26.53 30.7-32.87z"/>
  <path id="path4773" opacity=".53" fill-rule="evenodd" fill="url(#radialGradient5037)" d="m442.64 489.2c81.03 99.86 89.6 227.17 19.14 284.33-70.46 57.17-193.26 22.56-274.29-77.3-81.03-99.87-89.603-227.17-19.15-284.34 70.46-57.17 193.26-22.55 274.3 77.31z"/>
  <path id="path4775" opacity=".3" fill-rule="evenodd" fill="url(#radialGradient5034)" d="m440.6 592.04c45.4 55.94 48.16 128.92 6.17 162.99s-112.84 16.34-158.23-39.61c-45.4-55.95-48.16-128.92-6.17-163 41.99-34.07 112.83-16.33 158.23 39.62z"/>
  <path id="path4777" opacity=".1" fill-rule="evenodd" fill="url(#linearGradient5031)" d="m288.67 744.39c-20.66-22.32-67.3-60.29-94.22-92.35-15.24-18.15-28.17-48.05-3.65-49.85 37.18-2.72 38.72 56.02 30.71-10.1-0.52-4.25 33.3 41.82 54.94-1.08 17.2-34.07 32.39 46.68 38.1 64.03 2.22 6.75 37.01 9.09 49.85-3.65 32.27-32.03 10.31 33.51 11.32 47.32 2.46 33.58 68.67-48.67 71.75-53.4 28.73-44.04 49.53-15.71 67.92-52.14 19.3-38.25 41.66-69.87 56.59-99.45 11.83-23.45-26-28.79 5.29-48.54 23.69-14.95 26.22 43.17 21.53 52.47-11.45 22.67-37.01 17.94-34.69 49.7 1.46 19.87 2.44 33.24 10.02 56.26 6.77 20.56-15.07 55.23-23.27 71.47-11.6 22.99-0.46 30.42-27 47.18-18.21 11.49-16.69 52.21-34.69 49.7-12.54 12.46-33.33 30.54-42.31 39.46-16.79 16.66-40.67-12.14-68.99-2.81-21.38 7.03-46.55-4.89-60-14.28-12.96-9.05-24.38-35.28-29.2-49.94z"/>
  <path id="path4779" fill-rule="evenodd" fill="url(#radialGradient5028)" d="m586.15 348.33c57.22 173.78-23.94 444.05-127.36 481.11-100.72 36.16-331.05-137.57-388.27-311.34-57.208-173.78 11.861-352.84 154.17-399.69 142.32-46.855 304.25 56.15 361.46 229.92z"/>
  <path id="path4781" opacity=".3" fill-rule="evenodd" fill="url(#radialGradient5025)" d="m489.69 804.11c2.71 8.32-14.27 20.02-37.91 26.12-23.64 6.11-45 4.31-47.69-4.01-2.71-8.32 14.26-20.02 37.91-26.13 23.64-6.11 45-4.31 47.69 4.02z"/>
  <path id="path4783" fill-rule="evenodd" fill="url(#linearGradient5022)" d="m446.24 816.97c-5.54 4.22-13.61 18.75-15.68 25.93-1.16 3.99-8.55 5.93-12.37 8.34-7.51 4.74-2.62 11.43 5.13 10.65 10.31-1.03 20.17-2 30.35-1 7.68 0.75 15.46-0.53 23.22-1.3 7.9-0.79 8.41-6.15 6.13-9.75-2.07-3.28-11.67-6.64-14.27-10.76-2.46-3.9-3.71-18.06-9.24-21.41-0.41-0.25-7.28-5.27-13.27-0.7z"/>
  <path id="path4785" fill-rule="evenodd" fill="url(#linearGradient5019)" d="m446.24 816.97c-5.54 4.22-13.61 18.75-15.68 25.93-1.16 3.99-8.55 5.93-12.37 8.34-7.51 4.74-2.62 11.43 5.13 10.65 10.31-1.03 20.17-2 30.35-1 7.68 0.75 15.46-0.53 23.22-1.3 7.9-0.79 8.41-6.15 6.13-9.75-2.07-3.28-11.67-6.64-14.27-10.76-2.46-3.9-3.71-18.06-9.24-21.41-0.41-0.25-7.28-5.27-13.27-0.7z"/>
  <path id="path4787" opacity=".46759" fill-rule="evenodd" fill="url(#linearGradient5016)" d="m446.24 816.97c-5.54 4.22-13.61 18.75-15.68 25.93-1.16 3.99-8.55 5.93-12.37 8.34-7.51 4.74-2.62 11.43 5.13 10.65 10.31-1.03 20.17-2 30.35-1 7.68 0.75 15.46-0.53 23.22-1.3 7.9-0.79 8.41-6.15 6.13-9.75-2.07-3.28-11.67-6.64-14.27-10.76-2.46-3.9-3.71-18.06-9.24-21.41-0.41-0.25-7.28-5.27-13.27-0.7z"/>
  <path id="path4789" opacity=".50926" fill-rule="evenodd" fill="url(#linearGradient5013)" d="m446.24 816.97c-5.54 4.22-13.61 18.75-15.68 25.93-1.16 3.99-8.55 5.93-12.37 8.34-7.51 4.74-2.62 11.43 5.13 10.65 10.31-1.03 20.17-2 30.35-1 7.68 0.75 15.46-0.53 23.22-1.3 7.9-0.79 8.41-6.15 6.13-9.75-2.07-3.28-11.67-6.64-14.27-10.76-2.46-3.9-3.71-18.06-9.24-21.41-0.41-0.25-7.28-5.27-13.27-0.7z"/>
  <path id="path4791" opacity=".67593" fill-rule="evenodd" fill="url(#radialGradient5010)" d="m435.26 849.34c3.41 0.1 11.18-1.43 16.34-3.18 4.37-1.48 7.05-2.02 9.52-4.81 3.56-4.04 3.77-0.91 9.26 0.98 3.22 2.82 7.34 1.35 10.9 7.05 3.18 2.41-11.75 1.17-15.87 1.58-4.43 0.45-8.34 0.06-12.45 0.47-2.84 0.29-8.73-0.18-10.87-0.46-3.34-0.43-1.72-1.2-6.83-1.63z"/>
  <path id="path4793" opacity=".46759" fill-rule="evenodd" fill="url(#radialGradient5007)" d="m443.7 823.82c2.07 4.26 2.01 8.55-0.12 9.58-2.12 1.03-5.52-1.59-7.58-5.85s-2.01-8.55 0.12-9.58 5.52 1.59 7.58 5.85z"/>
  <path id="path4795" fill="url(#radialGradient5004)" d="m438.59 826.38c-0.31 0.11-0.64-0.12-0.97-0.17 7.15 0.75 0.1-0.16 1.03-1.67-0.31-0.18-0.09 0.11-0.21 0.25l3.06-9.78c2 1.03 4.12 1.46 5.45 3.54 5.83 11.41-0.75 20.97-13.85 16.81-9.33-7.01-7.12-17.31 4.46-19.29l1.03 10.31z"/>
  <path id="path4797" fill="url(#linearGradient5001)" d="m464.55 908.06c-9.44 36.8 49.87 38.18 58.35 71.63 8.57 33.81-28.51 2.12-37.63 36.71l2.13 11.9c15.27-44.07 46.05-15.5 37.41-48.45-8.65-32.97-58.68-48.74-59.22-65.52l-1.04-6.27z"/>
  <g id="g5066" transform="matrix(-.99601 .089248 .089248 .99601 894.77 -68.925)">
    <path id="path4799" fill="url(#linearGradient5070)" d="m491.89 1079.2c-7.92 14.1-41.63 31.4-43.02 15.9-3.31-36.7 53.23-24.2 57.44 5.7 2.05 14.5-34.74 17.5-39.26 30.9l-1.9-8.3c3.78-11.5 38-13.4 35.5-21.4-8.55-27.2-38.04-23.3-47.79-13.7 2.78 15 33.6-2.5 39.9-16.7l-0.87 7.6z"/>
    <path id="path4801" fill="url(#linearGradient5072)" d="m489.62 1079.4c-7.92 14.1-39.36 31.2-40.75 15.7l3.99-6.8c2.78 15 31.33-2.3 37.63-16.5l-0.87 7.6z"/>
  </g>
  <path id="path4803" fill="url(#linearGradient4992)" d="m438.59 826.38c-0.31 0.11-0.64-0.12-0.97-0.17 7.15 0.75 0.1-0.16 1.03-1.67-0.31-0.18-0.09 0.11-0.21 0.25l3.06-9.78c2 1.03 4.12 1.46 5.45 3.54 5.83 11.41-0.75 20.97-13.85 16.81-9.33-7.01-7.12-17.31 4.46-19.29l1.03 10.31z"/>
  <path id="path4805" fill="url(#linearGradient4989)" d="m430.14 819.06c16.08 18.14 12.81-2.6 21.11-3.9 12.13-3.92 32.52-3.83 42.19 3.83 13.25 10.49 21.26 23.49 20.01 43.72-1.25 20.37-26.32 14.19-45.08 34.46l0.93 3.92c13.02-19.22 48.04-9.83 51.11-33.5 3.11-23.99-2.98-40.67-27.65-52.78-12.95-6.07-27.12-9.78-41.18-5.6l-21.44 9.85z"/>
  <path id="path4807" opacity=".63889" fill="url(#radialGradient4986)" d="m445.85 816.33c-7.5 23.05-12.78 2.72-20.91 4.85-12.68 1.24-17.23-3.55-2.67-5.32l23.58 0.47z"/>
  <path id="path5084" opacity=".15" d="m584.44 473.75a96.69 257.84 0 1 1 -193.38 0 96.69 257.84 0 1 1 193.38 0z" fill-rule="evenodd" transform="matrix(.98588 -.16181 .16746 .95262 -68.149 66.993)" fill="url(#linearGradient5092)"/>
  <path id="path5094" opacity=".15" fill-rule="evenodd" fill="url(#linearGradient5096)" d="m653.71 683.68c-2.3 3.26-1.84 6.06-0.16 11.6 0.94 3.09-3.81 4.59-5.62 6.45-3.56 3.67 3.2 8.84 8.73 8.24 7.38-0.79 14.44-1.54 22.63-0.77 6.18 0.58 11.51-0.41 17.06-1.01 5.66-0.61 3.61-4.75 0.25-7.54-3.07-2.54-11.89-5.13-15.74-8.32-3.64-3.02-11.01-9.96-16.74-12.55 0.66 4.11-7.92 0.37-10.41 3.9z"/>
  <path id="path5100" opacity=".1" fill="url(#linearGradient5195)" d="m650.41 689.82c-6.11 15.96 4.04 47.01 12.01 65.76 7.32 15.23 15.94 29.88 27.58 42.19l-6.77 6.1c-11.66-13.53-20.58-29.02-28.23-45.13-7.24-16.99-32.18-69.77-3.27-78.73l-1.32 9.81z"/>
  <path id="path5185" opacity=".15" fill-rule="evenodd" fill="url(#linearGradient5187)" d="m527.98 684.22c-2.29 1.82-5.07 8.84-5.55 12.43-0.27 2-3.57 2.52-5.19 3.52-3.17 1.96-0.45 5.76 3.09 5.88 4.72 0.15 9.23 0.3 14.02 1.49 3.62 0.9 7.14 0.75 10.69 0.87 3.62 0.11 3.5-2.64 2.2-4.66-1.18-1.85-5.86-4.23-7.34-6.54-1.4-2.2-2.92-9.64-5.71-11.75-0.21-0.15-3.73-3.22-6.21-1.24z"/>
  <path id="path5191" opacity=".15" fill="url(#linearGradient5193)" d="m520.4 692.48c-14.91 8.35-26.98 38.71-32.86 58.22-4.12 16.38-6.87 33.16-5.79 50.07l-9.11 0.35c-0.3-17.85 2.75-35.47 7.18-52.74 5.31-17.69 19.92-74.2 47.87-62.59l-7.29 6.69z"/>
</svg>