<?xml version="1.0" standalone="no"?>
<!DOCTYPE svg PUBLIC "-//W3C//DTD SVG 20010904//EN"
 "http://www.w3.org/TR/2001/REC-SVG-20010904/DTD/svg10.dtd">
<svg version="1.0" xmlns="http://www.w3.org/2000/svg"
 width="576.000000pt" height="715.000000pt" viewBox="0 0 576.000000 715.000000"
 preserveAspectRatio="xMidYMid meet">
<metadata>
Created by potrace 1.16, written by Peter Selinger 2001-2019
</metadata>
<g transform="translate(0.000000,715.000000) scale(0.100000,-0.100000)"
fill="#014983" stroke="none">
<path d="M2590 7014 c-19 -2 -84 -9 -145 -15 -882 -89 -1570 -495 -1977 -1166
-181 -299 -294 -628 -353 -1033 -22 -146 -31 -542 -16 -710 48 -555 195 -1068
460 -1615 105 -215 204 -395 284 -515 301 -451 1062 -1173 1642 -1558 160
-106 373 -224 388 -216 66 38 542 369 684 475 1131 848 1733 1740 1978 2929
77 376 99 597 92 909 -10 436 -86 758 -264 1116 -375 756 -1109 1250 -2053
1381 -109 15 -630 28 -720 18z m747 -240 c227 -23 433 -68 525 -115 76 -39 42
-55 -147 -68 -165 -12 -241 -30 -353 -82 -60 -28 -98 -53 -137 -94 -53 -54
-69 -85 -42 -85 6 0 82 20 169 44 86 25 193 50 238 57 117 17 388 6 512 -20
296 -64 587 -220 724 -389 48 -59 107 -150 120 -184 10 -28 -10 -22 -145 41
-70 32 -155 68 -191 80 -133 44 -241 47 -248 7 -5 -25 14 -37 187 -121 190
-93 280 -155 396 -270 255 -256 415 -607 419 -920 1 -108 -27 -295 -44 -295
-4 0 -11 30 -15 68 -25 232 -137 458 -319 638 -132 131 -296 232 -296 181 0
-17 37 -69 121 -175 162 -200 272 -434 349 -735 62 -245 75 -356 75 -632 0
-205 -4 -258 -23 -364 -36 -201 -138 -475 -182 -489 -11 -4 -11 13 -4 94 28
310 -15 646 -126 987 -56 174 -125 309 -194 380 -65 68 -86 73 -86 19 0 -39
13 -88 74 -287 88 -281 122 -550 113 -885 -8 -299 -39 -509 -113 -770 -82
-290 -197 -509 -369 -705 -40 -46 -40 -47 -21 37 41 177 70 1082 40 1226 -2
12 -9 22 -14 22 -16 0 -74 -218 -160 -605 -109 -490 -190 -765 -284 -961 -86
-178 -160 -270 -258 -320 -58 -30 -149 -46 -196 -36 l-33 7 56 70 c99 124 183
324 216 511 15 89 8 240 -14 281 -35 66 -59 37 -102 -122 -50 -186 -136 -344
-358 -652 -155 -215 -241 -349 -293 -457 -24 -49 -45 -91 -48 -93 -2 -2 -36
56 -76 128 -95 173 -159 272 -295 454 -61 83 -127 175 -146 205 -98 154 -171
318 -209 470 -31 124 -54 138 -91 56 -14 -30 -19 -65 -19 -132 0 -220 89 -478
225 -649 l56 -70 -33 -7 c-36 -8 -125 4 -173 22 -168 64 -314 329 -444 805
-17 61 -58 234 -91 385 -73 329 -141 606 -167 675 -39 104 -51 45 -52 -250 -1
-369 25 -835 55 -964 8 -35 13 -65 11 -67 -5 -6 -108 120 -150 184 -159 240
-289 683 -343 1162 -23 209 -24 580 -1 746 31 225 90 403 172 514 37 51 45 87
20 96 -72 28 -203 -124 -274 -316 -82 -227 -121 -463 -148 -918 l-17 -287 -37
80 c-129 275 -184 599 -159 943 36 515 198 953 469 1272 67 79 92 123 78 137
-23 23 -186 -90 -334 -231 -94 -89 -109 -109 -151 -195 -26 -53 -72 -172 -103
-266 l-56 -170 -8 118 c-29 471 165 904 528 1178 71 53 126 83 359 193 73 35
99 61 83 86 -10 17 -112 11 -198 -11 -86 -22 -204 -75 -297 -134 -90 -58 -106
-36 -47 64 77 130 308 322 489 406 234 108 513 158 744 135 124 -12 184 -25
355 -75 66 -19 127 -35 135 -35 26 0 15 25 -35 81 -90 101 -208 146 -471 179
-213 27 -227 30 -209 41 39 25 177 70 284 93 333 70 853 91 1252 50z"/>
<path d="M1700 6244 c-56 -20 -89 -49 -73 -65 6 -6 55 -20 108 -30 158 -32
247 -72 485 -215 191 -115 305 -166 374 -168 41 -1 51 2 54 17 6 29 -98 120
-257 225 -163 109 -288 176 -401 217 -96 35 -223 43 -290 19z"/>
<path d="M3765 6240 c-131 -21 -176 -44 -445 -224 -175 -118 -274 -204 -268
-233 6 -31 75 -28 165 6 75 29 119 54 365 204 123 74 230 121 326 143 153 35
167 39 167 54 0 43 -174 71 -310 50z"/>
<path d="M1753 5804 c-58 -29 -40 -54 81 -110 101 -46 291 -108 382 -124 79
-14 178 -10 197 9 33 33 -50 81 -273 155 -262 87 -327 99 -387 70z"/>
<path d="M3745 5795 c-160 -41 -393 -134 -437 -173 -30 -26 -22 -50 18 -58 94
-17 299 28 497 111 157 66 188 100 117 129 -53 21 -87 20 -195 -9z"/>
<path d="M3980 5560 c-79 -8 -98 -12 -167 -37 -57 -21 -55 -41 6 -76 67 -37
154 -135 261 -294 49 -72 111 -155 138 -184 42 -45 52 -51 75 -45 56 14 118
175 139 362 15 133 1 206 -44 234 -56 34 -255 53 -408 40z"/>
<path d="M1340 5551 c-42 -12 -53 -63 -47 -241 6 -175 18 -245 56 -322 23 -45
31 -53 57 -56 45 -4 78 28 195 191 68 94 138 178 210 249 60 58 109 113 109
121 0 20 -65 45 -148 57 -76 11 -394 12 -432 1z"/>
<path d="M4110 4873 c0 -5 7 -33 15 -63 58 -215 69 -714 21 -942 -14 -64 -69
-194 -98 -232 -22 -28 -59 -14 -86 31 -13 21 -42 70 -65 108 -52 85 -73 92
-69 20 2 -27 12 -92 23 -144 27 -133 26 -195 -6 -227 -25 -25 -26 -25 -177
-22 -133 3 -153 1 -156 -13 -1 -8 22 -53 53 -100 30 -46 60 -102 66 -124 55
-204 -195 -288 -418 -140 -68 45 -196 167 -234 221 -93 135 -50 231 163 361
140 85 205 163 178 213 -14 26 -83 27 -212 3 -126 -22 -389 -22 -520 0 -161
28 -208 23 -208 -22 0 -52 66 -119 205 -209 94 -60 125 -87 158 -135 54 -79
28 -164 -87 -285 -140 -147 -279 -242 -354 -242 -78 0 -202 90 -224 162 -15
52 0 99 63 196 28 43 49 85 47 96 -3 20 -8 21 -153 18 -141 -3 -153 -2 -178
18 -23 19 -27 29 -27 75 0 30 11 100 25 157 26 108 32 183 15 193 -16 10 -52
-37 -109 -145 l-54 -103 -29 34 c-154 184 -188 423 -129 917 11 86 22 186 26
222 10 110 -11 128 -68 58 -112 -139 -247 -454 -321 -743 -75 -299 -74 -466 5
-632 29 -61 68 -97 86 -79 4 4 7 72 8 151 0 122 3 147 17 161 38 38 45 19 243
-576 191 -575 272 -780 309 -780 33 0 31 48 -9 325 -62 421 -32 437 90 50 130
-414 219 -618 314 -717 81 -86 106 -26 81 191 -5 47 -8 86 -6 88 1 2 30 -32
63 -74 118 -152 446 -523 462 -523 16 0 390 423 482 546 23 30 43 53 45 51 2
-2 0 -37 -6 -78 -5 -41 -10 -107 -10 -147 0 -122 29 -143 97 -69 81 88 168
278 286 623 74 217 111 309 128 320 16 9 10 -130 -12 -276 -27 -187 -30 -293
-8 -298 37 -7 121 195 294 708 160 474 226 633 255 615 6 -4 10 -64 10 -136 0
-130 8 -169 35 -169 19 0 59 70 92 161 25 69 27 86 27 239 0 124 -4 186 -18
250 -26 119 -78 290 -120 388 -59 141 -203 384 -269 455 -25 26 -47 35 -47 20z
m-1059 -1913 c37 -11 94 -38 126 -60 88 -59 193 -198 193 -256 0 -62 -152
-158 -300 -191 -106 -24 -357 -23 -469 0 -200 43 -291 108 -277 198 25 158
190 288 418 329 79 14 233 4 309 -20z"/>
<path d="M1955 4841 c-24 -11 -52 -41 -56 -61 -11 -56 47 -110 259 -240 126
-77 203 -109 259 -110 37 0 43 3 49 24 21 85 -136 279 -291 358 -46 24 -76 32
-130 35 -38 1 -79 -1 -90 -6z"/>
<path d="M3540 4816 c-66 -17 -112 -49 -176 -119 -104 -115 -159 -251 -109
-271 58 -22 410 174 513 287 34 37 27 77 -18 99 -41 21 -142 23 -210 4z"/>
</g>
</svg>
