<svg xmlns="http://www.w3.org/2000/svg" viewBox="0 0 759.07 759.05">
  <title>white</title>
  <path d="M634.35,221.29a4.57,4.57,0,0,0,3.55-.63v-.05c2.52-1.6,3-4.57,1.26-7.42-1.73-2.65-4.63-3.39-7.12-1.86l0,0a4.63,4.63,0,0,0-2.11,2.88,5.36,5.36,0,0,0-.1,1,6.17,6.17,0,0,0,1.08,3.32A5.52,5.52,0,0,0,634.35,221.29Zm-30.17-28.91-.12.05a3.29,3.29,0,0,0-1.22,2.3,6.35,6.35,0,0,0,1.71,4.58,6.48,6.48,0,0,0,4,2.72,3.44,3.44,0,0,0,2.59-.69l.06-.07h0a3.22,3.22,0,0,0,1.27-2.32c0-.18,0-.33,0-.48a6.79,6.79,0,0,0-1.63-4.13,6.63,6.63,0,0,0-4.2-2.63A3.21,3.21,0,0,0,604.17,192.38Zm13.64,1.13a3.53,3.53,0,0,0,2.66-.69l.07,0c1.66-1.36,1.61-4-.08-6.11a5.43,5.43,0,0,0-3.45-2.15,3,3,0,0,0-2.32.65s-.05,0-.05,0l0,0a3.5,3.5,0,0,0-1.41,2.37c0,.14,0,.31,0,.47a5.31,5.31,0,0,0,1.3,3.34A5,5,0,0,0,617.82,193.5ZM346.89,676.16c.81.09,8.06.77,8.88.82-.26-.74-3.11-9.52-3.51-10.67C351.69,667.38,347.29,675.46,346.89,676.16Zm-124.4-42c.11-.82,1.44-10,1.63-11.18l-9.24,6.4C215.54,629.85,221.79,633.76,222.49,634.19Zm166-466.53a4.08,4.08,0,0,0,2.35.68,7.07,7.07,0,0,0,5.76-2.14,12,12,0,0,0,2.53-6.67,5.47,5.47,0,0,0-.12-1.74,4.12,4.12,0,0,0-3.48-2.77,8.47,8.47,0,0,0-6.4,2.48,9.28,9.28,0,0,0-2.52,5.67v.43A4.61,4.61,0,0,0,388.54,167.66Zm49.7,504.39c.79-.16,7.9-1.61,8.68-1.8-.45-.66-5.83-8.23-6.52-9.23C440.17,662.22,438.4,671.27,438.24,672.05Zm-79.88-89.66V349.7h-126c8.84,73.49,36.1,141.73,119.4,225.95C353.9,577.94,356.16,580.06,358.35,582.39ZM164.85,385.93c.27,5.14,4.47,7.22,8.5,7,1.25-.08,4.23-.6,4.12-3.75-.22-3.48-1.66-6.67-10.83-6.24a3.61,3.61,0,0,0-1.28.52,2.07,2.07,0,0,0-.54,1.66c0,.17,0,.33,0,.47Zm83,149.77a8.36,8.36,0,0,0-4.87,2.89,5.34,5.34,0,0,0-1.21,3,3.09,3.09,0,0,0,.27,1.28,3.7,3.7,0,0,0,1.34,1.75,6.18,6.18,0,0,0,5.33,1.44,10.44,10.44,0,0,0,5.55-3.67,3.11,3.11,0,0,0,.79-1.31,3.6,3.6,0,0,0-1.12-3.86A7.77,7.77,0,0,0,247.83,535.7ZM177.72,422.52c3.12-.72,3.44-1.7,3.47-1.84a1.25,1.25,0,0,0,.07-.44,11.88,11.88,0,0,0-.31-2.14,5,5,0,0,0-2.81-3.35,10.69,10.69,0,0,0-6.5-.69,4.89,4.89,0,0,0-3.2,1.85,3.45,3.45,0,0,0-.33,2.64,4.53,4.53,0,0,0,2.11,2.87A10.32,10.32,0,0,0,177.72,422.52ZM358.35,216H228.46c0,7.26-.05,19.09-.05,19.09-.07,7.94-.07,15.67-.07,23.23,0,16.33.15,32,.78,47.35H358.35Zm-90,43.71-8.58-4.56-8.63,4.56,1.73-9.61-7-6.78,9.54-1.37,4.31-8.72,4.32,8.72,9.58,1.37-6.93,6.78Zm32.57,26.46-8.57-4.49-8.57,4.49,1.68-9.49-7-6.79,9.63-1.42,4.28-8.74,4.31,8.74,9.6,1.42-6.92,6.79Zm32.62-26.46-8.66-4.56-8.52,4.56,1.62-9.61-7-6.78,9.64-1.37,4.23-8.72,4.33,8.72,9.64,1.37-7,6.78Zm197.14-1.39V235.13s-.08-11.83-.08-19.09H400.69v89.67H529.95C530.53,290.4,530.68,274.7,530.68,258.36Zm-88.92,1.39-8.65-4.56-8.62,4.56,1.63-9.61-6.92-6.78,9.67-1.37,4.23-8.72,4.29,8.72,9.62,1.37-6.91,6.78Zm32.57,26.46-8.67-4.49-8.57,4.49,1.61-9.49-6.88-6.79,9.55-1.42,4.29-8.74,4.34,8.74,9.54,1.42-6.89,6.79Zm32.5-26.46-8.6-4.56-8.54,4.56,1.62-9.61-7-6.78,9.58-1.37,4.3-8.72L502.6,242l9.54,1.37-7,6.78Zm85.36,95.91h0a2.76,2.76,0,0,0,1.28-.62c.63-.51.53-1.58.45-2.3l0-.12a7,7,0,0,0-2.49-5A8.47,8.47,0,0,0,585.1,346c-1.26.1-4.15.67-3.91,3.87a5.86,5.86,0,0,0,1.87,4.3C584.79,355.57,587.76,356.06,592.19,355.67ZM364.67,169.45c3.77-.27,6.12-5.35,5.81-9.78-.13-3.49-1.2-4-1.32-4h-.08a7.1,7.1,0,0,0-2.71-.3,5.32,5.32,0,0,0-4.16,2.57l0,0a11.11,11.11,0,0,0-1.83,6.84C360.49,168,361.94,169.48,364.67,169.45ZM545.43,506c1.25.87,3.06,1.73,4.82.79a4,4,0,0,0,1.81-1.63,7,7,0,0,0,1.22-6,12.38,12.38,0,0,0-4.22-5.73,10.13,10.13,0,0,0-1.64-.83,4,4,0,0,0-4.22,1.64,7.77,7.77,0,0,0-1.49,4.62,8.57,8.57,0,0,0,.2,2A9.55,9.55,0,0,0,545.43,506ZM526.7,349.7h-126V582.35c2.19-2.29,4.43-4.41,6.62-6.7C490.62,491.43,517.92,423.2,526.7,349.7ZM232.26,503.92a9.69,9.69,0,0,0-2.24-6.28,9.14,9.14,0,0,0-5.73-3c-3.21-.23-6.57,1-9.88,3.6a14.9,14.9,0,0,0-5.47,9.67,10.14,10.14,0,0,0,2.19,7.6,7.85,7.85,0,0,0,5,2.94c1.82.26,5.6.1,10.69-4a14.56,14.56,0,0,0,5.34-9.46C232.24,504.67,232.26,504.29,232.26,503.92Zm-3.2,5.13a2.43,2.43,0,0,1-1.43,1.35,24.69,24.69,0,0,0-5.59,2.23c-1.44.82-2.14.39-2.42,0a2.07,2.07,0,0,1,.08-1.91l0,0,0-.1c.8-1.13.8-1.15.28-1.76l-2.41-2.75a2.63,2.63,0,0,0-2.26-1.21l-.55-.08a2.67,2.67,0,0,1-1.78-.62s0,0,0,0l-.1-.13s.07.05.07.09a1.08,1.08,0,0,1-.33-.73,1.28,1.28,0,0,1,0-.2,1.63,1.63,0,0,1,1-1.08,31.59,31.59,0,0,0,5.91-2.52c.37-.18,1.59-.76,2.35,0a1.21,1.21,0,0,1,.26.76,2,2,0,0,1-.49,1.16,2.89,2.89,0,0,0-.53,1.26,1.46,1.46,0,0,0,.49.94s1.94,2.29,2,2.33.06,0,.06,0c1.13,1.14,1.42,1.44,3.17,1.44a2.56,2.56,0,0,1,1.95.71.82.82,0,0,1,.2.51A.65.65,0,0,1,229.07,509ZM189.42,145.5a1.25,1.25,0,0,0,0-.31,4.27,4.27,0,0,0-1-2.63h-.05l-.09-.1c-2.3-2.77-5.17-1.41-7.17.23l-5.28,4.58,5.84,6.81c.41-.37,5.36-4.57,5.36-4.57A6.16,6.16,0,0,0,189.42,145.5ZM376.49,89.65c5.37-.06,9.35-4.3,9.32-9.83v-.11c-.08-5.62-4.19-9.84-9.6-9.81a9.13,9.13,0,0,0-6.48,2.71,9.86,9.86,0,0,0-2.68,7.21C367.12,85.45,371.16,89.69,376.49,89.65ZM379.56,637c143,0,259.3-116.35,259.3-259.31S522.52,118.4,379.56,118.4s-259.3,116.31-259.3,259.3S236.55,637,379.56,637ZM214.75,521.87a18.36,18.36,0,0,1-6.91-5.21,16.73,16.73,0,0,1-3.7-12.37,15.83,15.83,0,0,1,5.78-10.67,16.1,16.1,0,0,1,11.46-3.5,17.83,17.83,0,0,1,11.7,6.14,17.12,17.12,0,0,1,4,10.76,13.32,13.32,0,0,1-.12,1.69A15.69,15.69,0,0,1,231,519.37,16.59,16.59,0,0,1,214.75,521.87Zm15.1,10.91a12.22,12.22,0,0,0,6,3.07,1.06,1.06,0,0,1,.93.69,1,1,0,0,1-.22,1.08,6,6,0,0,1-2.66,1.34,10.34,10.34,0,0,1-7.79-3,6,6,0,0,1-1.8-4.29,5.31,5.31,0,0,1,1.29-3.71,8.12,8.12,0,0,1,5.53-2,6.63,6.63,0,0,1-.25-1.67,4,4,0,0,1,.84-2.74,7.18,7.18,0,0,1,6.38-1.94,12.75,12.75,0,0,1,6,3,4.16,4.16,0,0,1,1.56,2.89v.08a1.6,1.6,0,0,1-.39,1.12h0a3.22,3.22,0,0,1-1.91.71,1.79,1.79,0,0,1-1.28-.39c-2.94-2.73-6.27-3.63-7.72-2.17a1.19,1.19,0,0,0-.28.76,1.36,1.36,0,0,0,.13.52,4,4,0,0,1,.5.23l1.24.48a13.08,13.08,0,0,1,3.75,1.89,2.92,2.92,0,0,1,.67,1.82,1.62,1.62,0,0,1-.39,1.14,3.77,3.77,0,0,1-2.58,1.2,2.72,2.72,0,0,1-2-.71l-1.93-1.61-.64-.45c-2.16-1-3.83-.73-4.31-.23a.73.73,0,0,0-.15.42A4.31,4.31,0,0,0,229.86,532.78Zm17.84,18.42a10.36,10.36,0,0,1-7.05-2.07c-.55-.43-2.3-2-2.53-6a12.2,12.2,0,0,1,2.62-7.75,12.69,12.69,0,0,1,7.09-4.42,9.54,9.54,0,0,1,7.76,1.65,7.69,7.69,0,0,1,2.78,4.45,9.49,9.49,0,0,1,.29,2.28,12,12,0,0,1-2.84,7.53A12.14,12.14,0,0,1,247.69,551.2ZM276.42,556c-3,4.52-6.36,7.08-10.49,8.05a9.22,9.22,0,0,1-6.52-.74,8.81,8.81,0,0,1-3.75-7.2,7.34,7.34,0,0,1,1.3-2.35l2.32-2.79c1.45-1.71,3.27-3.84,3.56-4.35a2.25,2.25,0,0,0,.52-1.65,2,2,0,0,0-1-1.16l-1.2-.79-.26-.18.25.09a.79.79,0,0,1-.64-.47,1.71,1.71,0,0,1,.44-1.54c1.17-1.45,5.27-1.86,7.5-.42a4,4,0,0,1,1.32,4.33,9.74,9.74,0,0,1-1.63,2.25,61.43,61.43,0,0,0-7,7.8,3.24,3.24,0,0,0-.48,1.46,3.91,3.91,0,0,0,1.42,2.17c2.41,1.56,6.77,1,11.13-5.76a29.84,29.84,0,0,0,2.14-6.16v.12a.7.7,0,0,1,.5-.67,2.09,2.09,0,0,1,1.84.41l-.13-.13.16.15a0,0,0,0,0,0,0,3,3,0,0,1,1.06,2.58v.18A13.75,13.75,0,0,1,276.42,556ZM283,540.24a0,0,0,0,0,0,0l0,0a2,2,0,0,1-1.4,1.14,1,1,0,0,1-.9-.26s0,.08.1.11l-.17-.13s.06,0,.07,0a1.42,1.42,0,0,1-.76-1.32,2.07,2.07,0,0,1,.21-.89,9.76,9.76,0,0,0,.16-1.36,2.51,2.51,0,0,0-1.5-2.28c-1.15-.76-2.41-.65-3.94.39a2.73,2.73,0,0,1-2,.44l-.11-.05-.07-.07c-.29-.28-.87-1,.1-2.31,2.47-3.08,6-3.89,8.86-2a5.32,5.32,0,0,1,2.64,4.58A8,8,0,0,1,283,540.24Zm247.24-1.59-3.52,3.11c-2.41,2.35-4,4.1-4.78,5.07,0,0-.56.6-.59.64-.9.73-2.11,1.18-2.76.49s-.23-2.07.24-2.57l-.06.08c1.73-2.94,1.51-3.23-.26-5.23-1.2-1.41-4.47-5-5.94-6.45a19.34,19.34,0,0,0-3.2-3c-5.5-4.06-9.65-4.45-13.05-1.19a11.75,11.75,0,0,0-2.38,4s-.41.95-.43,1a1.24,1.24,0,0,1-.92.69,1.09,1.09,0,0,1-.91-.32c-.75-.77-.59-2.28-.52-2.86a12.67,12.67,0,0,1,3.7-7.37c3.38-3.28,8.65-3.53,13.52-.76a18.21,18.21,0,0,1-1.2-6,11.29,11.29,0,0,1,3.3-8.26,8.89,8.89,0,0,1,6.18-2.46,2.46,2.46,0,0,1,2.07.87s0,0,0-.06l.12.08s0,0-.07,0a.65.65,0,0,1,.25.61,1,1,0,0,1,0,.25,1.69,1.69,0,0,1-1,1.33,7.94,7.94,0,0,0-4.13,2.35,7.7,7.7,0,0,0-2.26,5.74,15.77,15.77,0,0,0,2.55,8.05,17.81,17.81,0,0,0,2.37,2.89l.55.62,2.17,2.23,4.22,4.27c1.56,1.53,2.46,1,4.19.08l.43-.24a2.08,2.08,0,0,1,2.49-.11,1.63,1.63,0,0,1,.37,1A2.16,2.16,0,0,1,530.29,538.65Zm-7.55-36c.82.63,1.55.14,2.1-.56.26-.27,1.6-1,2.45-.39,1.24,1,.63,2.71.1,3.35a4.29,4.29,0,0,1-5.93.41c-2.9-2.26-1.61-6.12-1-6.92.53-.6,1-.79,1.31-.6a1.5,1.5,0,0,1,.43,1.39C522,500.46,521.92,501.95,522.74,502.62Zm3.5-10.66a2,2,0,0,1-.81-1.4,4.06,4.06,0,0,1,.44-2.85,2.39,2.39,0,0,1,1.88-.74h0c1.71.27,6.29,1.34,7.95,1.74a2.25,2.25,0,0,1,1.32,1.37,1.18,1.18,0,0,1-.13,1.07,2.41,2.41,0,0,1-2,.88,46.54,46.54,0,0,1-6.75.41c-.83.05-1.92-.21-2.17-.71Zm20.91,28.32h0v0a3.38,3.38,0,0,1-3.32,1.4,9.4,9.4,0,0,1-3.77-2.07c-1.81-1.5-10.57-8.66-11.51-9.52a1.82,1.82,0,0,1-.59-1.28v-.17l.13-.15a18.65,18.65,0,0,1,2.46-2.65c.15-.19.85-.63,2.18.58,1.09.87,3.09,2.89,5,4.84s3.83,3.9,4.79,4.67c.35.33.61.47.79.43s.63-.3,1.1-.88a3.94,3.94,0,0,0,.68-1.21l0-.06.23-.38h.38a2.5,2.5,0,0,1,1.57,1,5.77,5.77,0,0,1,.63,2.61,4.82,4.82,0,0,1-.78,2.85ZM577.35,492a3.48,3.48,0,0,1-1.87,1.3l0,0h-.08c-.4.05-1.67.16-2.24-.5l0,0-.06-.13a1.77,1.77,0,0,1-.26-1.67c.71-2.85.13-5.69-.39-6s-.78-.08-.88.13l-.74,1.49-1.62,3.07a6.48,6.48,0,0,1-3,2.39,9.76,9.76,0,0,1-7.68-1.46,13.15,13.15,0,0,1-6.45-9.28c-.42-3.27-.17-5.45,1-7.45.89-1.52,2.5-2.21,3.77-1.56h.08l0,0A4.6,4.6,0,0,1,558,474a1.49,1.49,0,0,1,.07.39,2.73,2.73,0,0,1-.17.79,12.94,12.94,0,0,0-1.44,5.82c0,2.64.95,5.1,3.16,6.34a4,4,0,0,0,3,.74,4.44,4.44,0,0,0,2.46-2.28l.92-1.73,1.14-2.09a3,3,0,0,1,2.4-1.27,6.77,6.77,0,0,1,3.44,1C576.6,483.8,578.92,489.12,577.35,492Zm17.25-67.53h0c-.69,2.79-3.71,3.54-5.16,3.84a8.63,8.63,0,0,1,2.74,5.74,5.62,5.62,0,0,1-.08.92,5.7,5.7,0,0,1-2.77,3.28,11.75,11.75,0,0,1-8.84,1.3,13.86,13.86,0,0,1-8.36-5c-1.1-1.28-1.95-3.56-1.67-4.43a4,4,0,0,1,2.86-2.35,3.21,3.21,0,0,1,1.76,1.2l0,0,0,.11c.7,2,3.23,6.05,7.51,7,3.53.83,4.43-1.36,4.58-2,.45-1.8-1.16-4.23-2.57-4.55l-2.21-.29-1.15-.14a2.52,2.52,0,0,1-1.73-1.22,4,4,0,0,1-.38-2.9,3.06,3.06,0,0,1,3.45-2.07,11.08,11.08,0,0,1,3.08,1.77,2.92,2.92,0,0,0,1.18.69,2.58,2.58,0,0,0,2.89-1.6c.38-1.83-1-4.38-6.16-5.62a13.44,13.44,0,0,0-8.38,1.11,1.56,1.56,0,0,1-1.25,0,1,1,0,0,1-.53-.74,1.48,1.48,0,0,0,.07.21l-.09-.23a0,0,0,0,0,0,0,3.37,3.37,0,0,1-.06-1.52c.55-2.24,6.15-4.62,11.73-3.27,7.91,1.87,9.58,6.74,9.58,9.48A6.55,6.55,0,0,1,594.6,424.42Zm2.62-20.79c-1,.78-2.69,1-4.9.74-2-.19-6.07-1.45-10-2.65L581,401.3a24.35,24.35,0,0,0-.47,3,1.67,1.67,0,0,0,0,.36,4.66,4.66,0,0,0,1.76,3.65,2,2,0,0,1,.85,1.38c0,.07,0,.12,0,.19s0,0,0-.07l0,.16v-.09a1,1,0,0,1-.39.75,1.82,1.82,0,0,1-1.4.24,6.64,6.64,0,0,1-4-2.66,9.12,9.12,0,0,1-1.4-5.27l.89-5.65s.8-5.18.81-5.22a5,5,0,0,0-.47-2.26l.13.16a.68.68,0,0,1-.19-.83,1.45,1.45,0,0,1,1.41-.69h.07l.07,0a11.47,11.47,0,0,1,3.19,2s0-.05,0-.05l.12.13-.08-.08a3.59,3.59,0,0,1,.64,2.23.52.52,0,0,1,0,.19c-.07.74-.34,2.37-.59,3.68,0,0-.19,1.33-.26,1.57a.14.14,0,0,1,.07,0,49.05,49.05,0,0,0,9.26,2,1.74,1.74,0,0,0,1-.43,1.81,1.81,0,0,0,.79-1.25,6,6,0,0,0,0-1.95.69.69,0,0,1,.24-.7,2,2,0,0,1,1.75-.4,6.31,6.31,0,0,1,3.66,6.17A2.81,2.81,0,0,1,597.21,403.63ZM578.59,346a11.85,11.85,0,0,1,8-4,11.38,11.38,0,0,1,8.45,2.42h0a9.58,9.58,0,0,1,3.29,6.38,5,5,0,0,1,.05.62A6.24,6.24,0,0,1,597,355c3.2-.43,6.11-1,7.91-1.36l1.55-.3a9.08,9.08,0,0,0,2.63-.71.77.77,0,0,1,.8,0s1,.61,1,1.21v-.11a8.7,8.7,0,0,1,0,3c-.33,1.11-2.08,1.59-2.74,1.7-.13,0-12.88.82-18.72,1.4-4.84.44-8.21-.42-10.6-2.78A9.27,9.27,0,0,1,576.6,352,8,8,0,0,1,578.59,346Zm-1.25,32,0,0,0,0a6.55,6.55,0,0,1,4.31-.54l2.81.31a27.23,27.23,0,0,1-7.22-5.09,6.23,6.23,0,0,1-1.61-3.95h0c.12-1.92,1.53-3.44,4-4.18a24,24,0,0,1,4.06-.15h1c20.77.25,25.67.21,26.15.15l.71.26a2.22,2.22,0,0,1,.68,1.45c0,1.2-1.15,4.12-2.38,4.45a.19.19,0,0,0,.15-.08l-.15.1v0c-.36.19-1.08.32-3,0-1.77-.3-21.13-2.49-23.15-2.53-1,0-2.59.18-2.59,1.35,0,.19,0,2,3,3.68,3.3,1.92,6.63,3.24,14.7,5.73l0,0,.9.66v.3a5.11,5.11,0,0,1-1.38,2.93l.17-.14a1.74,1.74,0,0,1-1.13.58h-.08l-.07,0c-.74-.15-6.65-1.33-8.93-1.63-5.28-.69-6.31-.08-6.35,0a1.87,1.87,0,0,0-.79,1.51l.13,1,.09.8-.06.17c-.25.51-.64,1-1.16.94a4.3,4.3,0,0,1-2.17-.58,4.86,4.86,0,0,1-2.64-4.35,3.86,3.86,0,0,1,1.88-3.08Zm-11.19-10.69h.05c1.07,0,7.05,5.18,7.15,5.26.2.24,1.15,1.34,1.15,2a1.33,1.33,0,0,1-.58.92,2.17,2.17,0,0,1-2,0l.05,0-.08,0s0,0,0,0a72.5,72.5,0,0,1-6.59-3.06c-1.25-.79-1.82-1.43-1.82-2.06A3.69,3.69,0,0,1,566.15,367.35Zm-13.21,85.75,4.27-10.88c1-2.5,1.11-3.78,1-5a1.1,1.1,0,0,1,.74-1,1.16,1.16,0,0,1,1.28.05,26.78,26.78,0,0,0,5,2.93c.8.35,1.75,1.42,1.38,2.41-.38.79-1.43.79-2.16.79l-1.2-.1c-2-.16-2.23-.22-3.23,1.54-.56,1.22-2.63,6.79-3.61,9.56,2.52-.84,9.51-3.9,12.65-5.42l.07,0,.11,0c.93-.16,1.58,0,1.77.61,1.51,4,4.58,10.84,5.86,13.53.9-1,2-3.91,3.95-8.73l.3-.86a10.58,10.58,0,0,0,1-3.61,5.57,5.57,0,0,0-1.5-3.47,3.54,3.54,0,0,1-.79-1.89,1.16,1.16,0,0,1,.08-.49,1,1,0,0,1,.76-.6,2.77,2.77,0,0,1,2.09.64L584.8,445l.67.67a14.79,14.79,0,0,1,1.75,1.89l-.07-.08a1.93,1.93,0,0,1,.52,1.45,2.42,2.42,0,0,1-.15.78c-.9,2-3.54,8.46-5.3,13l-1.19,3-.81,2.38s-.77,2.38-.82,2.44a1.22,1.22,0,0,1-.78.8,1.17,1.17,0,0,1-1-.16h-.07l-.87-1.18-.49-.77-.12-.14,0-.09c-1.45-4.3-5.6-13.69-6.4-15.34-1.91.71-12.65,5.13-16.29,6.65a3.33,3.33,0,0,1-2,.2,1.37,1.37,0,0,1-1-.56,5.84,5.84,0,0,1-.06-.88Zm.61,38.37a13.31,13.31,0,0,1,5.3,8.44,11.44,11.44,0,0,1-1.77,7.84c-.85,1.25-2.94,2.71-6.36,3.08a13,13,0,0,1-8.57-2.31,13.94,13.94,0,0,1-5.3-7.37,9.7,9.7,0,0,1-.36-2.63,11,11,0,0,1,1.66-5.82,7.85,7.85,0,0,1,4.71-3.31A12.1,12.1,0,0,1,553.55,491.48Zm-122-321.75a14.34,14.34,0,0,1,8-9.29c3.27-1.33,5.63-1.63,8.09-1a3.72,3.72,0,0,1,2.33,1.67,2.55,2.55,0,0,1,.28,1.09,2.23,2.23,0,0,1-.12.64h0l0,.12a.27.27,0,0,0,0-.1,3.86,3.86,0,0,1-1.37,1.93v0l-.11.11a.4.4,0,0,1,.11-.09,1.43,1.43,0,0,1-1.27.19c-4.94-1.15-11.09.56-12.4,5.2a4.34,4.34,0,0,0,.08,3.47,4.7,4.7,0,0,0,3,1.87l4.56,1.19a3.32,3.32,0,0,1,2.12,2.05,7.48,7.48,0,0,1-.18,3.94c-1.26,4.52-6.17,8.26-9.49,7.32a3.72,3.72,0,0,1-2-1.63l0,0,0-.06a3.16,3.16,0,0,1-.08-2.37l0-.12.15-.15a1.78,1.78,0,0,1,1.58-.63c3.09,0,6.08-1.37,6.37-2.13v-.25c0-.45-.13-.59-.48-.7l-1.91-.39-3.48-.8a6.17,6.17,0,0,1-3.3-2.52,9.22,9.22,0,0,1-1.13-4.67A13.61,13.61,0,0,1,431.52,169.73Zm-16.1-23.84c1.21-4.66,4.66-5.82,7.31-5.42s5.27,2.68,4.67,7.32h0a2.33,2.33,0,0,1-.88,1.73,1.1,1.1,0,0,1-.83.13h0a1.8,1.8,0,0,1-1.42-1.92c-.39-1.8-1-2.49-2.63-2.77a3.4,3.4,0,0,0-3.55,1.86c-.63.87-1.17,1.23-1.7,1.14h0a1.18,1.18,0,0,1-.94-.51,1.49,1.49,0,0,1-.22-.77A2.35,2.35,0,0,1,415.42,145.88Zm-7.71,9.49c.55-1.71,4.07-3.71,6.76-3.34,1.59.22,2.62,1.89,2.9,3.48a6.11,6.11,0,0,1-.69,2.71l0-.09a58,58,0,0,0-3.23,10.11l-.05,0v.06a1.15,1.15,0,0,0-.08.47,3.66,3.66,0,0,0,.18.92,3.94,3.94,0,0,0,2.23,1.37,4.8,4.8,0,0,0,3.51-.87c1.44-1.05,3.4-3.42,4.36-8.9a21.84,21.84,0,0,0-.42-6.42.74.74,0,0,1,.12-.61c.39-.51,1.52-.54,1.83-.54,1.1.15,1.66,1.09,2.09,2a10.55,10.55,0,0,1,.84,4.45,19.21,19.21,0,0,1-.24,2.91c-1.16,6.87-4.17,9.88-6.37,11.57a9.64,9.64,0,0,1-6.39,1.86,8.45,8.45,0,0,1-6.08-5s0,0,0,0l-.08-.18c0,.07,0,.12,0,.15-.39-.7.07-2.61.1-2.81l.34-1.05c.73-2.44,2.08-7,2.28-7.73a2.5,2.5,0,0,0-.23-1.79,1.91,1.91,0,0,0-1.29-.63l-1.65-.29a1,1,0,0,1-.73-.36A1.84,1.84,0,0,1,407.71,155.37Zm-21.47-1.95a10.75,10.75,0,0,1,8-3.48,8.5,8.5,0,0,1,5.17,2.23,12.27,12.27,0,0,1,3.94,9.42c0,.26,0,.56,0,.82a13.28,13.28,0,0,1-4.42,8.95,10.91,10.91,0,0,1-7.58,2.61c-1.49-.07-3.82-1.09-5.95-3.73a12.91,12.91,0,0,1-2.49-8.52A12.66,12.66,0,0,1,386.25,153.42Zm-26-.62a11.15,11.15,0,0,1,4.89-2.39c1.2-.08,7.57-.28,10.37-.28,2.42-.05,3.07-.45,4.06-1.15l.09-.09h.13a.83.83,0,0,1,.75.23,1.4,1.4,0,0,1,.59,1h0a.52.52,0,0,1,0,.13,16.34,16.34,0,0,1-.84,4l0,0a2.75,2.75,0,0,1-2.18,1.11h-5.33c.65,1,2.41,3.94,2.52,5.72,0,.31,0,.66,0,1,0,2.74-.62,6.08-2.42,8.25a10.72,10.72,0,0,1-6.8,3.84,9.27,9.27,0,0,1-6.31-2.46,11,11,0,0,1-3.56-7.9A13.91,13.91,0,0,1,360.21,152.8Zm-31.51,4.32a4.73,4.73,0,0,1,3.77-3.32,3.68,3.68,0,0,1,3.46,1.26v0l0,0h0a7.1,7.1,0,0,1,1.41,4.1c0,.56.08,1.79.11,2.87a28.38,28.38,0,0,1,3.6-8.22,6.65,6.65,0,0,1,3.64-2.12c1.94-.38,3.75.79,4.76,3a17.22,17.22,0,0,1,1,3.7s0,.25,0,.27c.77,4.43,4.71,25.95,4.91,26.7l-.07.76a2.25,2.25,0,0,1-1.25,1c-1.18.23-4.32-.33-4.93-1.56a9,9,0,0,1-.43-2.86c-.05-1.6-1.52-21.11-1.89-23.24-.32-1.67-.94-2.45-1.72-2.34-1.75.48-2.69,2.26-3.15,3.69-1.27,3.5-1.89,6.81-2.87,15.55l-.39.81-.11.23-.33,0a7.28,7.28,0,0,1-2.89-.59l-.09,0-.06-.06c-.64-.72-.64-1-.64-1.1,0-2.08,0-7.06-.12-9.12-.32-5-1-6-1.16-6.23a1.83,1.83,0,0,0-1.63-.46,4.45,4.45,0,0,0-1.45.53l-.16.05h-.12a1.6,1.6,0,0,1-1.34-1.1A4.29,4.29,0,0,1,328.7,157.12Zm-21.42-6.05a3.44,3.44,0,0,1,1.81-1.36l1.06-.24c1.05-.23,2.47-.49,4-1,1.86-.49,3.08-.9,4-1.23l1.71-.53a2,2,0,0,1,1.61.14,1.27,1.27,0,0,1,.64.85c.18.77-.55,1.52-1.07,1.82-2.56,1.49-2.48,1.79-1.95,4.17l1.46,5.44s1.5,5.63,1.5,5.6l1.66,5.9.85,3.08c.65,2,1.1,2.21,4.27,2.17,1.56,0,2,.55,2.13,1.09v0l0,.21c0-.08,0-.13,0-.19l0,.89a3.38,3.38,0,0,1-1.67,1.27h-.08l-4.19,1-1.76.39-3.5,1.2-2,.72c-.94.23-2.09,0-2.28-.74s.38-1.71,1.14-2.21c2.44-1.71,2.39-2,2.31-2.7-.15-1.08-1.92-8.54-3.16-12.73l-1.9-6.92c-1.13-4.17-1.39-4.27-4.44-4.17a2,2,0,0,1-2.13-1.21Zm-9.34,2a3.53,3.53,0,0,1,2-1.6,4.25,4.25,0,0,1,3.32.47,5,5,0,0,1,2.4,3.19,5.14,5.14,0,0,1,.2,1.38,5.27,5.27,0,0,1-.7,2.61,6.77,6.77,0,0,1-3.45,3,2,2,0,0,1-1.55-.18s-.36-.55-.36-.59v.07a.26.26,0,0,0,0,.11l0-.06v-.05a.57.57,0,0,0,0-.1l0,0a1.15,1.15,0,0,1-.1-.43,2.21,2.21,0,0,1,.74-1.49l.14-.15c.59-.62,1.34-1.41,1.34-2.11a.54.54,0,0,0,0-.23c-.17-.64-1.22-.43-1.36-.4h-.13c-1.46,0-2.43-.59-2.64-1.59A2.48,2.48,0,0,1,297.93,153Zm-81.45,49.49h326.1c0,146.32,9.55,243-129.49,383.6q-15.5,15.73-33.53,32.3c-12.1-11.08-23.26-21.82-33.67-32.3C206.89,445.56,216.48,348.84,216.48,202.51ZM203.56,457.32a47.23,47.23,0,0,1,2.85-6.14c.36-.76,1.08-1.58,1.64-1.58l-.29.08a2,2,0,0,1,1.64-.08,4.28,4.28,0,0,1,2.28,1.76,2.33,2.33,0,0,1-.26,2v0c-1,1.39-4.11,4.9-5.28,6.19a2.43,2.43,0,0,1-1.83.51,1.09,1.09,0,0,1-.85-.64A2.41,2.41,0,0,1,203.56,457.32ZM159.63,374l.33-3a38.25,38.25,0,0,0,.38-3.87l.08-2.44.07-1.42a2.48,2.48,0,0,1,.74-1.56,1.21,1.21,0,0,1,1-.29c.83.14,1.12.68,1.53,1.51l0,.08c.13.35.33.81.49.89a.21.21,0,0,0,.19,0l2.25-1.25c2.27-1.25,5.68-3.12,6.61-3.87l0-.05a88.12,88.12,0,0,0-7.49-6.18c-.54-.31-.54-.33-1.33.72-.7.9-1.21,1.28-1.92,1.28a1.41,1.41,0,0,1-.94-.54,1.63,1.63,0,0,1-.38-1.14v-.39l.52-4.17,0-5.09,0,0c.41-1.67,1.13-1.94,1.66-1.89.77.12,1.33,1.05,1.47,1.72.44,2.34,1,4.55,2.55,6,3.28,3.22,6,5.78,8.72,8,0,0,.12,0,.56-.12a96.09,96.09,0,0,0,9.58-5.47,7.23,7.23,0,0,0,3.5-4.81l.07-.26c.45-1.31,1.07-1.92,1.86-1.85h0l.76.33a2.31,2.31,0,0,1,.43,1.52v.2l-.3,2.36-.37,3-.23,4.51s0,.65,0,.7c-.1,1-.8,1.88-1.69,1.8s-1.18-.91-1.35-1.52l-.06-.14v0c-.06-.39-.2-.6-.28-.64a.82.82,0,0,0-.58.21l-1.89,1a51.36,51.36,0,0,0-5.81,3.35h0c2.4,2.12,4.52,3.83,6.3,5.19.7.51.94.54,1,.54s.34-.27.77-1.23c.24-.69.58-1.64,1.37-1.54h0a1.57,1.57,0,0,1,1,.61,1.85,1.85,0,0,1,.48,1,.51.51,0,0,1,0,.14l-.13,1-.28,2.77-.12,3.84s0,2.1,0,2.17a1.84,1.84,0,0,1-.6,1.38s-.65.2-.74.2.06,0,.07,0h-.07v0a2.09,2.09,0,0,1-1.67-2.1,9.45,9.45,0,0,0-3.3-6.18c-1.74-1.68-4.44-4.05-6.63-6l-.08-.08c-.12-.08-.19-.1-.43,0-1,.42-9.35,5.28-10.87,6.39a7.84,7.84,0,0,0-3.63,5.09c-.54,1.62-1.33,1.91-1.89,1.84-.39-.06-1.32-.33-1.32-2C159.61,374.23,159.63,374.12,159.63,374Zm.71,12.93a5.65,5.65,0,0,1,1.42-3.53c-3.5.29-6.76.79-8.42,1.05l-1.06.18a6.75,6.75,0,0,0-2.64.7l-.32.12-.24-.09a2.68,2.68,0,0,1-1.19-1.13l0-.1,0-.33a8.38,8.38,0,0,1,.26-2.74,3.37,3.37,0,0,1,2.68-1.5c.4,0,2.82-.1,7.11-.24l11.74-.41c5-.32,8.19.66,10.48,3.15a8.85,8.85,0,0,1,2,5.11,8.05,8.05,0,0,1-2.18,5.89,11.93,11.93,0,0,1-8.15,3.73,11.47,11.47,0,0,1-8.38-2.83h0a9.25,9.25,0,0,1-3-6.43A5,5,0,0,1,160.34,386.93Zm1.17,18.66a2.77,2.77,0,0,1-.06-.64,3,3,0,0,1,1.26-2.61,8.78,8.78,0,0,1,4.17-1.4l8.19-1.14s6.54-.89,6.48-.87a1.52,1.52,0,0,1,1.3.32.88.88,0,0,1,.37.63c.09.54.26,2.84.26,3.38,0,.91-1.12,1.18-2,1.31-1.33.12-3.91.2-6.63.31s-5.77.18-7,.35a1.62,1.62,0,0,0-.9.28,2.33,2.33,0,0,0,0,1.43,3.44,3.44,0,0,0,.41,1.3v0l.05.07a.73.73,0,0,1-.26.74,2.4,2.4,0,0,1-1.78.33s0,.08.06.08l-.11-.08h.05A5.64,5.64,0,0,1,161.51,405.59Zm2.46,15a8.6,8.6,0,0,1,1.3-6.11,10.42,10.42,0,0,1,6.66-4.42,12.71,12.71,0,0,1,10.55,2.19,9.62,9.62,0,0,1,2.92,4.17l.16.73c.37,1.93,1.25,6.43,1.54,8.62a5.58,5.58,0,0,0,1.62,3.47.71.71,0,0,1,.15.68,1.63,1.63,0,0,1-.89,1l-.05,0-.1,0a14.24,14.24,0,0,1-3.7-.31h0c-.87-.18-1.44-1.36-1.5-1.81l-.26-1.66s-.4-2.38-.48-3.08c-1,.92-3.13,2.71-4.76,3.09-3.2.67-6.55.3-8.69-1A9.29,9.29,0,0,1,164,420.55Zm7.24,27.92a2.36,2.36,0,0,1-.18-1c0-1.25.85-2.88,4.48-4.13a93.83,93.83,0,0,1,10.13-1.83s1-.16,1.43-.21c-.13-.44-.44-1.44-.44-1.44s-.46-1.43-.46-1.44a4.39,4.39,0,0,0-3.34-2.82c-.38-.15-1.23-.54-1.36-1.12a.87.87,0,0,1-.09-.36c0-.8,1-1.15,1.31-1.27a6.3,6.3,0,0,1,4.76.7A8.92,8.92,0,0,1,191,437.7l1.43,4.78s1.72,5.81,1.72,5.83a3.76,3.76,0,0,0,1.44,1.76l0,0,.08.06a.64.64,0,0,1,.2.74,1.7,1.7,0,0,1-1,1.07h-.11a17.93,17.93,0,0,1-3.76-.42,5.2,5.2,0,0,1-1.68-2l-.9-3.33s-.3-1.2-.44-1.68l-.13,0a52,52,0,0,0-9.28,2,1.61,1.61,0,0,0-.67.82,2.09,2.09,0,0,0-.24,1.56l.1.2a7.54,7.54,0,0,0,.75,1.55.67.67,0,0,1,.15.68,2,2,0,0,1-1.48,1.16A6.27,6.27,0,0,1,171.22,448.47Zm7.13,19c-.59-1.29-.72-3.65.5-6.52a12.34,12.34,0,0,1,5.92-5.72,13.21,13.21,0,0,1,8.26-.69,9.76,9.76,0,0,1,6.14,5.09,7.56,7.56,0,0,1,.45,5.2v0a11.53,11.53,0,0,1-6.71,7.49,12.16,12.16,0,0,1-9.19.22A10,10,0,0,1,178.35,467.44Zm16.68,23a7,7,0,0,1-2.61,2.47,11,11,0,0,1-7.72.8,5.22,5.22,0,0,1-3.33-2.33,2.76,2.76,0,0,1-.27-1.31,3.92,3.92,0,0,1,.12-1,2.35,2.35,0,0,1,1.68-1.75s-.06,0-.08,0l.11,0h0c.5-.13.93-.09,1.66.57,2.07,2.19,4.88,3.08,5.43,2.75a.77.77,0,0,0,.39-.43.38.38,0,0,0,0-.37l-.77-1.2-2-3.06a7,7,0,0,1-.55-3.88c.24-.83,1.24-3.76,5.24-6a13.4,13.4,0,0,1,11.25-.74c3.47,1.47,4.89,2.94,6,4.7a4.31,4.31,0,0,1,.46,1.82,2.29,2.29,0,0,1-1.17,2.07.19.19,0,0,0,.12-.08l-.17.16a.13.13,0,0,1,.05-.08,2.86,2.86,0,0,1-2,.31l.06,0-.21,0h.15a1.21,1.21,0,0,1-1.1-.8l.06.13c-2.61-4-7.6-6.86-11.45-4.69a3.91,3.91,0,0,0-2.1,2.2,4.42,4.42,0,0,0,.72,3.25c.43.74,1.64,2.81,2.2,3.71l0,0,0,.08A3.23,3.23,0,0,1,195,490.47ZM194.91,451h0l.12.08A.16.16,0,0,1,194.91,451ZM583.55,169.67l-.11.13a3.42,3.42,0,0,0-1,2.37,6.48,6.48,0,0,0,2.18,4.44c2.31,2.42,5.13,3,6.82,1.33l0,0c1.65-1.69,1.2-4.5-1.11-6.91S585.23,168.09,583.55,169.67Zm16.29-1.13,0-.1a3.17,3.17,0,0,0,1-2.28v0a5.32,5.32,0,0,0-1.71-3.66,5.47,5.47,0,0,0-3.69-1.8,3,3,0,0,0-2.24.91l-.1.11h-.05a3.51,3.51,0,0,0-1,2.5,5.38,5.38,0,0,0,1.61,3.62C595.59,169.76,598.19,170,599.84,168.54ZM241.2,113.4c2.49,5,8,7.09,12.78,4.79a9.08,9.08,0,0,0,5.25-8.3,10.72,10.72,0,0,0-1.05-4.5h0l-.1-.14c-2.44-5.07-7.89-7.11-12.71-4.8a9,9,0,0,0-4.68,5.18,8.66,8.66,0,0,0-.55,3.07,10.46,10.46,0,0,0,1.11,4.6ZM379.56,704.88c180.63,0,327.12-146.55,327.12-327.17S560.19,50.57,379.56,50.57,52.32,197,52.32,377.71,198.85,704.88,379.56,704.88ZM188.39,625.44s7.14-8.95,7.52-9.4c-.46-.38-9.75-7.78-10.21-8.12-.38.45-7.48,9.39-7.48,9.39l-4.41-3.48L192.05,591l4.37,3.56-7.4,9.24c.47.36,9.7,7.76,10.14,8.13l7.4-9.29,4.41,3.51L192.79,629Zm36.95,24.68-5-3.12s1.13-7,1.18-7.4c-.33-.18-10.79-6.73-11.11-7l-6.17,4.26-4.88-3,26.41-18.12,4.3,2.69Zm28.24,13.75s7.63-16.3,8.41-17.94c-1.49.93-13.26,8-13.26,8l-.36-.35s-2-13.22-2.26-14.94c-.78,1.62-8.35,17.83-8.35,17.83l-5-2.37,12.42-26.36,5.22,2.46s2,14.69,2.1,15.58l13.37-8.39,5.16,2.43-12.29,26.48Zm20.54,6.73c-1.53,4.27-4.25,5.68-8.62,4.42l-.25-.08.36-2.66.3,0c2.25.32,3.57-.31,4.13-1.95-.43-.14-2-.77-2-.77l2.18-5.76,5.64,2Zm52.69,15.11-5.48-1.1s3.83-17.58,4.19-19.35c-1.29,1.23-11.08,10.72-11.08,10.72l-.48-.14-5.63-14.16c-.41,1.76-4.17,19.31-4.17,19.31l-5.36-1.19,6.11-28.6,5.71,1.24s5.25,13.92,5.55,14.77L327.27,656l5.73,1.25Zm32.88,3.66s-2.19-6.83-2.33-7.19c-.37,0-12.63-1.13-13-1.15-.21.34-3.53,6.62-3.53,6.62L335,687.1,350.48,659l5,.51,10.09,30.42Zm34.39-8.17a8.13,8.13,0,0,1-2.15,5.94,11.69,11.69,0,0,1-8.2,3.07,18.36,18.36,0,0,1-12.21-4.52l-.23-.2,3.41-4.06.23.2c3,2.49,5.63,3.52,8.8,3.43,2.95,0,4.77-1.27,4.77-3.38,0-1.8-.94-2.87-6.24-4-6.35-1.47-9.79-3.27-9.87-8.76,0-5.07,4.11-8.67,10-8.79a16.74,16.74,0,0,1,10.55,3.54l.25.18-3,4.36-.28-.19a11.9,11.9,0,0,0-7.57-2.74,4.92,4.92,0,0,0-3.55,1.23,2.47,2.47,0,0,0-.74,1.92c0,2,1,2.85,6.57,4.18,6.74,1.56,9.49,4,9.49,8.47Zm19.47,7.13a18.5,18.5,0,0,1-12.6-3.31l-.25-.19,3-4.41.23.19c3.25,2.23,5.95,3,9.19,2.67,2.87-.31,4.57-1.72,4.43-3.72v-.14c-.23-1.76-1.29-2.71-6.75-3.39-6.24-.76-9.95-2.27-10.57-7.73v-.08a7.72,7.72,0,0,1,1.64-5.89,10.94,10.94,0,0,1,7.46-3.7,16,16,0,0,1,10.93,2.53l.22.15-2.59,4.53-.24-.17a13.37,13.37,0,0,0-7.91-2.06c-2.58.38-4.17,1.81-3.95,3.64s1.22,2.79,6.93,3.48c6.85.82,9.81,3,10.29,7.62v.13C423.57,683.78,419.85,687.65,413.54,688.34Zm40.82-7.49s-4-5.83-4.28-6.15l-12.88,2.74c-.07.38-1.4,7.43-1.4,7.43l-5.69,1.22,6.43-31.43,4.9-1.1,18.69,26.06ZM489,665.34c-1.67,3.39-4,6.79-9.65,8.56a14.63,14.63,0,0,1-11.26-.68,15.14,15.14,0,0,1-7.52-8.87l0,0a14.79,14.79,0,0,1,9.55-19.09,15.39,15.39,0,0,1,12.21.72l.26.13-2.07,5.14-.29-.11c-3.2-1.48-5.81-1.76-8.5-.86-4.94,1.62-7.34,6.82-5.65,12.08a.64.64,0,0,1,.06.15c1.77,5.31,6.81,8.11,11.73,6.51,3.18-1.12,4.89-3.14,6.51-6l.13-.25,4.67,2.35Zm26.64-6.67s-4.74-10.43-5-10.95c-.53.25-11.27,5.19-11.8,5.43.28.54,5,10.9,5,10.9l-5.15,2.39-12.16-26.52,5.07-2.42s4.77,10.34,5,10.83c.5-.22,11.33-5.15,11.86-5.37-.28-.52-5-10.81-5-10.81l5.11-2.35,12.2,26.54Zm25.27-13.24c-6.81,4-13.09,2.41-17.32-4.58L515,626.46l4.75-2.92,8.51,14.19c2.65,4.34,6.25,5.45,10,3.15a6.71,6.71,0,0,0,3.3-4c.44-1.79,0-3.82-1.37-6.06l-8.68-14.28,4.86-3,8.48,14.1C549.22,634.8,547.78,641.29,540.95,645.42Zm27.45-18.66A18.18,18.18,0,0,1,556,630.4l-.3,0L556,625h.33a12.58,12.58,0,0,0,9.22-2.38,5.28,5.28,0,0,0,2.33-3.31,2.53,2.53,0,0,0-.59-2.16c-1.1-1.49-2.46-1.79-7.44.48-5.92,2.58-9.79,3.13-13-1.2,0,0-.07-.13-.09-.14a7.82,7.82,0,0,1-1.63-4.79,9.07,9.07,0,0,1,.06-1.09,10.78,10.78,0,0,1,4.44-7A15.89,15.89,0,0,1,560.19,600l.25,0,.2,5.23h-.32a12.59,12.59,0,0,0-7.77,2.26,4.7,4.7,0,0,0-2.13,3.13,1.86,1.86,0,0,0,0,.31,2.47,2.47,0,0,0,.55,1.56l.09.1v.12c1.15,1.46,2.5,1.54,7.72-.65,6.24-2.79,9.89-2.43,12.6,1.17,0,0,.13.09.13.09l0,0a8.12,8.12,0,0,1,1.78,5C573.31,621.33,571.65,624.31,568.4,626.76ZM584,614.11l-20.09-21.19,15.81-15,3.54,3.71s-11.33,10.75-11.78,11.12c.35.41,4.34,4.59,4.71,5l10.41-9.87,3.53,3.71S580,601,579.68,601.42c.34.39,4.47,4.76,4.82,5.13.44-.4,11.9-11.28,11.9-11.28l3.5,3.65ZM611.33,587l-17.83-15.92c-.38.41-6,6.8-6,6.8l-3.95-3.59,15.83-17.73,4,3.49s-5.67,6.38-6.06,6.8c.43.4,17.83,16,17.83,16Zm19.52-23.51S612,549.66,611.57,549.3c-.38.46-5.45,7.35-5.45,7.35l-4.22-3.14,14.05-19.19,4.29,3.11s-5.05,6.87-5.4,7.33l19.28,14.17Zm46.66-197a13,13,0,1,1-13,13A13,13,0,0,1,677.51,366.49ZM649.6,536.08a18.12,18.12,0,0,1-10.21,8l-.3.08-1.66-5,.28-.1c3.63-1.2,6-3,7.51-5.74a6.43,6.43,0,0,0,1.07-3.24,2.84,2.84,0,0,0-.09-.84A2.67,2.67,0,0,0,645,527.6h-.08l-.05-.07c-1.61-.92-3-.68-6.73,3.22-4.42,4.61-7.9,6.7-12.61,3.87a7.83,7.83,0,0,1-3.76-5,10.62,10.62,0,0,1,1.47-8.06,16.11,16.11,0,0,1,8.6-7.19l.25-.13,2.08,4.83-.27.12a12.93,12.93,0,0,0-6.32,5c-1.3,2.26-1.14,4.38.41,5.32,0,0,.1,0,.1.06,1.53,1,2.84.69,7-3.48,4.77-4.91,8.33-6,12.28-3.67C651.93,525.2,652.82,530.54,649.6,536.08ZM628.8,206.73l.08,0a9.88,9.88,0,0,1,7.48-1.33,11.23,11.23,0,0,1,7,5.15,10.87,10.87,0,0,1,1.7,8.62c-.81,3.38-3.18,6.2-7.48,8.88l-.12,0c-4.49,2.87-9.09,3.95-12.94,3.09a11.39,11.39,0,0,1-7.14-5.2,13.75,13.75,0,0,1-2-9.75l0-.3,5.3.23,0,.34c-.36,2.93,0,4.91,1.18,6.8,1.91,3.08,5.82,3.51,10.16,1.3a8.5,8.5,0,0,1-5.52-4,11.51,11.51,0,0,1-2-6.26,8.68,8.68,0,0,1,.21-1.89A8.82,8.82,0,0,1,628.8,206.73Zm-17.35-25.91,0-.12.1-.05c3.7-2.77,9-1.49,12.71,3.06s3.51,10.2-.08,13.11a7.06,7.06,0,0,1-7.38.86,10.89,10.89,0,0,1,.29,2.46,6.61,6.61,0,0,1-2.57,5.46v.14l-.13.1c-4.07,3.1-9.6,1.68-13.79-3.5a12.78,12.78,0,0,1-3.09-9,7.57,7.57,0,0,1,2.81-5.11s.11-.08.11-.11c2.55-1.95,5.31-2.12,8.49-.54a11.35,11.35,0,0,1-.12-1.38A6.63,6.63,0,0,1,611.45,180.82Zm-21.8-23.3a.7.7,0,0,1,0-.18l.06,0a7,7,0,0,1,5.16-1.94,12.62,12.62,0,0,1,11.2,11.47v.1A7.25,7.25,0,0,1,604,172l-.13.07a6.94,6.94,0,0,1-7.19,1.64,10.31,10.31,0,0,1,.62,3.26,6.69,6.69,0,0,1-2.17,5c-3.72,3.6-9.37,2.8-14-2-2.57-2.68-4-5.73-4-8.61a7.63,7.63,0,0,1,2.27-5.35l.05,0c2.28-2.23,5-2.68,8.37-1.44a9.13,9.13,0,0,1-.29-2.19A6.42,6.42,0,0,1,589.65,157.52ZM573,141.79l2.12-4.35,7.75,3.31,2.9,2.53-19.17,22.26-4.24-3.65s14.86-17.32,15.39-17.91ZM554.61,119,552,123.31s-13.18-8.26-13.69-8.57c-.28.44-3.37,5.34-3.66,5.78.53.31,12.17,7.6,12.17,7.6l-2.74,4.28L532,124.8c-.29.46-3.51,5.5-3.79,6L542,139.51l-2.72,4.32-18.65-11.77,15.56-24.62Zm-61.21-16.7v0l0,0s.09-.15,0-.08a14.94,14.94,0,0,1,20-7.23c4.25,2,6.69,4.45,8.44,8.34l.14.28L517,106l-.14-.3a11.24,11.24,0,0,0-5.77-6c-4.5-2.07-9.9.08-12.26,4.94v.07l0,.08a11.13,11.13,0,0,0-1.11,4.73,8.78,8.78,0,0,0,.53,3,9.08,9.08,0,0,0,4.92,5.21,11.23,11.23,0,0,0,6.74,1c.11-.31,1.84-4,2.08-4.44-.51-.23-6.59-3.08-6.59-3.08l2.17-4.54L519,112.12l-5.26,11.19-.14.07a18.57,18.57,0,0,1-12.9-1.06,14.41,14.41,0,0,1-7.32-20ZM468.05,77.84l20.67,6.94L487,89.65s-14.75-4.93-15.32-5.11c-.18.49-1.95,6-2.09,6.47.55.17,13.59,4.52,13.59,4.52l-1.65,4.77S468.53,96,468,95.81c-.18.51-2,6.23-2.19,6.76.51.18,15.53,5.12,15.53,5.12l-1.68,4.9-20.82-7Zm-31.51-7.52,5.39,1.24s-5,22.85-5.08,23.46l14.72,3.16-1.13,5-20.14-4.36Zm-32.2-4.27,5.68.62L407.3,90.51c.58.08,14.92,1.64,14.92,1.64l-.59,5.14L401.18,95ZM361.15,79.9a15.08,15.08,0,0,1,4.26-10.76,15.32,15.32,0,0,1,11-4.45,15.11,15.11,0,0,1,11,25.7,15.81,15.81,0,0,1-21.77.17,14.71,14.71,0,0,1-4.42-10.62ZM339,67.19a15.09,15.09,0,0,1,11.93,3l.23.18-3,4.63-.25-.2c-2.89-2-5.41-2.74-8.22-2.34a8.47,8.47,0,0,0-5.81,3.31,10.36,10.36,0,0,0-1.91,7.6c.81,5.6,5.23,9.28,10.34,8.58,3.56-.47,5.57-2.21,7.45-4.68L350,87l4.1,3.17-.15.23a15.15,15.15,0,0,1-11,6.73A14.64,14.64,0,0,1,326.2,84.19h0A14.78,14.78,0,0,1,339,67.19ZM274.34,83S293,95.73,294.39,96.68l-5.92-18.25,5.27-1.81,9.11,27.76-4.44,1.49s-19.3-13.06-20.7-14l6.22,18.82-5.34,1.66-9.11-27.7Zm-39.18,21.37a15.23,15.23,0,0,1,8-8.66,14.82,14.82,0,0,1,20.24,6.76l0,.08v.22a14.8,14.8,0,0,1-7.18,20.14,15.29,15.29,0,0,1-11.71.79,14.81,14.81,0,0,1-8.42-7.62L236,116l-.07-.11a15.5,15.5,0,0,1-1.57-6.67A15.22,15.22,0,0,1,235.16,104.39ZM206.1,117.46c7.45-4.91,16.26-3.4,20.94,3.64a14.25,14.25,0,0,1,2.16,10.81,15.78,15.78,0,0,1-7.1,9.93l-9,6-16.12-24.31S206.07,117.46,206.1,117.46Zm-28,21c2.71-2.33,5.62-3.46,8.36-3.23a9.07,9.07,0,0,1,6,3.27l0,.08a8.7,8.7,0,0,1,2.29,5.77,10.56,10.56,0,0,1-1.58,5.27c.72.16,13.07,3.29,13.07,3.29l-5.11,4.32s-11.54-3-11.85-3.08c-.14.1-4,3.4-4.4,3.77.36.44,6.48,7.63,6.48,7.63l-4.29,3.61L168.24,147ZM148,166.81a14.88,14.88,0,0,1,21.4-1.06,15.4,15.4,0,0,1-9.85,26.53,14.39,14.39,0,0,1-10.57-4,.3.3,0,0,0-.11,0l0,0a14.74,14.74,0,0,1-4.94-10.36c0-.25,0-.46,0-.72A15.43,15.43,0,0,1,148,166.81Zm-25.16,31.48c2.69-3.89,5.45-5.91,9.6-6.92l.28-.05,1.5,5.37-.3,0a10.86,10.86,0,0,0-6.95,4.72,8.37,8.37,0,0,0-1.51,4.79,10,10,0,0,0,4.42,8.08h.1l.08.06a10.08,10.08,0,0,0,7.52,1.89,9.12,9.12,0,0,0,5.93-4,10.8,10.8,0,0,0,2.12-6.09,1.23,1.23,0,0,0,0-.44c-.21-.16-3.55-2.51-4-2.83l-4.18,6-4.12-2.87,7.27-10.44,10.26,7,0,.15a19.22,19.22,0,0,1-3.17,12.59,14.66,14.66,0,0,1-21,3.9l-.11,0s0-.13,0-.13a14.74,14.74,0,0,1-6.25-9.56,13.4,13.4,0,0,1-.26-2.64A15.15,15.15,0,0,1,122.84,198.29ZM379.56,109.4c148.14,0,268.32,120.12,268.32,268.31S527.71,646,379.56,646,111.19,526,111.19,377.71,231.35,109.4,379.56,109.4ZM82,392.51a13,13,0,1,1,13-13A13,13,0,0,1,82,392.51Zm32.15,152.57s12.43-14.94,13.46-16.2l-20.52,4.58-2.5-4.12,19.83-24,3.12,5.22-14,16.23,21.11-4.91L137,526l-14,16.45,20.9-5,3.11,5.05-30.36,6.6Zm27.19,36.34-13.7-17.17L150.32,546,164,563l-3.93,3.15S150.32,554,150,553.58c-.44.33-4.93,3.89-5.37,4.21L153.65,569l-4,3.15s-8.67-10.68-9-11.1c-.42.31-5.1,4-5.51,4.38.39.45,10.29,12.75,10.29,12.75Zm27-13.61,3.59,3.66s-2.92,22.36-3.12,24.05c1.15-1.18,13.58-13.58,13.58-13.58l4,4L165.59,606.5l-3.24-3.32s3-23.14,3.2-24.78l-14,14-3.87-4ZM166.43,183.6a8.84,8.84,0,0,0,2.43-6.13,10,10,0,0,0-3.35-7.32v0h0l-.11-.12a10.34,10.34,0,0,0-7.24-2.68,9.29,9.29,0,0,0-6.31,3,9.51,9.51,0,0,0-2.48,6.72,10,10,0,0,0,3.43,6.83C156.93,187.7,162.84,187.55,166.43,183.6Zm20.45,284.73a9.93,9.93,0,0,0,6.61-.67,4.61,4.61,0,0,0,1.34-.86,3.4,3.4,0,0,0,1-2.46,3.61,3.61,0,0,0-.33-1.47,7.66,7.66,0,0,0-4.66-4.17,8.46,8.46,0,0,0-5.61.38c-.84.35-2.79,1.36-2.84,3.42a3.72,3.72,0,0,0,.39,2.18A6.55,6.55,0,0,0,186.88,468.33Zm32.4-330.83a9.62,9.62,0,0,0,4.42-6.09,8.74,8.74,0,0,0,.16-1.66,10,10,0,0,0-1.69-5.38,9.47,9.47,0,0,0-5.92-4.22,9.71,9.71,0,0,0-7.31,1.64l-4.45,2.94c.34.49,10,15.23,10.39,15.71Zm-197,295.13-.07,0a30.25,30.25,0,0,1,9.5,22.07,29.7,29.7,0,0,1-2.56,12.19l.1.09a74.17,74.17,0,0,0,40.59,98.27v.12A29.93,29.93,0,0,1,87,582.11a31.08,31.08,0,0,1,2.28,12.25h.16a74.23,74.23,0,0,0,75.11,75.3v0a30.46,30.46,0,0,1,22.19,8.91,29.47,29.47,0,0,1,6.83,10.44l.07,0a74.25,74.25,0,0,0,98.43,40.77l.08.08a30.16,30.16,0,0,1,23.75-.29,29.15,29.15,0,0,1,10.23,7.08l.14-.1a74.34,74.34,0,0,0,106.58,0v0a30.11,30.11,0,0,1,21.81-9.29A28.7,28.7,0,0,1,467,729.94l.07-.14a74.15,74.15,0,0,0,98.41-40.89A30.08,30.08,0,0,1,582,672.1a28.71,28.71,0,0,1,12.45-2.28l0-.16a74.19,74.19,0,0,0,75.12-75.46h0a30.46,30.46,0,0,1,8.87-21.91,31.92,31.92,0,0,1,10.68-6.93v-.08a74.21,74.21,0,0,0,40.46-98.44l.13-.06a30.23,30.23,0,0,1-.29-23.59,31.8,31.8,0,0,1,7.31-10.55l-.05-.1a74.14,74.14,0,0,0-.38-106.36l.14,0A30.13,30.13,0,0,1,730,291.79l0-.1a74.21,74.21,0,0,0-41.11-97.95l.12-.14A30.15,30.15,0,0,1,672.05,177a28.8,28.8,0,0,1-2.32-12.76h-.08a74.16,74.16,0,0,0-75.26-74.81V89.3a30.39,30.39,0,0,1-22.13-8.78,29.72,29.72,0,0,1-7-10.9h-.08a74.44,74.44,0,0,0-98.13-40.37l-.12-.12a29.53,29.53,0,0,1-23.75.36,29.37,29.37,0,0,1-10.62-7.32l-.11.05a74.21,74.21,0,0,0-106.06.19l-.1-.1a29.84,29.84,0,0,1-22,9.51A30.5,30.5,0,0,1,291.82,29l0,.18a74.22,74.22,0,0,0-98,40.6l-.12,0A29.71,29.71,0,0,1,177,87a29.27,29.27,0,0,1-12.55,2.3v.15a74.23,74.23,0,0,0-75,75H89.3a30.28,30.28,0,0,1-8.85,22.38,28.07,28.07,0,0,1-10.67,6.84l.1.16A74.18,74.18,0,0,0,29.2,291.85l-.14,0a29.94,29.94,0,0,1,.38,24,29,29,0,0,1-7.11,10.34l.09.16a74.29,74.29,0,0,0-.09,106.27ZM379.56,41.53c185.67,0,336.2,150.51,336.2,336.18s-150.53,336.2-336.2,336.2S43.3,563.43,43.3,377.71,193.91,41.53,379.56,41.53Z" style="fill: #fff"/>
</svg>
